<?xml version="1.0" standalone="no"?>
<!DOCTYPE svg PUBLIC "-//W3C//DTD SVG 20010904//EN"
 "http://www.w3.org/TR/2001/REC-SVG-20010904/DTD/svg10.dtd">
<svg version="1.0" xmlns="http://www.w3.org/2000/svg"
 width="1000.000000pt" height="708.000000pt" viewBox="0 0 1000.000000 708.000000"
 preserveAspectRatio="xMidYMid meet">

<g transform="translate(0.000000,708.000000) scale(0.100000,-0.100000)"
fill="#000000" stroke="none">
<path d="M950 7033 c-11 -25 -42 -71 -68 -101 -130 -150 -281 -391 -298 -476
-2 -11 -7 -22 -11 -25 -5 -3 -9 -16 -11 -28 -3 -18 2 -23 19 -23 20 0 21 -4
15 -47 -6 -55 -4 -48 43 102 30 99 94 241 125 280 16 19 16 19 7 -5 -5 -14
-26 -63 -46 -110 -50 -116 -98 -282 -123 -420 -51 -287 -49 -900 4 -900 7 0
14 15 17 38 3 32 4 31 6 -13 2 -72 17 -38 25 60 4 44 13 105 21 135 8 30 13
41 10 24 -7 -53 -13 -130 -8 -109 75 337 107 442 188 610 66 137 111 204 251
375 243 295 536 534 784 641 l65 27 12 -21 c6 -12 10 -24 8 -28 -7 -11 60 -66
94 -78 19 -6 53 -11 76 -11 40 0 42 -1 54 -41 7 -23 11 -42 9 -43 -2 -1 -50
-19 -108 -40 -326 -118 -686 -348 -866 -554 -84 -95 -222 -312 -200 -312 2 0
43 55 90 123 98 139 233 297 297 347 31 24 19 8 -41 -55 -206 -217 -354 -519
-425 -870 -14 -70 -25 -137 -23 -149 2 -11 8 6 13 39 l9 60 7 -50 c5 -42 6
-35 7 41 2 101 36 237 97 388 52 128 113 246 127 242 7 -1 10 -1 6 1 -5 3 -8
9 -8 14 0 6 4 7 10 4 5 -3 7 0 4 8 -3 8 2 20 11 27 13 11 15 10 9 -6 -4 -15
-4 -16 4 -5 6 8 8 19 6 25 -2 6 8 25 22 41 14 17 23 24 19 18 -3 -7 -2 -13 2
-13 14 0 33 22 33 38 0 12 -3 12 -17 1 -11 -9 -10 -3 6 19 12 17 25 32 28 32
3 0 0 -7 -7 -15 -20 -24 -6 -27 20 -5 13 11 19 20 14 20 -5 0 10 18 34 39 23
21 42 43 42 49 0 7 4 12 8 12 5 0 37 28 73 63 161 159 568 348 899 418 41 8
48 7 87 -21 47 -34 140 -80 163 -80 8 0 -18 15 -57 34 -39 19 -74 39 -77 45
-4 6 22 -3 57 -20 88 -41 153 -48 189 -20 35 28 78 118 88 183 7 48 8 49 9 15
1 -53 -23 -134 -60 -193 l-30 -49 31 34 c16 19 37 57 46 83 12 37 20 48 32 44
10 -3 37 -10 62 -16 79 -20 239 -71 303 -97 141 -56 187 -72 182 -63 -8 13 -7
13 59 -10 78 -27 487 -234 651 -330 17 -9 71 -39 120 -65 50 -26 126 -67 170
-90 148 -80 583 -274 650 -291 16 -4 68 -25 115 -47 107 -50 181 -75 199 -69
9 3 11 0 6 -8 -5 -9 -4 -11 3 -6 7 4 50 -5 97 -20 47 -16 80 -31 74 -35 -6 -3
17 -14 50 -24 65 -20 67 -23 18 -43 -29 -11 -29 -12 -4 -7 38 8 34 -1 -13 -25
-41 -21 -230 -69 -278 -71 -15 -1 -83 -12 -152 -25 -331 -61 -569 -84 -868
-84 -185 0 -212 3 -251 20 -24 11 -65 20 -93 20 -40 0 -51 4 -55 19 -2 10 -16
40 -29 67 -26 52 -24 40 7 -38 19 -47 19 -48 0 -48 -13 0 -33 24 -64 78 -25
42 -76 120 -113 174 -38 53 -74 104 -81 115 -7 10 12 -34 42 -97 67 -142 100
-236 116 -335 12 -69 15 -76 34 -71 157 44 350 18 595 -81 90 -36 98 -38 155
-29 89 14 479 13 496 0 31 -25 68 -25 100 -2 31 23 44 25 222 27 34 1 56 5 52
10 -3 6 15 11 42 13 41 3 47 6 54 30 4 16 3 30 -2 34 -5 3 -9 16 -9 30 0 13
-5 24 -11 24 -5 0 -7 5 -4 10 4 7 -2 9 -17 5 -97 -23 -285 -47 -393 -51 l-130
-4 155 24 c325 51 558 111 948 242 156 52 289 93 295 91 14 -4 -186 -92 -325
-142 -59 -22 -106 -40 -105 -41 1 -1 38 2 81 7 43 4 97 9 120 10 23 1 91 21
151 45 61 24 163 58 228 77 77 22 112 36 98 40 -11 2 -22 0 -24 -6 -4 -13 -46
-3 -72 18 -19 15 -18 16 18 13 20 -2 37 -2 37 0 0 15 -23 40 -33 36 -7 -2 -21
2 -32 9 -18 14 -17 15 11 33 16 10 34 24 39 30 6 7 53 28 105 47 52 19 142 56
200 81 65 29 130 50 173 56 103 15 238 46 277 64 34 16 31 16 -79 11 -63 -3
-112 -2 -108 1 12 13 -13 32 -36 28 -12 -2 7 5 43 16 111 35 133 45 138 60 3
11 2 12 -8 4 -9 -9 -17 -6 -35 12 -19 19 -35 24 -77 24 -83 1 -343 12 -346 15
-2 2 12 27 32 57 47 69 46 83 0 21 -63 -83 -62 -83 -95 -71 -35 12 -36 21 -4
56 29 31 33 56 8 49 -392 -108 -786 -189 -986 -204 -79 -6 -86 -8 -52 -14 41
-7 456 -34 735 -47 l155 -7 -70 -46 c-79 -52 -143 -89 -152 -89 -4 0 1 6 11
13 17 13 18 14 2 20 -12 5 -15 3 -10 -6 5 -9 4 -9 -7 1 -7 6 -23 12 -36 12
-32 0 -29 18 5 23 l27 4 -27 2 c-29 1 -37 15 -15 25 6 3 1 3 -12 0 -14 -4 -21
-2 -18 3 4 6 -53 13 -145 17 -269 12 -641 55 -663 77 -5 5 8 9 35 10 25 1 58
4 74 8 17 3 -85 6 -225 6 -244 0 -259 1 -374 29 -273 64 -542 156 -630 214
-22 15 -44 28 -50 28 -5 1 -15 2 -21 3 -6 0 -73 46 -148 101 -173 126 -372
246 -464 281 l-27 10 24 -25 c13 -13 81 -66 152 -117 71 -51 127 -94 125 -96
-2 -3 -41 15 -87 38 -111 56 -266 114 -482 183 -99 32 -177 60 -174 62 16 16
409 -101 507 -151 19 -9 31 -13 25 -8 -19 19 -158 105 -174 108 -9 2 -52 15
-96 30 -44 14 -121 36 -171 50 -97 25 -154 50 -193 84 l-24 21 34 1 c32 0 32
1 10 10 -13 5 -124 8 -255 7 l-231 -3 73 -43 c41 -24 71 -46 68 -49 -3 -3 -53
17 -110 46 -104 50 -106 51 -200 51 -77 0 -95 -3 -100 -16 -8 -22 6 -37 62
-70 60 -34 57 -31 42 -49 -18 -21 -22 -20 -79 25 -71 56 -87 49 -22 -10 49
-45 59 -70 26 -70 -7 0 -34 24 -58 52 -25 29 -49 50 -53 46 -4 -4 10 -33 30
-63 20 -31 34 -60 31 -65 -13 -21 -36 -8 -67 40 -49 74 -68 59 -28 -21 22 -42
20 -59 -8 -59 -16 0 -29 24 -61 112 -9 25 -12 26 -40 15 -57 -21 -154 29 -198
104 l-17 29 -134 0 -134 0 -96 -56 c-54 -31 -101 -59 -107 -62 -36 -20 28 34
81 68 35 23 64 44 64 46 0 2 -153 4 -340 4 l-339 0 -21 -47z m1647 -79 c-3 -3
-12 -4 -19 -1 -8 3 -5 6 6 6 11 1 17 -2 13 -5z m126 -11 c-13 -2 -35 -2 -50 0
-16 2 -5 4 22 4 28 0 40 -2 28 -4z m-503 -13 c0 -5 -2 -10 -4 -10 -3 0 -8 5
-11 10 -3 6 -1 10 4 10 6 0 11 -4 11 -10z m-1200 -144 c-5 -13 -22 -51 -38
-83 -90 -178 -202 -516 -256 -773 -56 -263 -69 -317 -88 -369 -14 -36 -23 -49
-29 -40 -4 7 -8 120 -9 251 0 189 3 251 16 300 8 35 19 68 24 73 4 6 15 37 25
70 10 33 24 67 30 75 7 8 15 27 19 43 6 24 10 27 38 22 41 -8 40 -6 27 -44 -6
-18 -9 -34 -7 -37 3 -2 20 37 38 88 17 51 53 140 79 198 61 137 166 317 131
226z m360 -480 c0 -2 -8 -10 -17 -17 -16 -13 -17 -12 -4 4 13 16 21 21 21 13z
m5340 -119 c0 -2 -10 -12 -22 -23 l-23 -19 19 23 c18 21 26 27 26 19z m165
-71 c-115 -41 -170 -64 -163 -70 5 -5 240 23 283 33 21 6 41 9 42 7 2 -1 -52
-25 -119 -52 -78 -31 -134 -48 -157 -47 -20 1 -71 2 -113 4 -89 2 -88 -4 -1
94 l53 59 127 6 c71 4 137 7 148 8 11 0 -34 -18 -100 -42z m-535 -91 c7 -8 8
-15 2 -15 -5 0 -15 7 -22 15 -7 8 -8 15 -2 15 5 0 15 -7 22 -15z m-2572 -341
c56 -87 57 -88 44 -80 -8 5 -12 0 -12 -13 0 -12 4 -21 10 -21 5 0 6 -7 3 -17
-4 -10 -2 -14 5 -9 6 3 13 -3 17 -15 4 -12 12 -18 21 -15 8 3 14 2 14 -3 0 -5
-13 -11 -28 -13 -27 -4 -29 -1 -41 51 -7 31 -28 89 -47 130 -40 86 -38 86 14
5z m-3074 -93 c-4 -17 -9 -30 -11 -27 -3 2 -2 19 2 36 9 41 17 33 9 -9z"/>
<path d="M750 6345 c0 -5 5 -17 10 -25 5 -8 10 -10 10 -5 0 6 -5 17 -10 25 -5
8 -10 11 -10 5z"/>
<path d="M611 5584 c0 -11 3 -14 6 -6 3 7 2 16 -1 19 -3 4 -6 -2 -5 -13z"/>
<path d="M2100 7071 c0 -33 92 -42 98 -8 3 14 -4 17 -47 17 -28 0 -51 -4 -51
-9z"/>
<path d="M2267 7049 c-9 -12 -13 -28 -10 -35 7 -18 33 -18 33 0 0 7 9 16 21
19 26 7 20 31 -8 35 -13 2 -27 -6 -36 -19z"/>
<path d="M3208 7053 c7 -3 16 -2 19 1 4 3 -2 6 -13 5 -11 0 -14 -3 -6 -6z"/>
<path d="M1790 6887 c-175 -100 -299 -197 -456 -359 -187 -192 -314 -370 -375
-525 -14 -37 -5 -27 44 46 100 151 247 311 428 465 134 115 144 126 86 87 -61
-41 -159 -121 -219 -180 -27 -25 -48 -40 -48 -34 0 22 211 231 317 314 59 46
118 95 132 108 14 14 59 45 101 69 83 49 87 52 74 52 -5 0 -43 -19 -84 -43z"/>
<path d="M2565 6490 c45 -47 94 -101 109 -120 25 -31 27 -32 11 -5 -10 17 -27
40 -38 52 -33 37 -15 35 56 -8 73 -44 282 -237 290 -269 3 -11 1 -18 -3 -15
-5 3 -42 -15 -84 -40 -153 -90 -191 -119 -179 -138 3 -5 9 -4 13 3 5 8 9 5 13
-9 7 -29 -3 -33 -24 -8 l-18 22 -70 -69 c-79 -78 -133 -169 -136 -230 l-3 -40
15 27 c8 15 18 25 23 22 5 -3 11 4 15 15 6 19 13 15 71 -40 89 -83 150 -113
241 -117 l71 -3 51 46 c28 25 61 60 73 77 l21 32 -32 -30 -33 -30 9 30 c4 17
8 57 7 90 -1 72 -43 162 -107 232 -33 36 -38 46 -26 54 36 22 96 -6 165 -77
30 -31 56 -55 58 -53 3 2 -8 32 -23 67 -15 34 -30 60 -33 57 -2 -3 -19 13 -37
35 -26 33 -29 41 -17 46 21 8 12 24 -81 146 -80 106 -202 235 -273 288 -27 20
-14 4 33 -40 95 -89 91 -113 -7 -48 -36 25 -63 48 -58 53 4 5 2 5 -5 1 -15 -8
-68 17 -108 53 -16 14 6 -12 50 -59z m281 -157 l59 -68 -71 60 c-64 54 -79 75
-55 75 5 0 35 -30 67 -67z m172 -563 c12 -49 12 -62 -3 -118 -34 -123 -136
-156 -268 -84 -62 33 -70 43 -58 75 14 37 47 44 78 15 17 -15 24 -18 21 -7 -4
9 2 20 13 27 16 11 18 16 8 35 -9 18 -9 20 2 10 23 -22 42 -16 37 12 -4 19 -2
23 7 15 8 -7 17 -4 29 9 10 11 24 17 31 15 8 -3 12 1 12 12 -2 19 38 46 62 41
9 -1 21 -25 29 -57z m-238 -61 c0 -5 -7 -9 -15 -9 -15 0 -20 12 -9 23 8 8 24
-1 24 -14z"/>
<path d="M2852 5693 l-27 -28 23 -3 c28 -4 52 14 52 39 0 27 -16 24 -48 -8z"/>
<path d="M2040 6408 c91 -95 107 -103 35 -19 -20 24 -20 24 0 17 11 -4 49 -19
85 -32 96 -35 43 -1 -64 41 -50 20 -100 44 -111 53 -11 9 14 -18 55 -60z"/>
<path d="M2608 6383 c12 -17 34 -51 48 -75 14 -24 22 -32 19 -19 l-7 24 31
-22 c17 -12 31 -21 31 -19 0 2 -33 35 -72 73 -40 39 -63 56 -50 38z"/>
<path d="M3305 6390 c10 -11 20 -20 23 -20 3 0 -3 9 -13 20 -10 11 -20 20 -23
20 -3 0 3 -9 13 -20z"/>
<path d="M1790 6386 c0 -2 8 -10 18 -17 15 -13 16 -12 3 4 -13 16 -21 21 -21
13z"/>
<path d="M1887 6289 c60 -72 85 -94 38 -33 -15 19 -25 37 -23 39 2 3 39 -15
81 -39 42 -24 77 -42 77 -41 0 7 -95 69 -162 106 l-68 37 57 -69z"/>
<path d="M3345 6340 c10 -11 20 -20 23 -20 3 0 -3 9 -13 20 -10 11 -20 20 -23
20 -3 0 3 -9 13 -20z"/>
<path d="M2250 6336 c0 -2 17 -14 38 -27 20 -12 71 -47 113 -78 l75 -55 -77
-99 c-42 -54 -79 -109 -82 -121 -3 -11 -8 -32 -12 -46 -4 -14 16 13 44 59 55
91 128 191 138 191 4 0 16 -8 27 -17 l21 -18 -19 23 -20 23 50 51 c51 54 35
48 -26 -9 l-35 -33 -78 59 c-76 57 -157 107 -157 97z"/>
<path d="M2614 6295 c-10 -8 -14 -15 -8 -15 6 0 17 7 24 15 16 19 9 19 -16 0z"/>
<path d="M3370 6306 c0 -2 8 -10 18 -17 15 -13 16 -12 3 4 -13 16 -21 21 -21
13z"/>
<path d="M3720 6275 c19 -22 39 -44 44 -50 5 -5 4 -1 -2 10 -6 11 -25 33 -44
50 l-33 30 35 -40z"/>
<path d="M581 6254 c0 -11 3 -14 6 -6 3 7 2 16 -1 19 -3 4 -6 -2 -5 -13z"/>
<path d="M3400 6266 c0 -2 8 -10 18 -17 15 -13 16 -12 3 4 -13 16 -21 21 -21
13z"/>
<path d="M5778 6233 c6 -2 18 -2 25 0 6 3 1 5 -13 5 -14 0 -19 -2 -12 -5z"/>
<path d="M5693 6223 c9 -2 23 -2 30 0 6 3 -1 5 -18 5 -16 0 -22 -2 -12 -5z"/>
<path d="M2095 6180 c10 -11 20 -20 23 -20 3 0 -3 9 -13 20 -10 11 -20 20 -23
20 -3 0 3 -9 13 -20z"/>
<path d="M3470 6170 c12 -16 24 -30 26 -30 3 0 -4 14 -16 30 -12 17 -24 30
-26 30 -3 0 4 -13 16 -30z"/>
<path d="M1262 6150 c-9 -14 -9 -21 0 -26 6 -4 8 -3 4 4 -3 6 1 15 10 20 9 5
12 12 7 15 -5 3 -14 -3 -21 -13z"/>
<path d="M2210 6075 c30 -30 57 -55 59 -55 3 0 -19 25 -49 55 -30 30 -57 55
-59 55 -3 0 19 -25 49 -55z"/>
<path d="M2595 6070 c33 -35 60 -66 61 -67 1 -2 7 4 15 14 11 13 11 15 1 9
-10 -6 -33 10 -75 50 l-62 59 60 -65z"/>
<path d="M3738 6088 c5 -7 42 -58 82 -113 39 -55 77 -100 83 -100 6 0 12 -6
15 -14 3 -9 0 -11 -9 -6 -8 5 -10 4 -6 0 4 -5 14 -10 23 -11 18 -3 -47 122
-89 169 -27 31 -27 31 4 -21 17 -29 29 -55 27 -57 -2 -3 -32 34 -67 80 -35 47
-65 85 -68 85 -3 0 -1 -6 5 -12z m162 -202 c0 -5 -7 -1 -15 10 -8 10 -14 24
-14 29 0 6 6 1 14 -9 8 -11 15 -24 15 -30z"/>
<path d="M2710 6073 c0 -14 41 -76 46 -70 7 6 -22 63 -36 72 -5 3 -10 3 -10
-2z"/>
<path d="M1690 6050 c6 -11 13 -20 16 -20 2 0 0 9 -6 20 -6 11 -13 20 -16 20
-2 0 0 -9 6 -20z"/>
<path d="M3050 6050 c6 -11 13 -20 16 -20 2 0 0 9 -6 20 -6 11 -13 20 -16 20
-2 0 0 -9 6 -20z"/>
<path d="M3549 6055 c5 -11 17 -29 26 -40 l16 -20 -10 20 c-5 11 -17 29 -26
40 l-16 20 10 -20z"/>
<path d="M3611 5955 c12 -22 26 -44 32 -50 15 -16 -20 48 -38 70 -9 11 -7 2 6
-20z"/>
<path d="M8536 5946 c10 -8 21 -12 24 -10 5 6 -21 24 -34 24 -6 0 -1 -6 10
-14z"/>
<path d="M2544 5908 l-19 -23 23 19 c21 18 27 26 19 26 -2 0 -12 -10 -23 -22z"/>
<path d="M8030 5902 c0 -13 178 -114 190 -107 18 11 11 32 -17 51 -16 10 -31
17 -35 16 -5 -1 -8 3 -8 9 0 6 -7 9 -15 5 -8 -3 -15 -1 -15 4 0 6 -9 10 -19
10 -11 0 -23 5 -26 10 -7 12 -55 14 -55 2z"/>
<path d="M6540 5826 c0 -2 7 -7 16 -10 8 -3 12 -2 9 4 -6 10 -25 14 -25 6z"/>
<path d="M8237 5799 c-3 -13 -1 -19 6 -16 15 5 22 37 9 37 -5 0 -12 -9 -15
-21z"/>
<path d="M1460 5804 c0 -54 123 -337 171 -394 l21 -25 -14 25 c-78 132 -134
261 -124 287 3 8 -8 37 -24 66 -16 29 -30 47 -30 41z"/>
<path d="M8265 5780 c-3 -5 1 -10 10 -10 9 0 13 5 10 10 -3 6 -8 10 -10 10 -2
0 -7 -4 -10 -10z"/>
<path d="M3861 5744 c13 -14 24 -31 24 -37 0 -21 38 -82 43 -69 2 7 -2 20 -9
30 -7 9 -1 6 14 -8 15 -13 25 -30 22 -38 -2 -7 -1 -11 4 -8 5 4 23 -11 41 -32
17 -20 28 -30 24 -22 -25 49 -160 210 -177 210 -6 0 0 -12 14 -26z m49 -55 c0
-6 -4 -7 -10 -4 -5 3 -10 11 -10 16 0 6 5 7 10 4 6 -3 10 -11 10 -16z"/>
<path d="M2200 5726 c0 -11 30 -66 36 -66 2 0 -3 15 -12 33 -19 36 -24 44 -24
33z"/>
<path d="M7150 5724 c-348 -32 -828 -129 -845 -171 -3 -9 -4 -18 -1 -20 2 -2
55 -13 117 -23 132 -21 157 -29 137 -41 -10 -7 -9 -9 4 -9 10 0 24 -11 33 -23
11 -17 32 -28 72 -36 39 -9 52 -16 42 -22 -12 -7 -12 -9 0 -9 8 0 11 -6 7 -16
-5 -14 -4 -15 9 -4 19 16 20 -1 4 -66 -15 -57 -10 -62 94 -102 43 -17 150 -69
237 -116 88 -47 168 -86 178 -86 10 0 45 11 78 24 32 13 91 31 131 41 117 28
119 32 41 105 -37 34 -75 79 -86 101 l-20 39 24 6 c13 3 22 9 19 14 -16 25
199 47 320 31 44 -5 123 -15 175 -21 217 -25 386 -65 512 -119 32 -14 47 -15
60 -7 16 10 16 13 -3 43 -20 32 -20 34 -2 90 15 48 24 61 51 73 31 15 32 17
15 32 -10 9 -45 28 -78 43 -33 15 -92 42 -131 61 -152 70 -379 133 -609 169
-97 15 -485 28 -585 19z"/>
<path d="M1520 5692 c0 -4 21 -30 46 -57 l45 -50 -42 58 c-41 56 -49 64 -49
49z"/>
<path d="M1654 5620 c25 -41 57 -88 71 -105 l26 -30 -26 42 c-33 56 -32 63 7
27 18 -16 6 0 -26 36 -97 107 -100 108 -52 30z"/>
<path d="M3391 5654 c0 -11 3 -14 6 -6 3 7 2 16 -1 19 -3 4 -6 -2 -5 -13z"/>
<path d="M836 5580 c-30 -92 -56 -235 -55 -289 1 -20 7 7 15 59 8 52 28 142
44 200 16 57 28 106 25 108 -2 2 -15 -33 -29 -78z"/>
<path d="M3645 5620 c37 -172 65 -320 65 -340 0 -24 1 -23 23 8 12 18 36 41
52 52 17 11 25 20 18 20 -7 0 -28 -14 -47 -31 l-35 -30 -6 38 c-20 115 -46
233 -60 268 -8 22 -13 29 -10 15z"/>
<path d="M1990 5595 c19 -19 36 -35 39 -35 3 0 -10 16 -29 35 -19 19 -36 35
-39 35 -3 0 10 -16 29 -35z"/>
<path d="M3402 5480 c0 -147 -8 -233 -23 -260 -6 -10 -8 -4 -7 20 1 19 1 54 0
77 -2 40 -3 41 -29 32 -16 -5 -85 -24 -154 -44 -233 -64 -359 -130 -452 -238
-29 -33 -69 -78 -89 -100 -21 -21 -30 -36 -20 -32 51 21 124 37 132 29 20 -21
-95 -108 -179 -135 -66 -21 -97 -53 -126 -131 -16 -40 -33 -82 -39 -93 -5 -11
-11 -23 -12 -27 -4 -21 -6 -22 -15 -3 -8 17 -9 17 -4 -5 3 -14 7 -34 11 -46 4
-15 -6 -34 -39 -70 l-45 -49 -45 23 c-25 13 -60 38 -78 55 -21 21 -30 26 -26
14 4 -10 7 -27 7 -37 0 -30 35 -55 154 -114 99 -48 178 -107 165 -121 -3 -3
-21 7 -40 21 -55 41 -150 87 -161 76 -5 -5 -2 -14 9 -23 16 -13 17 -12 4 4
-19 24 0 22 27 -3 24 -23 30 -38 9 -24 -7 5 0 -2 15 -16 15 -14 44 -60 64
-103 26 -54 52 -91 83 -118 42 -37 44 -42 31 -62 -12 -20 -12 -21 3 -8 20 16
23 9 29 -51 3 -26 0 -38 -9 -38 -7 0 -13 -7 -13 -16 0 -8 -6 -21 -12 -28 -7
-7 -40 -48 -73 -90 -33 -43 -117 -150 -186 -237 -129 -162 -212 -287 -250
-375 -12 -27 -39 -86 -60 -131 -44 -95 -63 -163 -80 -288 -14 -110 -8 -173 32
-323 45 -171 64 -225 122 -342 28 -58 61 -130 74 -160 12 -30 22 -46 22 -35 1
12 29 -22 74 -92 94 -145 151 -210 207 -236 25 -12 65 -35 90 -52 49 -34 107
-65 122 -65 19 0 -119 199 -216 312 -23 27 -41 52 -41 57 0 6 -27 47 -61 93
-89 121 -139 198 -200 305 -43 76 -54 105 -55 142 0 25 -3 40 -6 34 -10 -27
-22 -11 -33 43 -28 133 45 403 162 598 23 39 90 143 149 231 296 446 422 673
387 697 -8 5 -2 6 15 2 48 -11 29 4 -28 22 -59 19 -105 54 -70 54 10 0 51 -16
91 -35 40 -19 77 -35 83 -35 21 0 91 -42 91 -55 0 -25 40 -82 66 -93 14 -7 43
-12 65 -12 46 0 44 -15 -2 -25 -21 -5 -44 -1 -70 11 -33 14 -42 15 -52 4 -9
-10 -9 -11 1 -6 17 10 15 -2 -8 -49 -11 -22 -19 -53 -20 -68 0 -34 45 -280 67
-362 8 -33 17 -70 18 -83 2 -12 13 -41 24 -63 15 -27 21 -60 22 -107 2 -58 3
-61 8 -27 l7 40 6 -45 c7 -56 33 -200 47 -260 22 -98 53 -147 191 -300 42 -47
89 -102 104 -124 l29 -38 -27 17 c-15 10 -29 15 -32 12 -3 -3 5 -13 19 -22 14
-9 30 -29 37 -45 7 -16 27 -38 46 -49 19 -11 34 -27 34 -36 0 -32 18 -13 24
26 16 101 132 350 236 508 111 169 294 367 381 414 l34 18 -30 -23 c-133 -103
-227 -205 -331 -363 -48 -71 -92 -147 -71 -122 19 22 50 22 133 -4 101 -30
219 -90 299 -151 63 -48 91 -87 57 -80 -8 1 -11 -1 -8 -6 3 -5 -16 -38 -41
-73 -48 -65 -173 -268 -173 -280 0 -4 -9 -9 -20 -12 -13 -3 -20 -14 -20 -30 0
-14 -5 -29 -10 -32 -5 -3 -10 -14 -10 -23 1 -9 11 5 23 32 l23 48 32 -27 c18
-15 32 -34 32 -43 0 -11 -10 -6 -35 18 -55 54 -41 27 24 -45 45 -50 67 -85 90
-145 17 -44 31 -92 32 -107 1 -15 5 -39 9 -53 7 -22 8 -23 9 -4 3 67 -51 219
-105 292 -21 28 -7 29 57 6 54 -19 218 -30 285 -18 l49 8 -40 7 c-37 6 -38 6
-8 8 31 1 123 35 123 45 0 7 -50 32 -80 40 -20 5 -18 3 8 -12 l33 -18 -27 -12
c-60 -28 -165 -36 -260 -20 -49 9 -104 22 -123 29 l-33 14 20 25 c19 24 25 25
129 25 59 0 128 -3 153 -7 37 -6 41 -5 20 4 -44 19 -250 22 -311 5 -29 -9 -55
-14 -57 -13 -7 8 49 106 117 207 213 317 536 633 814 793 73 43 56 16 -21 -31
-37 -23 -83 -56 -102 -73 -32 -28 -29 -28 25 8 91 59 150 92 165 92 8 0 -18
-20 -57 -44 -133 -82 -238 -169 -404 -335 -199 -201 -326 -357 -438 -543 -21
-35 -21 -36 -1 -31 11 3 18 9 15 13 -7 12 65 117 135 199 l63 74 45 -48 c25
-26 58 -55 73 -64 32 -19 46 -37 112 -134 29 -42 44 -74 41 -85 -7 -19 -9 -24
-84 -197 -66 -152 -133 -322 -176 -449 -26 -76 -34 -117 -34 -169 l0 -70 25
27 c14 15 28 38 31 52 3 13 15 29 25 35 16 8 23 4 40 -26 12 -20 35 -43 53
-51 46 -24 172 -121 189 -147 8 -12 50 -65 94 -118 43 -52 109 -139 146 -192
57 -81 66 -101 61 -124 -4 -15 -10 -33 -15 -38 -4 -6 -15 -31 -23 -56 -24 -70
-12 -99 124 -305 36 -55 72 -114 79 -132 l13 -32 291 0 292 0 -40 33 c-283
231 -623 572 -900 903 -33 39 -88 103 -123 142 l-63 70 31 35 c16 19 56 47 87
62 32 15 65 31 73 36 49 28 130 67 130 62 0 -3 11 7 25 23 16 19 25 24 25 14
0 -10 6 -8 18 8 l18 23 46 -98 c105 -221 178 -522 178 -736 l0 -69 -45 36
c-162 133 136 -139 414 -376 l195 -168 178 0 c99 0 178 4 178 9 0 19 -75 224
-157 429 -47 118 -83 215 -81 218 7 6 75 -87 130 -178 27 -46 48 -74 45 -63
-4 11 -35 137 -71 280 -36 143 -83 326 -105 407 -21 80 -42 172 -46 205 l-6
58 20 -35 c11 -19 20 -45 21 -56 0 -12 8 -32 19 -45 51 -66 270 -852 323
-1158 l12 -71 368 0 368 0 6 28 c4 15 16 43 27 62 26 47 49 93 83 164 33 68
166 208 256 270 70 47 106 45 162 -12 76 -75 189 -309 216 -445 l14 -67 298 0
298 0 0 22 c0 36 -85 351 -150 551 -64 200 -73 257 -42 257 11 0 24 -10 30
-22 11 -22 12 -21 10 9 -2 21 6 43 22 65 70 93 145 250 138 287 -3 11 8 19 37
28 l40 11 -40 2 c-46 3 -109 17 -82 19 29 2 14 32 -98 201 -56 85 -105 166
-108 179 l-6 23 26 -23 27 -24 -22 31 c-11 17 -28 37 -37 44 -8 7 -15 16 -15
21 0 5 24 -8 53 -28 29 -21 44 -28 34 -16 l-18 21 42 -9 c23 -5 46 -8 51 -7 5
2 -18 39 -51 82 -34 43 -61 80 -61 81 0 1 11 15 25 31 14 16 25 32 25 37 0 12
38 46 44 39 3 -3 6 0 6 7 0 14 30 47 30 34 1 -16 90 92 90 110 0 25 20 21 52
-10 15 -14 30 -24 33 -21 3 3 -51 59 -121 124 -70 66 -154 144 -186 174 l-59
55 33 46 33 46 66 -27 c103 -41 404 -206 562 -307 37 -23 67 -41 67 -39 0 6
-87 67 -187 130 l-92 58 25 26 c13 15 24 34 24 44 0 9 -34 42 -75 73 -48 36
-75 63 -75 76 0 10 5 19 10 19 29 0 0 23 -82 66 l-92 47 57 52 c42 37 56 56
51 68 -3 9 -9 17 -13 17 -4 0 -16 8 -27 18 -61 56 -315 182 -489 242 -357 122
-610 147 -1067 105 -120 -11 -172 -11 -215 -3 -80 15 -85 17 -78 28 4 6 -5 10
-21 10 l-27 0 24 27 c13 14 18 23 12 19 -17 -10 -16 4 2 28 19 25 19 56 0 56
-8 0 -33 20 -56 45 -23 25 -65 62 -92 82 -27 20 -59 46 -71 58 -28 28 -222
126 -315 159 -40 15 -117 36 -170 47 -53 12 -102 26 -109 32 -28 23 -176 254
-188 295 -13 43 -9 52 15 30 8 -7 11 -8 8 -2 -13 23 99 25 221 5 64 -11 209
-32 322 -46 113 -14 211 -27 218 -30 6 -2 12 -3 12 -2 0 1 -14 55 -30 121 -17
65 -30 127 -30 137 0 20 10 24 26 10 5 -5 50 -30 99 -56 50 -26 81 -44 70 -41
-14 5 -12 0 10 -19 83 -69 241 -109 440 -109 151 0 553 12 623 18 34 4 51 2
47 -5 -4 -6 4 -8 20 -5 34 6 271 18 391 20 l92 1 16 -52 c28 -86 40 -96 132
-98 68 -2 93 -8 175 -43 143 -61 190 -71 320 -67 61 2 113 6 116 9 10 10 -9
26 -98 86 -148 99 -246 141 -536 229 -101 31 -102 32 -167 103 -74 81 -74 97
3 99 l46 2 -50 7 c-94 13 -114 -5 -79 -73 20 -38 95 -137 119 -157 16 -14 16
-15 -6 -21 -60 -17 -103 -10 -159 28 -71 47 -155 133 -216 220 -58 83 -71 98
-50 56 39 -78 236 -293 269 -293 7 0 6 -4 -3 -10 -8 -5 -42 -10 -74 -10 -49 0
-74 7 -142 40 -142 69 -259 175 -354 320 -23 36 -39 57 -36 47 27 -82 227
-296 334 -359 l64 -36 -79 -4 c-93 -4 -171 18 -298 85 -187 100 -333 237 -425
400 -42 74 -49 74 -11 -2 43 -84 139 -200 229 -274 102 -84 132 -104 226 -153
l80 -42 -90 -8 c-132 -11 -142 -10 -234 20 -298 98 -612 325 -744 539 -48 77
-73 99 -40 35 54 -106 175 -237 316 -343 120 -91 208 -143 333 -200 l97 -43
-54 -6 c-170 -17 -195 -16 -291 9 -352 91 -704 321 -873 571 -47 69 -62 84
-83 84 -18 0 -22 -3 -13 -9 10 -6 9 -10 -7 -14 -12 -3 -21 -10 -21 -16 0 -6
52 -65 115 -131 63 -66 115 -124 115 -129 0 -5 -82 -12 -182 -16 -174 -7 -189
-6 -311 20 -132 27 -383 97 -421 117 -30 16 -127 83 -152 104 -21 19 -21 19
-3 95 10 41 30 102 45 135 15 32 31 68 36 79 l8 20 -16 -20 c-39 -49 -65 -108
-85 -185 -11 -47 -23 -88 -26 -93 -2 -4 -27 5 -54 20 -58 31 -58 35 -9 141 27
58 46 84 34 45 -5 -14 -4 -15 4 -4 6 8 8 21 4 29 -4 11 -1 13 8 7 9 -5 11 -4
6 4 -7 11 14 47 58 102 12 14 -1 2 -28 -25 -90 -93 -155 -267 -156 -414 0 -72
23 -193 51 -266 10 -27 17 -52 14 -54 -2 -3 -45 9 -94 25 l-89 30 -14 -26 c-7
-14 -46 -70 -86 -124 -71 -95 -74 -98 -105 -92 -69 13 -235 106 -329 185 -121
101 -256 260 -331 390 -25 44 -26 48 -18 150 5 58 7 108 5 111 -2 4 -5 45 -5
92 -2 73 -6 94 -35 153 -31 67 -32 68 -34 34 -1 -19 -3 -46 -5 -60 -2 -14 -6
-54 -10 -90 -10 -106 -25 -108 -25 -4 0 162 -48 362 -119 501 l-29 58 0 -145z
m-123 -214 c-2 -2 -38 -18 -79 -34 -41 -17 -153 -64 -249 -106 -96 -42 -176
-75 -178 -72 -9 9 263 137 372 176 99 35 146 48 134 36z m7 -495 c-30 -66 -77
-164 -104 -216 -28 -52 -49 -95 -47 -95 2 0 49 62 106 138 122 164 148 198
171 226 18 21 18 20 7 -13 -22 -64 -107 -220 -165 -303 -32 -46 -94 -119 -138
-163 -85 -86 -84 -84 19 45 63 79 159 219 215 315 33 58 12 33 -55 -65 -76
-109 -146 -192 -184 -219 l-30 -22 15 38 c22 52 203 411 221 440 33 50 21 11
-31 -106z m-421 77 c-16 -11 -75 -66 -130 -122 -72 -72 -119 -131 -164 -204
-35 -57 -66 -101 -68 -98 -9 9 56 137 101 200 53 74 155 173 221 215 55 35 87
42 40 9z m45 -208 c-65 -95 -192 -249 -253 -307 -61 -58 -99 -73 -51 -20 111
119 177 195 252 289 47 60 87 106 90 104 2 -3 -15 -32 -38 -66z m-530 -194 c0
-2 -8 -10 -17 -17 -16 -13 -17 -12 -4 4 13 16 21 21 21 13z m1677 -236 c3 -19
1 -20 -25 -6 -15 9 -37 23 -49 33 -22 19 -83 110 -83 126 0 17 154 -133 157
-153z m-707 -65 c-5 -83 -10 -200 -10 -261 l0 -112 -40 -36 c-43 -38 -126 -84
-135 -74 -3 3 -15 38 -26 78 l-21 72 25 47 c14 25 41 91 60 146 19 55 43 118
52 139 18 43 95 160 100 154 2 -2 0 -71 -5 -153z m1710 27 l76 -27 -37 -260
c-21 -143 -45 -316 -54 -385 -9 -69 -23 -140 -30 -157 -12 -29 -19 -33 -50
-33 l-37 0 7 68 c4 37 18 165 31 285 13 120 24 232 23 250 0 31 -1 31 -10 8
-5 -13 -7 -33 -3 -44 4 -13 2 -17 -5 -13 -7 5 -9 -4 -6 -26 4 -27 4 -29 -5
-13 -8 16 -9 15 -4 -11 5 -33 -24 -169 -35 -158 -3 3 -11 -11 -17 -33 l-11
-38 -21 49 c-12 27 -22 56 -23 65 0 10 -4 7 -12 -9 l-11 -25 -4 28 c-4 36 35
170 48 162 6 -4 10 -1 10 5 0 6 4 9 9 5 12 -7 25 31 15 46 -5 8 -3 9 6 4 10
-6 12 -4 7 8 -3 10 -2 17 4 17 5 0 9 6 7 13 -1 6 4 35 11 64 7 31 11 82 8 123
-5 81 -15 78 113 32z m-783 -58 c39 -14 55 -26 64 -47 6 -15 9 -30 7 -33 -11
-11 -131 62 -140 85 -6 17 -5 22 4 18 7 -2 36 -13 65 -23z m-1700 -88 c45 -14
46 -15 15 -15 -54 -1 -110 36 -139 94 -14 25 -9 23 30 -17 31 -32 61 -52 94
-62z m1722 15 c31 -11 48 -26 61 -51 19 -38 36 -110 26 -110 -5 0 -168 138
-251 214 l-40 36 80 -36 c44 -20 100 -43 124 -53z m-812 -53 c-3 -7 -5 -2 -5
12 0 14 2 19 5 13 2 -7 2 -19 0 -25z m-890 -4 c-3 -3 -12 -4 -19 -1 -8 3 -5 6
6 6 11 1 17 -2 13 -5z m933 -385 c18 -152 30 -289 26 -303 -7 -30 -26 -26 -26
5 0 20 -15 26 -25 9 -9 -14 -82 -12 -92 3 -5 8 -10 2 -13 -18 -4 -20 -10 11
-18 88 -15 142 -24 390 -13 332 5 -22 9 -33 10 -24 2 28 48 62 76 57 l27 -6
-6 112 c-5 104 -5 108 8 66 8 -25 28 -169 46 -321z m-3 239 c-3 -8 -6 -5 -6 6
-1 11 2 17 5 13 3 -3 4 -12 1 -19z m56 -85 c3 -10 13 -54 22 -98 10 -44 31
-118 47 -165 33 -94 123 -273 147 -293 12 -10 14 -9 7 8 -10 28 -56 217 -56
233 0 28 23 -3 60 -80 41 -84 63 -168 58 -216 -3 -27 -5 -28 -37 -20 -50 14
-122 94 -169 190 -49 100 -90 221 -99 297 -6 51 -8 53 -15 26 -4 -18 -5 -6 -2
30 7 75 14 105 24 105 5 0 11 -8 13 -17z m-46 -35 c-3 -7 -5 -2 -5 12 0 14 2
19 5 13 2 -7 2 -19 0 -25z m-217 -8 c0 -19 -36 -47 -47 -36 -4 3 -12 -3 -20
-14 -17 -23 -43 -27 -43 -5 0 8 7 15 15 15 8 0 29 13 47 30 39 35 48 37 48 10z
m3 -190 c3 -87 2 -146 -3 -135 -4 11 -28 68 -53 127 l-45 106 46 30 c26 16 47
28 48 28 1 -1 4 -71 7 -156z m-276 128 c-3 -8 -6 -5 -6 6 -1 11 2 17 5 13 3
-3 4 -12 1 -19z m510 -95 c-3 -10 -5 -4 -5 12 0 17 2 24 5 18 2 -7 2 -21 0
-30z m10 -75 c-2 -13 -4 -5 -4 17 -1 22 1 32 4 23 2 -10 2 -28 0 -40z m-457 5
c15 -27 19 -31 15 -13 l-6 25 20 -23 c11 -13 25 -21 31 -17 5 3 19 8 31 10 17
4 27 -10 66 -93 57 -124 66 -145 53 -137 -6 3 -10 2 -10 -2 0 -5 -13 -17 -30
-26 -21 -13 -30 -14 -30 -6 0 7 -3 10 -6 7 -3 -4 6 -35 20 -70 36 -91 5 -44
-69 102 -51 102 -115 255 -115 276 0 13 12 0 30 -33z m1137 -67 c-20 -57 -75
-140 -123 -186 -41 -38 -39 -32 16 50 20 30 51 82 69 115 43 78 42 77 48 71 3
-3 -2 -25 -10 -50z m-670 -3 c-3 -10 -5 -4 -5 12 0 17 2 24 5 18 2 -7 2 -21 0
-30z m-444 -129 c13 -18 26 -32 28 -29 3 2 17 -21 32 -53 15 -31 21 -48 12
-38 -8 11 -15 17 -15 13 0 -21 -38 17 -58 56 -22 44 -73 177 -71 187 0 3 12
-19 25 -48 13 -29 35 -69 47 -88z m454 64 c-3 -7 -5 -2 -5 12 0 14 2 19 5 13
2 -7 2 -19 0 -25z m-540 -50 c-3 -7 -5 -2 -5 12 0 14 2 19 5 13 2 -7 2 -19 0
-25z m-10 -70 c-2 -13 -4 -5 -4 17 -1 22 1 32 4 23 2 -10 2 -28 0 -40z m370
-15 c-3 -10 -5 -4 -5 12 0 17 2 24 5 18 2 -7 2 -21 0 -30z m-380 -85 c-2 -13
-4 -3 -4 22 0 25 2 35 4 23 2 -13 2 -33 0 -45z m218 -18 c9 -16 13 -30 11 -30
-3 0 -12 14 -21 30 -9 17 -13 30 -11 30 3 0 12 -13 21 -30z m-130 -87 c58 -70
121 -170 112 -179 -2 -3 -35 28 -72 68 -74 80 -76 74 -20 -49 55 -120 235
-380 255 -368 4 2 7 -1 8 -8 0 -7 4 -22 7 -34 12 -40 -25 -27 -75 25 -133 138
-275 415 -293 570 -7 61 12 55 78 -25z m2965 -494 c-22 -118 -47 -245 -56
-284 -8 -38 -16 -82 -16 -97 -1 -15 -7 -29 -15 -32 -8 -3 -11 -1 -8 4 3 5 -35
39 -85 76 -91 66 -105 80 -72 70 12 -4 21 2 29 22 49 114 67 151 98 203 20 32
38 68 40 79 2 11 13 34 25 50 38 53 13 32 -34 -29 -50 -65 -97 -142 -129 -213
-11 -27 -27 -48 -34 -48 -7 0 -13 -3 -13 -7 0 -5 -7 -16 -15 -27 -13 -18 -15
-18 -49 3 -19 12 -60 32 -91 45 l-56 23 143 107 c255 192 371 276 375 272 2
-2 -14 -100 -37 -217z m-826 -71 c25 -18 107 -75 182 -127 74 -51 132 -96 129
-99 -3 -3 -15 4 -28 15 -34 31 -55 40 -32 14 29 -34 105 -87 228 -161 61 -37
113 -73 115 -79 7 -20 -33 -5 -108 39 l-65 39 -53 -112 c-29 -62 -55 -124 -57
-139 -2 -14 -29 -70 -60 -123 -41 -70 -60 -94 -68 -86 -6 6 -15 11 -20 11 -5
0 -1 -7 8 -16 22 -22 15 -56 -15 -71 -20 -10 -27 -9 -42 4 -26 24 -22 50 13
75 17 13 40 40 50 60 11 21 43 77 73 127 36 60 55 103 58 134 5 43 4 45 -31
62 -115 54 -283 189 -386 311 l-54 64 47 45 c26 24 52 45 58 45 7 0 33 -15 58
-32z m-1807 -10 c-3 -7 -5 -2 -5 12 0 14 2 19 5 13 2 -7 2 -19 0 -25z m-17 12
c0 -5 -2 -10 -4 -10 -3 0 -8 5 -11 10 -3 6 -1 10 4 10 6 0 11 -4 11 -10z
m3250 5 c0 -9 -90 -489 -104 -552 -7 -35 -11 -63 -7 -63 3 0 -23 -18 -59 -40
-36 -22 -68 -40 -73 -40 -4 0 -32 17 -63 37 l-56 37 27 23 c31 27 53 29 103 7
20 -9 53 -20 72 -24 l35 -9 -30 27 c-17 15 -52 45 -77 67 l-47 40 71 145 c40
80 72 150 73 155 1 10 6 21 33 63 8 12 12 22 9 22 -3 0 -31 -39 -63 -87 -32
-49 -65 -99 -74 -113 -9 -14 -33 -55 -54 -92 -21 -38 -41 -68 -44 -68 -4 0
-28 11 -54 24 -26 13 -70 30 -98 37 -27 7 -50 15 -50 18 1 6 58 50 193 149 42
31 132 98 200 149 114 86 137 100 137 88z m-2420 -38 c0 -2 -10 -12 -22 -23
l-23 -19 19 23 c18 21 26 27 26 19z m1445 -169 c22 -11 42 -22 44 -24 4 -4
-48 -94 -54 -94 -3 0 -29 16 -60 35 -57 37 -64 54 -49 112 6 20 7 21 42 6 21
-8 55 -24 77 -35z m204 -122 l65 -33 -46 -27 c-24 -14 -50 -26 -56 -26 -21 0
-112 61 -112 75 0 18 39 45 65 45 11 -1 49 -16 84 -34z m-925 -77 c-39 -108
-149 -335 -274 -564 -60 -110 -116 -225 -124 -255 -15 -58 -26 -90 -31 -90 -2
0 -33 13 -68 29 -59 26 -67 34 -77 69 -11 35 -9 45 19 113 51 122 197 394 211
394 7 0 15 6 18 14 3 9 0 11 -9 6 -12 -7 -12 -6 -1 6 11 12 16 10 34 -11 11
-14 31 -38 45 -54 21 -24 24 -32 14 -53 -49 -106 66 98 199 355 35 67 65 121
67 119 2 -3 -8 -37 -23 -78z m1738 -17 c40 -32 120 -105 178 -161 103 -101 79
-83 -90 68 -47 42 -106 93 -130 113 -73 60 -38 43 42 -20z m-962 -21 l41 -18
-85 -47 c-47 -25 -88 -46 -91 -46 -7 0 79 128 86 129 4 1 26 -7 49 -18z m517
-47 c42 -24 43 -25 28 -52 -30 -57 -28 -56 -93 -23 -33 17 -63 35 -67 41 -4 6
-4 28 0 50 l7 39 41 -15 c23 -8 61 -26 84 -40z m-2242 -3 c-3 -6 -11 -8 -17
-5 -6 4 -5 9 3 15 16 10 23 4 14 -10z m77 -57 c25 -8 90 -21 144 -29 l99 -14
-95 3 c-91 3 -210 30 -210 48 0 11 10 10 62 -8z m1738 -39 c53 -30 130 -79
171 -109 50 -36 76 -50 81 -42 5 6 8 1 8 -13 0 -17 -3 -21 -12 -14 -84 66
-161 118 -252 170 -61 35 -107 63 -102 63 6 0 53 -25 106 -55z m500 -75 c22
-16 22 -18 5 -17 -11 1 -19 -3 -18 -10 2 -7 -26 6 -62 29 -65 40 -80 53 -48
41 13 -5 15 -2 10 11 -6 14 1 13 41 -9 26 -14 58 -34 72 -45z m-158 38 c26
-13 47 -27 47 -33 1 -5 -35 -77 -79 -160 -44 -82 -101 -191 -126 -242 -42 -82
-49 -90 -68 -83 -12 4 -20 13 -18 20 1 6 41 78 87 159 l85 148 7 107 c3 58 9
106 12 106 3 0 27 -10 53 -22z m150 -112 c0 -5 -33 -27 -74 -48 -40 -22 -64
-31 -53 -21 11 10 31 40 45 65 l24 47 30 -17 c16 -9 29 -21 28 -26z m129 -13
c13 -16 12 -17 -3 -4 -10 7 -18 15 -18 17 0 8 8 3 21 -13z m-36 -13 c10 -11
56 -45 101 -75 87 -57 140 -117 188 -212 36 -73 72 -171 79 -219 6 -36 4 -42
-16 -52 -12 -6 -17 -11 -12 -11 6 0 63 25 127 57 64 31 114 53 110 47 -15 -25
-246 -265 -253 -263 -4 2 -40 46 -80 98 -120 157 -216 268 -353 408 -76 78
-126 136 -120 141 5 4 46 28 90 51 91 49 80 50 162 -16 22 -18 30 -22 26 -10
-3 9 -9 16 -13 16 -11 1 -75 60 -65 60 6 0 19 -9 29 -20z m-1028 -166 c-3 -3
-12 -4 -19 -1 -8 3 -5 6 6 6 11 1 17 -2 13 -5z m551 -223 c18 -11 11 -61 -10
-75 -39 -24 -74 30 -42 65 19 21 32 23 52 10z"/>
<path d="M3511 3344 c0 -11 3 -14 6 -6 3 7 2 16 -1 19 -3 4 -6 -2 -5 -13z"/>
<path d="M5529 2192 c33 -28 34 -32 34 -98 l0 -69 4 63 c2 34 7 62 10 62 3 0
21 -12 40 -26 19 -14 36 -24 39 -22 4 5 -11 16 -106 82 -40 28 -46 30 -21 8z"/>
<path d="M5387 1614 c-14 -15 -6 -34 14 -34 14 0 19 5 17 17 -3 18 -20 27 -31
17z"/>
<path d="M6705 1140 c11 -14 21 -27 22 -28 1 -2 10 1 20 8 11 6 12 9 3 7 -8
-3 -26 5 -40 17 l-25 21 20 -25z"/>
<path d="M5920 1270 c0 -13 7 -20 20 -20 13 0 20 7 20 20 0 13 -7 20 -20 20
-13 0 -20 -7 -20 -20z"/>
<path d="M2105 5470 c83 -84 183 -159 272 -204 79 -40 78 -31 -2 12 -88 47
-153 92 -185 128 l-25 28 29 -18 c46 -29 102 -60 96 -54 -3 3 -43 31 -90 63
-47 31 -101 72 -120 91 -20 19 -40 34 -45 34 -5 0 26 -36 70 -80z"/>
<path d="M1785 5442 c17 -20 17 -25 5 -32 -8 -5 -35 -22 -59 -38 l-44 -30 -19
21 -20 22 16 -25 c15 -23 14 -26 -22 -63 -21 -22 -28 -35 -17 -29 11 6 29 20
39 31 18 20 20 20 39 4 19 -18 19 -17 6 4 -16 26 -9 33 79 84 28 17 52 33 52
36 0 2 -5 1 -11 -2 -6 -4 -22 4 -37 16 l-27 24 20 -23z"/>
<path d="M2440 5406 c0 -2 8 -10 18 -17 15 -13 16 -12 3 4 -13 16 -21 21 -21
13z"/>
<path d="M2405 5363 c28 -30 94 -63 112 -56 9 3 -8 14 -42 28 -30 13 -63 29
-73 36 -11 8 -10 5 3 -8z"/>
<path d="M1870 5356 c0 -8 5 -18 10 -21 6 -3 10 1 10 9 0 8 -4 18 -10 21 -5 3
-10 -1 -10 -9z"/>
<path d="M1900 5332 c0 -4 14 -16 30 -25 17 -10 30 -16 30 -14 0 2 -13 13 -30
25 -16 13 -30 19 -30 14z"/>
<path d="M1551 5261 c12 -17 19 -36 15 -46 -3 -10 -2 -14 5 -9 6 3 29 -11 52
-32 30 -28 34 -30 16 -9 -14 17 -32 39 -40 49 -14 19 -13 19 21 1 39 -19 36
-15 -32 38 -56 45 -66 47 -37 8z"/>
<path d="M2548 5283 c7 -3 16 -2 19 1 4 3 -2 6 -13 5 -11 0 -14 -3 -6 -6z"/>
<path d="M933 5215 c0 -38 2 -53 4 -32 2 20 2 52 0 70 -2 17 -4 1 -4 -38z"/>
<path d="M1735 5260 c10 -11 20 -20 23 -20 3 0 -3 9 -13 20 -10 11 -20 20 -23
20 -3 0 3 -9 13 -20z"/>
<path d="M2005 5251 c-6 -5 -26 -14 -46 -20 -20 -6 -57 -25 -84 -42 l-48 -30
39 -41 c22 -23 32 -39 24 -36 -8 3 -35 14 -59 23 l-43 18 -29 -31 c-19 -20
-24 -32 -16 -35 8 -4 7 -6 -3 -7 -8 0 -24 -13 -34 -28 l-19 -27 26 24 c17 15
27 20 27 11 0 -8 7 -5 18 8 l19 22 45 -43 c53 -50 111 -86 102 -63 -10 26 30
55 71 52 26 -3 38 1 43 13 3 9 14 22 24 29 10 7 18 24 18 36 0 18 7 25 27 29
16 3 31 3 36 0 13 -8 45 -78 52 -115 6 -31 3 -41 -17 -61 -35 -35 -95 -43
-158 -22 -28 9 -54 15 -57 12 -10 -11 110 -39 143 -34 19 3 34 2 34 -4 0 -5
-5 -9 -12 -9 -6 0 -8 -3 -5 -7 4 -3 20 6 36 21 77 73 64 144 -45 254 -39 39
-69 73 -65 73 3 1 19 3 35 5 40 4 46 14 8 14 -18 0 -32 5 -32 10 0 12 -42 13
-55 1z m-10 -200 c7 -12 -12 -24 -25 -16 -11 7 -4 25 10 25 5 0 11 -4 15 -9z"/>
<path d="M1561 5125 c29 -42 56 -78 62 -82 6 -3 -4 15 -21 40 -36 52 -39 62
-15 52 10 -3 0 10 -22 29 -22 19 -44 35 -48 36 -5 0 15 -34 44 -75z"/>
<path d="M2070 5015 c-11 -13 -10 -14 4 -9 9 3 16 10 16 15 0 13 -6 11 -20 -6z"/>
<path d="M1660 4995 c14 -16 26 -32 28 -34 1 -2 4 -2 7 1 3 2 -10 18 -28 34
l-32 29 25 -30z"/>
<path d="M8039 4999 c-12 -10 -17 -19 -11 -19 5 0 8 -8 5 -18 -5 -22 19 -44
214 -197 124 -97 183 -154 183 -179 0 -4 -6 -4 -12 0 -9 5 -9 2 1 -9 18 -23
45 -21 109 5 48 20 57 21 105 9 28 -7 79 -14 113 -15 51 -1 66 -6 95 -30 19
-15 42 -42 51 -60 9 -17 17 -26 17 -21 0 40 -90 122 -139 127 -23 2 -38 10
-45 24 -12 25 -40 54 -52 54 -5 0 -29 20 -55 44 -25 23 -53 46 -62 49 -9 4
-16 10 -16 15 0 12 29 37 61 54 21 11 24 18 18 35 -8 23 -37 37 -204 105 -96
39 -105 41 -227 44 -113 2 -129 0 -149 -17z"/>
<path d="M5111 4995 c3 -14 41 -34 148 -77 79 -32 145 -58 146 -58 2 0 5 6 8
14 4 10 0 12 -14 9 -14 -4 -18 -1 -13 10 3 9 12 18 20 21 8 3 14 10 14 15 0 6
-7 7 -17 4 -10 -4 -14 -2 -10 4 5 8 -11 10 -50 6 -44 -4 -73 0 -118 16 -33 12
-65 23 -71 24 -7 2 -20 9 -29 17 -15 13 -17 12 -14 -5z"/>
<path d="M3681 4984 c0 -11 3 -14 6 -6 3 7 2 16 -1 19 -3 4 -6 -2 -5 -13z"/>
<path d="M1784 4926 c11 -9 24 -16 30 -16 12 0 7 5 -24 19 -24 11 -24 11 -6
-3z"/>
<path d="M2558 4914 c-39 -21 -35 -28 5 -8 37 19 44 24 31 24 -5 -1 -21 -8
-36 -16z"/>
<path d="M1810 4845 c19 -19 36 -35 39 -35 3 0 -10 16 -29 35 -19 19 -36 35
-39 35 -3 0 10 -16 29 -35z"/>
<path d="M2424 4818 l-29 -33 33 29 c17 17 32 31 32 33 0 8 -8 1 -36 -29z"/>
<path d="M1875 4790 c10 -11 20 -20 23 -20 3 0 -3 9 -13 20 -10 11 -20 20 -23
20 -3 0 3 -9 13 -20z"/>
<path d="M1680 4595 c47 -47 87 -85 90 -85 2 0 -33 38 -80 85 -47 47 -87 85
-90 85 -2 0 33 -38 80 -85z"/>
<path d="M6120 4660 c8 -5 20 -10 25 -10 6 0 3 5 -5 10 -8 5 -19 10 -25 10 -5
0 -3 -5 5 -10z"/>
<path d="M1965 4630 c21 -24 26 -25 19 -6 -3 8 -13 17 -22 21 -13 5 -13 2 3
-15z"/>
<path d="M2070 4606 c0 -2 7 -9 15 -16 13 -11 14 -10 9 4 -5 14 -24 23 -24 12z"/>
<path d="M2005 4580 c10 -11 20 -20 23 -20 3 0 -3 9 -13 20 -10 11 -20 20 -23
20 -3 0 3 -9 13 -20z"/>
<path d="M2100 4566 c0 -2 8 -10 18 -17 15 -13 16 -12 3 4 -13 16 -21 21 -21
13z"/>
<path d="M1815 4470 c10 -11 20 -20 23 -20 3 0 -3 9 -13 20 -10 11 -20 20 -23
20 -3 0 3 -9 13 -20z"/>
<path d="M2130 4448 c24 -27 45 -48 47 -48 8 0 0 9 -44 50 l-48 45 45 -47z"/>
<path d="M8480 4430 c52 -28 116 -69 142 -91 26 -22 45 -34 42 -27 -8 22 -120
105 -176 131 -99 47 -104 38 -8 -13z"/>
<path d="M2190 4400 c0 -17 62 -70 82 -70 7 0 -4 11 -24 25 -20 14 -42 33 -47
43 -8 13 -10 14 -11 2z"/>
<path d="M8811 4301 c-7 -27 -26 -70 -42 -96 -45 -71 -39 -110 24 -149 31 -19
65 -31 100 -34 31 -2 57 -11 65 -20 10 -13 12 -14 12 -1 0 8 -22 28 -50 44
-44 26 -50 34 -50 64 0 30 2 33 23 28 20 -5 20 -5 5 7 -16 12 -14 15 25 30 24
9 37 20 31 24 -6 4 -21 26 -34 50 -14 25 -29 41 -37 38 -7 -3 -13 1 -13 8 0 8
-7 16 -15 20 -8 3 -15 12 -15 21 0 32 -17 13 -29 -34z m98 -257 c2 -2 2 -7 -2
-10 -8 -9 -47 6 -47 17 0 9 37 3 49 -7z"/>
<path d="M8153 4325 c0 -7 19 -21 41 -29 52 -20 133 -87 186 -154 l42 -52 47
25 c26 14 71 48 101 75 30 28 60 50 66 50 6 0 21 11 34 25 41 43 12 28 -110
-60 -133 -95 -157 -109 -146 -80 4 11 4 16 0 12 -8 -8 -34 11 -34 25 0 6 8 4
17 -3 9 -8 5 3 -11 23 -23 31 -72 75 -135 122 -12 9 -13 8 -7 -3 6 -9 4 -12
-5 -9 -8 3 -14 10 -14 16 0 5 -4 14 -9 19 -5 5 -6 3 -2 -4 9 -17 1 -16 -33 1
-23 12 -28 13 -28 1z m182 -106 l50 -53 -60 54 c-82 74 -83 74 -60 62 11 -6
43 -34 70 -63z"/>
<path d="M2170 4196 c0 -2 8 -10 18 -17 15 -13 16 -12 3 4 -13 16 -21 21 -21
13z"/>
<path d="M4210 2050 c14 -4 42 -8 62 -9 21 -1 80 -14 131 -31 121 -39 156 -73
101 -99 -15 -6 -24 -14 -21 -18 11 -10 57 27 57 45 0 25 -73 69 -150 92 -63
18 -231 37 -180 20z"/>
<path d="M3911 1874 c0 -12 -8 -38 -16 -57 -8 -20 -15 -42 -14 -49 0 -7 9 9
20 36 11 27 18 59 16 70 -4 21 -4 21 -6 0z"/>
<path d="M3975 1838 l-20 -53 -6 50 c-5 34 -6 22 -4 -37 2 -48 9 -96 14 -105
8 -14 9 -8 5 24 -5 32 -1 57 16 98 12 30 26 55 30 55 18 0 82 -154 93 -220 9
-60 8 -75 -6 -104 -15 -33 -14 -46 5 -46 5 0 7 4 4 9 -3 5 1 28 10 52 17 50
12 97 -18 174 -25 62 -80 154 -93 155 -6 0 -19 -24 -30 -52z"/>
<path d="M3912 1770 c0 -14 2 -19 5 -12 2 6 2 18 0 25 -3 6 -5 1 -5 -13z"/>
<path d="M2827 1763 c-3 -5 -10 -28 -17 -53 -7 -26 -23 -54 -38 -67 l-27 -22
39 -39 c21 -22 58 -55 82 -72 51 -36 57 -25 24 42 -22 45 -19 66 12 110 22 32
15 53 -28 87 -28 22 -40 26 -47 14z"/>
<path d="M3871 1734 c0 -11 3 -14 6 -6 3 7 2 16 -1 19 -3 4 -6 -2 -5 -13z"/>
<path d="M3861 1694 c0 -11 3 -14 6 -6 3 7 2 16 -1 19 -3 4 -6 -2 -5 -13z"/>
<path d="M3927 1684 c-4 -4 -7 -19 -6 -33 0 -14 3 -20 6 -13 2 6 9 10 14 6 10
-6 11 3 0 29 -3 10 -10 15 -14 11z"/>
<path d="M3970 1666 c0 -11 30 -66 36 -66 2 0 -3 15 -12 33 -19 36 -24 44 -24
33z"/>
<path d="M2575 1620 c5 -8 10 -20 11 -27 3 -19 190 -179 255 -217 l32 -19 -16
23 c-43 62 -208 238 -227 243 -21 5 -21 5 -4 -14 23 -26 3 -24 -32 3 -15 13
-24 16 -19 8z"/>
<path d="M3950 1626 c0 -10 59 -96 66 -96 3 0 -9 21 -27 48 -39 57 -39 57 -39
48z"/>
<path d="M4121 1497 c-13 -21 -12 -21 5 -5 10 10 16 20 13 22 -3 3 -11 -5 -18
-17z"/>
<path d="M4656 533 l26 -48 -29 -205 -30 -205 -29 2 c-28 2 -28 1 10 -18 26
-14 46 -18 65 -14 14 4 21 9 16 11 -12 5 -2 143 15 229 13 63 38 104 51 84 7
-11 9 -11 9 -1 0 7 5 10 11 6 6 -3 -21 41 -60 100 -39 58 -74 106 -76 106 -3
0 7 -21 21 -47z"/>
</g>
</svg>
