<?xml version="1.0" standalone="no"?>
<!DOCTYPE svg PUBLIC "-//W3C//DTD SVG 20010904//EN"
 "http://www.w3.org/TR/2001/REC-SVG-20010904/DTD/svg10.dtd">
<svg version="1.0" xmlns="http://www.w3.org/2000/svg"
 width="585.000000pt" height="741.000000pt" viewBox="0 0 585.000000 741.000000"
 preserveAspectRatio="xMidYMid meet">

<g transform="translate(0.000000,741.000000) scale(0.100000,-0.100000)"
fill="#000000" stroke="none">
<path d="M831 7268 c-2 -14 37 -103 124 -288 48 -102 94 -200 102 -219 8 -18
16 -31 19 -28 3 3 -44 111 -105 240 -61 129 -117 250 -125 269 -8 18 -15 30
-15 26z"/>
<path d="M66 7058 c47 -78 203 -271 389 -482 77 -88 160 -182 184 -210 79 -94
78 -82 -4 19 -22 28 -105 124 -185 215 -148 168 -275 323 -344 418 -21 28 -40
52 -42 52 -3 0 -2 -6 2 -12z"/>
<path d="M3406 7028 c-22 -11 -74 -29 -115 -40 -150 -39 -280 -106 -394 -202
-62 -51 -161 -182 -177 -233 -18 -55 -19 -55 -48 -34 -54 38 -200 102 -188 82
3 -4 23 -14 46 -21 23 -7 43 -16 45 -19 2 -4 -40 -6 -93 -7 -137 0 -273 -44
-397 -129 -22 -15 -44 -28 -50 -29 -5 -1 -11 -5 -12 -9 -1 -5 -22 -30 -47 -57
-25 -27 -56 -69 -68 -94 -12 -25 -25 -46 -29 -46 -4 0 -5 -10 -2 -21 4 -15 0
-27 -12 -35 -18 -14 -18 -14 1 -15 10 -1 23 -1 27 0 41 7 323 -210 431 -331
26 -29 42 -42 35 -28 -7 14 -46 61 -88 104 -42 44 -68 76 -59 73 10 -3 20 -2
22 2 3 5 -5 8 -17 7 -25 -2 -62 19 -62 36 0 6 -9 12 -20 14 -11 2 -25 10 -31
18 -6 9 -15 16 -19 16 -6 0 -23 13 -81 60 -7 5 -14 6 -17 3 -15 -15 11 47 29
70 18 22 36 29 110 42 162 28 317 14 494 -45 89 -29 305 -129 378 -175 60 -37
52 -25 -10 17 -148 97 -330 176 -491 212 l-99 22 35 31 c47 41 107 82 195 131
58 33 72 38 72 24 0 -14 2 -14 9 -3 5 8 14 10 22 5 12 -6 12 -5 1 8 -10 13 -4
20 47 47 40 21 71 48 96 81 71 97 308 302 484 420 50 34 91 63 91 66 0 2 -1 4
-2 3 -2 -1 -21 -10 -42 -21z m-172 -114 c-49 -36 -107 -83 -130 -103 -68 -61
-100 -88 -116 -97 -9 -5 -39 -37 -68 -72 -45 -54 -54 -61 -69 -50 -14 11 -14
11 -4 -3 22 -28 -5 -64 -73 -97 l-62 -29 3 29 c6 41 12 47 43 42 19 -3 23 -2
12 5 -8 5 -18 7 -22 5 -4 -3 -8 4 -8 15 0 11 28 57 63 103 99 131 245 230 427
292 41 14 79 26 84 26 5 0 -31 -30 -80 -66z m-624 -387 c14 -2 38 -12 53 -22
32 -20 37 -46 7 -38 -11 3 -17 9 -14 14 3 5 -1 6 -9 3 -8 -3 -18 -1 -22 5 -3
6 -15 11 -26 11 -13 0 -18 4 -13 12 4 6 3 8 -2 5 -6 -3 -44 1 -85 8 l-74 15
80 -5 c44 -2 91 -6 105 -8z m-33 -40 c116 -41 115 -37 21 -92 -46 -26 -106
-66 -135 -87 -61 -46 -63 -46 -173 17 -41 23 -99 55 -129 70 l-54 27 34 21
c19 11 65 33 103 48 62 24 80 27 165 24 70 -2 115 -10 168 -28z m-322 -165
l140 -77 -110 -6 c-67 -4 -115 -3 -122 3 -7 6 -39 7 -75 3 -47 -5 -73 -2 -101
10 l-38 16 29 34 c52 58 96 94 117 95 11 0 83 -35 160 -78z m-267 -88 c26 -11
55 -14 97 -10 l60 6 -59 -15 c-62 -16 -101 -47 -112 -89 -6 -23 -6 -23 -45 -8
-21 8 -39 19 -39 24 0 19 43 108 52 108 5 0 25 -7 46 -16z"/>
<path d="M2885 6670 c-4 -6 -1 -9 7 -8 7 2 12 -3 10 -10 -1 -8 2 -11 8 -7 8 5
7 11 -1 21 -14 17 -16 17 -24 4z"/>
<path d="M2850 6646 c0 -2 8 -10 18 -17 15 -13 16 -12 3 4 -13 16 -21 21 -21
13z"/>
<path d="M2775 6599 c-4 -5 -4 -13 -1 -16 3 -4 6 0 6 8 0 11 2 11 10 -1 6 -9
10 -10 10 -3 0 17 -17 25 -25 12z"/>
<path d="M3481 6988 c9 -27 19 -51 23 -55 3 -3 6 -29 7 -57 0 -51 16 -147 18
-113 2 31 21 18 22 -15 1 -41 3 -56 39 -248 45 -246 52 -322 48 -500 -3 -119
-8 -177 -20 -208 l-16 -44 25 7 25 6 -27 -48 c-19 -35 -25 -56 -20 -79 3 -21
1 -35 -9 -43 -14 -11 -97 41 -336 214 -86 62 -110 78 -110 71 0 -15 448 -325
590 -408 52 -31 115 -68 140 -83 l45 -27 -65 7 c-115 12 -459 111 -627 180
-50 21 -39 9 17 -20 49 -25 285 -106 348 -120 44 -9 40 -25 -7 -25 -21 0 -53
-3 -70 -6 -29 -6 -31 -9 -29 -43 3 -31 0 -36 -19 -39 -18 -3 -23 -10 -23 -33
0 -16 -5 -29 -10 -29 -6 0 -8 -10 -4 -24 4 -16 1 -25 -12 -30 -9 -4 -18 -5
-19 -4 -2 2 -26 49 -54 105 -60 120 -227 380 -238 369 -2 -1 34 -59 81 -129
157 -236 296 -557 345 -802 11 -54 19 -101 17 -102 -2 -2 -13 23 -25 55 -27
72 -100 197 -183 311 -34 47 -65 88 -69 91 -3 3 -14 19 -23 35 -17 31 -17 25
5 -55 14 -51 17 -216 7 -305 -12 -99 -55 -233 -117 -360 -69 -141 -86 -167
-100 -146 -7 10 -9 5 -8 -20 1 -24 -2 -33 -11 -31 -8 1 -11 -1 -9 -5 7 -11
-14 -37 -31 -41 -11 -2 -12 9 -6 50 4 29 7 169 7 311 0 142 4 260 9 263 5 3 4
12 -3 20 -9 11 -7 14 10 14 14 0 20 -4 15 -12 -4 -7 -3 -8 5 -4 22 14 6 58
-25 71 -16 8 -23 14 -16 14 6 1 12 8 12 16 0 18 -16 20 -23 3 -6 -17 -77 60
-77 83 0 10 -6 30 -14 46 -32 65 -38 82 -31 94 5 7 4 10 -2 6 -6 -4 -13 0 -16
7 -4 10 0 13 14 11 30 -6 23 15 -9 26 -29 10 -68 71 -57 89 3 5 0 12 -6 16 -8
5 -9 3 -4 -6 6 -9 4 -11 -4 -6 -7 5 -10 15 -6 24 3 9 3 13 -1 9 -4 -3 -33 32
-65 79 -72 105 -125 167 -144 170 -25 4 -49 -40 -36 -65 15 -28 14 -36 -4 -21
-8 7 -15 21 -15 31 0 11 -4 18 -9 17 -11 -4 -82 84 -75 92 3 2 25 -18 49 -45
24 -28 44 -45 45 -38 0 7 -14 28 -30 47 -39 44 -237 226 -225 207 8 -15 -15 2
-130 90 -98 75 -166 119 -184 118 -14 0 -14 -1 -1 -7 65 -30 247 -203 234
-224 -3 -5 0 -7 8 -6 7 2 12 -4 10 -12 -2 -8 0 -12 4 -8 11 12 97 -79 88 -93
-4 -7 -3 -9 4 -6 12 8 134 -121 126 -134 -3 -5 0 -9 6 -9 6 0 8 -5 4 -12 -4
-6 -3 -8 3 -5 6 4 16 0 22 -7 14 -17 -2 -32 -21 -20 -7 4 -8 3 -4 -4 4 -7 17
-10 29 -8 15 2 29 -6 44 -27 12 -16 20 -34 17 -39 -3 -5 -2 -7 3 -6 11 3 73
-65 73 -80 0 -5 7 -15 16 -22 8 -8 19 -21 24 -30 8 -15 1 -17 -58 -19 -37 -1
-94 -6 -127 -12 -77 -13 -200 -60 -184 -70 7 -4 23 0 36 8 26 17 31 12 9 -10
-12 -12 -8 -22 30 -70 41 -52 42 -57 25 -66 -20 -11 -48 8 -33 24 4 5 2 5 -4
2 -15 -8 -104 71 -98 88 3 7 1 16 -5 20 -7 4 -8 -1 -4 -12 6 -16 5 -16 -11 -4
-9 8 -15 20 -12 27 3 8 0 11 -9 8 -8 -3 -21 6 -32 23 -9 15 -22 31 -27 34 -5
4 -5 12 -1 19 5 8 4 11 -3 6 -5 -3 -24 11 -41 33 -31 39 -39 57 -21 46 6 -3 7
1 3 10 -4 12 -8 13 -13 4 -5 -8 -17 3 -35 32 -15 24 -34 54 -42 67 -8 13 -11
33 -8 45 5 16 4 18 -3 8 -8 -11 -12 -10 -21 6 -5 11 -7 23 -4 27 3 3 2 6 -4 6
-5 0 -24 37 -42 83 -18 45 -39 96 -48 114 -10 20 -13 42 -9 60 5 21 4 24 -4
13 -12 -19 -13 -226 0 -390 14 -177 36 -318 72 -456 17 -65 31 -131 32 -146 0
-14 3 -24 5 -22 3 3 41 -91 41 -103 0 -1 -7 0 -15 3 -9 4 -14 14 -13 23 2 9
-2 15 -9 14 -13 -3 -109 102 -179 195 -35 47 -44 66 -34 72 7 4 9 13 5 20 -6
10 -2 12 13 8 12 -4 25 -2 28 3 4 8 -33 14 -58 10 -5 0 -8 8 -8 19 0 22 -15
27 -23 8 -3 -7 -6 -2 -6 12 -1 14 -6 32 -12 40 -8 11 -9 7 -5 -20 3 -19 8 -45
12 -57 5 -18 2 -23 -11 -23 -13 0 -16 6 -13 25 3 13 1 26 -4 27 -5 2 -10 84
-11 188 -1 222 0 257 13 265 5 3 7 12 4 19 -11 28 49 225 73 239 7 5 11 12 8
17 -6 10 32 87 70 139 31 42 22 57 -10 19 -13 -15 -26 -24 -31 -20 -4 4 -4 1
0 -6 4 -7 -2 -25 -13 -41 -12 -16 -21 -34 -21 -41 0 -6 -4 -8 -10 -5 -6 3 -7
-1 -4 -10 4 -10 2 -14 -8 -10 -19 8 -82 -50 -73 -67 4 -7 -1 -4 -9 6 -9 11
-16 15 -16 9 0 -6 -46 -58 -103 -115 -56 -57 -116 -119 -132 -138 -45 -52
-150 -200 -170 -239 -13 -27 -19 -31 -27 -20 -8 11 -9 10 -4 -3 6 -21 -3 -50
-14 -43 -4 3 -8 -5 -8 -18 0 -12 -12 -56 -27 -97 -15 -41 -31 -97 -36 -125 -5
-35 -7 -12 -4 75 3 127 21 234 37 224 5 -3 6 7 2 22 -5 20 -4 25 6 19 9 -5 10
-2 5 14 -11 35 144 339 166 326 5 -4 6 1 3 9 -3 9 -1 16 4 16 6 0 13 8 16 18
7 22 180 200 221 227 17 11 34 19 38 17 5 -1 6 2 2 8 -3 5 -2 10 4 10 5 0 16
6 23 13 13 14 104 67 114 67 3 0 2 -5 -2 -11 -4 -7 1 -7 16 1 18 10 28 8 61
-14 l39 -26 0 59 c0 33 3 68 6 78 5 14 4 15 -5 7 -7 -6 -13 -32 -14 -57 -1
-44 -2 -45 -19 -30 -26 23 -38 77 -38 170 0 118 24 178 109 262 74 76 145 119
258 158 68 23 94 27 200 27 75 1 113 4 100 9 -44 17 -191 10 -272 -12 -125
-35 -209 -84 -298 -174 -84 -85 -107 -96 -201 -97 -42 0 -47 2 -41 18 21 54
35 148 33 227 l-1 90 -7 -110 c-4 -60 -15 -136 -25 -168 -18 -55 -20 -57 -49
-53 -17 3 -53 8 -81 12 -70 8 -139 47 -215 118 -61 57 -62 58 -20 11 62 -70
91 -90 210 -147 58 -28 106 -52 108 -53 2 -2 -2 -14 -8 -27 l-11 -23 18 22
c15 18 33 23 106 28 l88 7 -8 -28 c-15 -56 -9 -206 10 -242 18 -33 18 -33 -1
-23 -29 15 -119 -20 -175 -68 -26 -22 -99 -64 -192 -111 -71 -36 -79 -46 -20
-25 11 3 2 -5 -20 -19 -30 -20 -53 -26 -94 -26 -95 0 -116 13 -234 139 -95
103 -220 253 -254 307 -12 18 -12 18 -6 -1 8 -27 35 -66 104 -151 31 -38 64
-87 73 -108 19 -46 133 -161 178 -180 l33 -14 -57 -25 c-31 -14 -64 -32 -75
-42 -10 -9 -86 -60 -169 -115 -83 -54 -175 -122 -205 -150 l-54 -52 50 40
c151 120 532 348 551 329 3 -3 -14 -27 -39 -54 -163 -176 -310 -527 -342 -820
-7 -67 -19 -77 -49 -44 -10 11 -37 23 -59 26 -23 4 -57 14 -76 21 -33 14 -33
15 -15 29 18 14 18 14 0 15 -33 0 -157 73 -203 119 -58 58 -116 144 -111 167
2 10 27 26 63 41 33 13 47 21 31 18 -16 -3 -45 -14 -65 -23 -53 -25 -52 -51 5
-134 53 -78 104 -121 193 -164 37 -17 60 -33 57 -41 -8 -19 42 -49 104 -63 30
-7 68 -23 83 -36 16 -13 36 -24 46 -24 15 0 17 -6 10 -52 -14 -97 -10 -362 6
-440 22 -103 45 -169 57 -162 6 4 7 9 0 13 -33 21 -65 317 -52 491 5 63 9 128
9 143 1 16 5 26 10 23 4 -3 7 5 6 18 -3 24 12 121 22 146 3 8 5 21 4 29 -1 8
2 10 10 5 9 -5 10 -1 6 17 -7 27 31 179 45 179 5 0 6 4 3 10 -3 5 7 42 24 82
35 88 47 127 34 113 -30 -31 -129 -342 -159 -502 -10 -51 -22 -93 -26 -93 -32
0 47 342 118 514 57 135 117 241 178 311 14 17 26 34 26 38 0 5 5 5 10 2 8 -5
7 -12 -2 -23 -10 -12 -10 -14 0 -8 6 4 12 3 12 -2 0 -15 -26 -33 -35 -24 -5 4
-5 1 -1 -6 6 -11 12 -10 27 4 11 10 18 23 15 30 -2 6 1 17 7 24 9 10 9 11 0 6
-26 -14 -21 13 8 40 22 21 41 29 74 31 25 1 60 10 77 19 l33 17 -24 -26 c-13
-14 -29 -23 -37 -20 -10 4 -12 0 -7 -13 5 -13 3 -15 -7 -9 -9 5 -11 4 -6 -4 4
-6 -3 -25 -15 -42 -19 -28 -24 -30 -34 -16 -10 14 -12 13 -23 -4 -16 -26 -15
-37 1 -14 11 14 16 15 22 5 4 -7 2 -16 -6 -21 -8 -5 -11 -9 -7 -9 4 0 -8 -25
-27 -55 -19 -30 -35 -59 -35 -65 0 -6 -4 -8 -10 -5 -6 4 -7 -1 -3 -11 4 -12 3
-15 -5 -10 -8 5 -10 1 -5 -10 5 -13 3 -15 -8 -9 -8 4 -11 5 -7 1 3 -4 -6 -42
-22 -84 -41 -113 -62 -233 -62 -350 0 -87 4 -117 28 -188 16 -50 35 -89 46
-95 20 -11 18 -3 -11 54 -22 44 -12 185 20 282 31 92 103 231 118 227 7 -1 10
2 6 8 -11 18 97 161 208 274 60 61 106 107 104 101 -3 -5 1 -16 9 -23 17 -15
18 -8 4 19 -9 16 -7 21 14 28 13 6 27 15 31 21 3 5 10 8 15 5 4 -3 14 3 21 13
13 15 12 16 -3 3 -10 -7 -18 -9 -18 -4 0 5 13 19 30 31 l30 23 -18 -38 c-9
-21 -21 -41 -27 -45 -5 -4 -7 -8 -4 -8 4 0 -4 -41 -17 -92 -33 -133 -49 -329
-36 -452 6 -55 9 -103 6 -108 -7 -11 -6 -142 1 -263 l6 -100 -21 24 c-12 15
-18 32 -15 45 3 12 2 15 -1 7 -5 -9 -11 -3 -20 19 -10 24 -11 36 -3 46 6 7 8
18 4 24 -4 6 -1 19 7 28 11 15 11 15 -3 5 -9 -7 -19 -10 -23 -6 -4 4 -4 0 0
-10 3 -9 2 -17 -4 -17 -10 0 -22 23 -22 41 0 6 5 7 12 3 7 -4 8 -3 4 4 -3 6 3
16 14 22 19 10 24 7 21 -13 -1 -5 3 -6 9 -2 8 5 7 12 -2 23 -11 13 -11 15 3
10 10 -4 16 -1 16 8 0 20 -14 17 -51 -11 l-33 -25 -11 38 c-28 91 -33 124 -39
237 -5 110 -3 129 22 225 15 58 39 130 52 160 23 52 25 54 39 36 8 -11 14 -15
14 -9 0 7 -5 15 -10 18 -6 4 -7 11 -4 17 4 7 2 8 -4 4 -7 -4 -12 -2 -12 4 0 7
-5 6 -14 -2 -8 -7 -14 -15 -13 -18 3 -12 -48 -138 -54 -134 -4 2 -5 -5 -2 -16
3 -11 1 -26 -5 -33 -6 -7 -19 -60 -28 -118 -10 -57 -20 -106 -23 -109 -3 -3
-7 -23 -7 -45 -1 -22 -5 -107 -8 -190 -3 -100 -2 -137 4 -110 5 22 9 65 9 95
1 30 4 87 8 125 l7 70 18 -90 c10 -49 16 -96 13 -103 -3 -7 -1 -11 4 -7 5 3
12 -8 16 -25 5 -22 1 -35 -14 -52 -23 -24 -23 -23 -26 -56 -2 -21 -1 -22 16
-6 10 9 15 21 13 28 -3 7 3 19 12 27 12 9 15 10 10 2 -4 -7 -3 -13 2 -13 8 0
32 -44 110 -202 2 -5 -4 -8 -13 -8 -9 0 -14 -4 -11 -9 4 -5 -18 -30 -46 -56
-29 -25 -45 -43 -35 -39 22 8 22 -3 -4 -45 -22 -37 -30 -34 -48 18 -17 51 -14
82 18 183 38 121 41 137 30 144 -5 3 -9 2 -8 -3 4 -24 -2 -43 -13 -37 -7 4 -8
3 -4 -4 7 -12 -29 -126 -47 -149 -5 -7 -6 -16 -3 -22 3 -5 2 -21 -4 -35 -15
-40 -31 -173 -32 -256 l0 -75 -13 65 c-23 110 -34 238 -36 405 -1 88 -5 169
-10 180 -5 12 -8 -90 -7 -247 2 -146 6 -264 10 -262 5 3 9 -10 10 -28 3 -61 4
-73 11 -88 14 -35 25 -92 20 -106 -3 -8 0 -14 6 -14 6 0 9 -13 6 -32 -4 -23
-3 -27 3 -14 7 15 10 11 21 -24 17 -57 2 -71 -33 -30 -14 18 -23 37 -20 42 4
7 2 8 -4 4 -23 -14 -210 251 -196 277 4 7 4 9 -1 5 -11 -10 -47 60 -83 162
-28 82 -49 183 -55 280 -2 25 -4 8 -5 -38 -2 -62 -5 -83 -14 -79 -14 4 -14 16
-4 87 12 82 -41 -89 -68 -218 -29 -141 -42 -432 -18 -432 4 0 7 69 8 153 0
144 13 247 45 360 8 31 14 38 31 35 17 -2 25 -18 43 -83 12 -44 35 -111 50
-148 23 -56 27 -78 22 -125 -8 -91 -64 -244 -124 -339 -29 -47 -47 -80 -38
-73 8 7 15 10 15 6 0 -4 12 0 28 8 40 21 116 103 154 167 l34 56 12 -51 c16
-69 89 -217 162 -331 69 -106 95 -135 81 -89 -5 16 -12 60 -15 97 l-5 68 59
-53 c60 -53 60 -53 54 -98 -11 -86 -56 -274 -86 -359 -44 -127 -123 -271 -200
-366 l-67 -83 31 4 c114 14 342 280 459 535 l35 78 -2 -303 c-2 -285 -4 -306
-23 -344 -30 -59 -58 -137 -76 -212 -15 -66 -40 -441 -33 -512 2 -21 0 -38 -4
-38 -4 0 -11 -12 -14 -28 -18 -72 -129 -252 -267 -432 -91 -117 -315 -347
-392 -400 -53 -36 -50 -29 23 54 66 76 184 240 258 362 220 359 365 757 448
1234 35 198 68 446 64 473 -2 12 -9 -21 -17 -73 -69 -493 -143 -811 -264
-1120 -132 -338 -307 -632 -540 -905 -47 -55 -84 -101 -82 -103 6 -7 62 27
141 86 187 140 456 459 584 695 23 42 40 64 40 52 1 -47 -55 -392 -85 -530
-57 -255 -69 -365 -69 -615 -1 -204 1 -233 23 -314 28 -108 69 -201 122 -279
l41 -59 -7 -94 c-5 -61 -4 -94 3 -94 5 0 13 56 17 133 9 161 20 257 27 237 3
-8 11 -35 17 -60 6 -25 8 -30 6 -12 -5 33 -11 109 -41 527 -9 121 -20 272 -26
335 -20 230 -20 330 -2 430 25 144 28 145 48 24 28 -170 54 -292 55 -259 0 17
-8 76 -18 132 -11 56 -20 119 -19 140 0 21 -9 92 -22 158 -31 165 -40 608 -16
759 34 204 128 412 255 556 21 25 42 42 47 37 4 -4 -2 -17 -13 -30 -58 -62
-130 -233 -153 -363 -17 -93 -9 -255 15 -312 23 -56 28 -49 11 15 -45 170 -15
382 81 565 39 75 139 192 158 184 7 -2 21 1 31 8 16 11 99 36 119 36 4 0 -4
-14 -16 -32 -13 -17 -24 -46 -26 -64 l-2 -33 54 42 c30 23 52 43 50 45 -5 6
-47 -18 -74 -42 l-24 -21 13 25 c27 53 112 158 148 183 48 34 92 26 104 -19
11 -38 8 -173 -4 -180 -4 -3 -6 -9 -4 -13 3 -4 -39 -30 -92 -57 -106 -53 -101
-48 -229 -233 -88 -126 -84 -122 -78 -80 3 22 -2 14 -15 -25 -50 -149 -48
-396 5 -651 41 -192 41 -202 1 -120 -45 92 -112 259 -131 326 l-15 54 5 -47
c8 -80 122 -364 161 -403 15 -14 14 -23 -6 -103 -16 -60 -21 -103 -17 -139 3
-32 -2 -95 -14 -159 -10 -59 -24 -170 -30 -248 -5 -78 -14 -168 -20 -201 -5
-33 -9 -121 -10 -195 l0 -135 -21 45 c-37 83 -117 335 -137 437 -14 67 -21
139 -21 215 0 115 22 333 41 398 5 19 16 132 25 250 8 118 18 236 23 263 5 26
5 47 1 47 -13 0 -19 -41 -30 -200 -15 -214 -27 -331 -45 -424 -22 -120 -38
-330 -32 -420 3 -45 22 -144 42 -221 20 -77 38 -156 40 -175 1 -19 31 -132 65
-250 l63 -215 -17 -175 c-9 -96 -21 -200 -25 -230 -5 -30 -7 -57 -5 -59 15
-16 33 64 34 141 0 32 5 104 12 160 9 77 14 97 20 78 5 -18 6 -15 2 10 -12 71
-16 615 -5 695 5 44 15 141 20 215 6 74 18 177 28 228 15 84 19 95 44 108 39
20 46 68 24 147 -10 34 -18 78 -18 97 0 39 73 221 119 295 63 101 187 252 332
407 84 90 211 240 282 333 101 133 142 179 187 209 119 81 240 187 273 242 21
33 20 39 -22 152 -21 54 -18 102 5 102 16 0 51 -37 105 -112 23 -31 70 -81
106 -111 36 -30 62 -58 59 -61 -4 -3 5 -6 20 -6 34 0 63 -31 98 -105 21 -45
28 -54 28 -35 1 14 -3 32 -8 39 -6 9 -5 23 1 35 10 19 10 20 -5 7 -20 -16 -23
-2 -4 19 10 12 9 12 -4 2 -21 -15 -33 -3 -16 16 9 13 9 14 0 8 -7 -4 -23 0
-35 8 -12 9 -30 16 -40 16 -10 0 -18 4 -18 10 0 5 -13 22 -30 36 -22 21 -27
31 -20 44 5 10 8 19 5 21 -2 2 5 63 16 134 10 72 19 137 20 145 2 69 35 328
40 324 4 -2 11 1 15 7 4 8 3 9 -4 5 -7 -4 -12 -1 -13 6 -3 39 7 67 48 127 55
81 57 83 44 48 -14 -36 -14 -40 1 -31 8 5 9 -3 5 -30 -3 -20 -2 -34 2 -32 19
12 34 -228 38 -601 3 -390 3 -393 -17 -393 -11 0 -28 -4 -38 -10 -9 -5 -82
-34 -162 -64 -80 -31 -177 -72 -215 -92 -84 -43 -315 -183 -315 -190 0 -6 -11
-12 127 69 194 115 248 139 516 237 l159 58 16 -30 c36 -63 142 -245 169 -288
55 -87 62 -126 37 -207 -8 -27 11 -32 21 -6 3 10 9 46 12 81 l6 63 -52 74
c-29 41 -49 75 -45 75 4 0 -1 9 -10 19 -11 12 -15 25 -10 33 4 7 3 9 -1 5 -5
-4 -28 22 -50 58 l-41 65 12 92 c28 205 36 399 33 794 -4 423 -5 415 37 383 6
-5 13 -7 16 -4 2 3 29 -4 59 -15 29 -11 55 -20 56 -20 1 0 0 -8 -3 -17 -5 -17
-5 -17 8 -1 13 15 18 15 71 1 31 -9 60 -13 64 -9 4 4 -1 44 -10 90 l-18 84 32
53 c17 30 53 98 80 152 l48 98 5 -43 c3 -24 17 -129 31 -235 54 -413 129 -683
256 -921 42 -80 48 -96 37 -110 -11 -15 -11 -15 2 -6 12 10 21 2 50 -39 19
-27 56 -73 82 -101 38 -40 45 -53 34 -61 -7 -5 -13 -14 -14 -20 0 -5 -5 -11
-10 -13 -15 -5 -243 219 -235 232 3 6 3 8 -2 4 -7 -6 -48 40 -80 91 -5 8 -16
21 -22 29 -28 30 -63 100 -58 115 4 8 2 18 -4 22 -7 4 -9 -1 -5 -12 3 -10 -1
-7 -10 7 -8 14 -13 34 -10 45 4 13 2 16 -3 8 -12 -17 -89 139 -78 157 6 9 4
11 -5 5 -10 -6 -12 -4 -7 8 3 8 -1 21 -9 27 -11 10 -14 9 -14 -4 0 -21 67
-203 85 -232 14 -21 43 -176 70 -373 25 -186 44 -428 57 -729 19 -446 -5 -771
-80 -1089 -11 -46 -16 -81 -12 -78 5 3 12 19 15 36 l7 31 32 -33 c72 -76 184
-207 213 -250 l32 -46 -15 -73 c-32 -151 -100 -303 -194 -430 -69 -92 -93
-114 -122 -105 -20 7 -21 6 -10 -8 9 -10 10 -17 2 -22 -5 -3 -15 4 -20 17 -9
20 -9 18 -4 -10 6 -33 -11 -46 -19 -15 -4 15 -5 16 -6 2 -1 -19 -29 -29 -83
-29 -21 0 -38 -5 -38 -11 0 -7 17 -9 51 -4 28 4 49 3 46 -1 -3 -5 6 -9 19 -9
13 0 24 3 24 8 0 4 5 7 10 7 6 0 9 -19 9 -42 -1 -41 -2 -42 -10 -13 -7 26 -8
25 -4 -10 3 -22 5 -53 6 -70 1 -27 2 -26 10 10 4 22 8 61 8 86 1 43 3 46 35
56 32 10 44 6 168 -56 l133 -66 3 -40 c3 -44 -4 -91 -38 -263 -20 -99 -22
-137 -5 -120 7 7 55 265 55 296 0 22 2 23 17 11 9 -8 52 -59 96 -113 77 -97
79 -100 75 -148 -2 -33 1 -48 10 -48 6 0 12 9 12 20 0 16 5 19 33 15 31 -5 31
-5 7 7 -14 7 -28 17 -32 22 -3 5 -3 50 0 100 4 50 7 185 7 301 0 169 -4 226
-19 290 -24 107 -79 254 -128 343 l-40 73 0 197 c-1 228 -10 353 -42 582 -13
91 -22 167 -20 169 2 3 53 -8 112 -23 130 -32 269 -98 340 -161 28 -26 52 -42
52 -37 0 5 -18 26 -39 45 -22 19 -36 38 -33 42 4 4 3 5 -3 3 -5 -1 -46 16 -90
39 -89 46 -216 88 -294 99 -41 5 -52 11 -56 28 -5 24 -92 484 -136 721 -16 88
-32 165 -34 170 -11 23 10 -108 61 -390 114 -620 136 -769 154 -1020 14 -197
11 -220 -10 -75 -17 123 -68 372 -130 640 -17 74 -37 169 -45 210 -12 65 -32
373 -40 610 -1 41 -10 120 -19 175 -8 55 -27 179 -41 275 -14 96 -29 184 -32
195 -3 11 23 -22 57 -74 69 -104 240 -287 334 -357 33 -25 91 -64 130 -87 78
-45 252 -108 276 -99 10 4 4 8 -17 13 -17 3 -61 27 -98 53 -299 209 -491 512
-601 946 -38 152 -39 154 -21 144 9 -6 9 -5 0 7 -15 19 -27 75 -53 248 -25
165 -24 213 0 103 49 -214 113 -406 176 -522 73 -133 186 -259 272 -304 19
-10 32 -20 29 -22 -3 -3 -20 2 -37 11 -113 58 -224 181 -298 327 -22 46 -48
92 -57 103 -9 11 -5 -2 8 -30 14 -27 35 -72 47 -100 53 -119 173 -251 277
-304 77 -39 175 -51 220 -28 30 16 113 102 113 118 0 4 -20 -13 -45 -40 -24
-26 -60 -56 -78 -66 -33 -18 -34 -17 -88 8 l-54 25 80 -4 80 -4 -98 15 c-113
16 -140 30 -219 113 -143 150 -240 379 -328 776 -41 181 -42 191 -29 245 l13
55 14 -44 c36 -125 85 -333 98 -428 21 -140 28 -151 45 -66 18 90 18 584 1
738 -17 145 -46 280 -71 336 -26 57 -27 41 -2 -30 23 -67 47 -207 61 -360 11
-132 12 -571 0 -645 -4 -27 -8 -45 -9 -40 -17 128 -102 505 -128 575 -4 9 -11
-2 -19 -30 -8 -25 -18 -54 -23 -65 -5 -11 -19 -45 -31 -75 -40 -98 -247 -463
-225 -395 23 72 68 321 85 474 6 52 10 187 10 300 0 188 -6 266 -26 360 -6 27
-4 32 6 26 9 -5 11 -4 6 4 -4 6 -12 9 -17 6 -16 -11 -9 32 21 125 17 50 30
102 30 113 0 13 3 17 8 11 4 -7 8 13 9 45 2 31 6 76 10 100 l8 44 85 -179
c123 -259 225 -457 272 -529 12 -17 -3 -6 -36 27 -73 74 -72 58 2 -23 91 -101
228 -238 193 -194 -86 109 -113 147 -164 230 -30 50 -96 173 -147 274 l-91
183 53 -31 c107 -65 256 -133 299 -137 50 -5 56 -12 -69 70 -100 66 -231 197
-326 324 -74 101 -76 105 -76 162 0 32 -3 65 -6 74 -6 15 -98 47 -174 60 -19
3 -64 26 -99 51 -36 25 -70 45 -77 45 -7 0 -15 4 -19 9 -3 5 36 -1 86 -15 212
-57 391 -149 517 -267 28 -28 52 -47 52 -44 0 12 -40 72 -48 72 -4 0 -28 16
-52 36 -25 20 -64 48 -88 63 -23 15 -41 30 -38 35 3 4 0 8 -7 8 -15 0 -178
109 -177 118 1 4 -2 10 -6 13 -4 4 -3 1 1 -7 6 -11 4 -13 -11 -6 -84 35 -301
115 -341 125 -47 12 -50 15 -61 57 -20 72 -17 83 22 83 37 0 181 -43 206 -61
13 -9 12 -10 -3 -5 -11 4 -16 2 -12 -5 4 -6 14 -8 22 -5 28 11 164 -72 291
-178 68 -57 84 -83 49 -80 -15 1 -17 -20 -2 -33 4 -4 5 -3 2 3 -4 7 1 15 11
19 21 8 28 6 25 -6 -2 -5 3 -8 10 -6 6 1 11 -4 10 -10 -2 -7 3 -13 11 -13 14
0 42 -30 100 -104 41 -52 44 -37 5 21 -80 117 -289 296 -444 383 -33 19 -64
40 -68 47 -5 7 -13 11 -18 7 -5 -3 -8 -1 -7 4 5 18 -201 171 -263 194 -4 2 -9
21 -12 43 -2 22 -9 52 -15 67 l-11 27 67 7 c134 14 333 -15 424 -62 16 -9 32
-13 35 -10 7 7 -42 31 -117 56 -50 17 -95 23 -195 26 -71 3 -155 6 -185 7
l-56 3 17 -48z m162 -196 c40 -27 66 -51 63 -58 -3 -8 0 -11 8 -8 8 3 26 -7
42 -21 29 -26 29 -26 4 -19 -14 3 -30 11 -37 16 -6 5 -33 12 -60 14 -86 8 -88
9 -88 38 1 14 -3 26 -8 26 -4 0 -6 4 -2 9 3 6 -3 8 -13 6 -14 -2 -19 4 -20 31
-3 34 -2 35 20 23 13 -7 54 -33 91 -57z m200 -327 c72 -27 95 -41 87 -49 -7
-7 -13 -7 -18 -1 -4 6 -16 11 -27 12 -11 1 -63 11 -115 22 -52 11 -107 21
-122 21 -30 0 -33 3 -42 47 l-7 32 73 -23 c40 -12 117 -40 171 -61z m-159 -37
c-4 -7 -3 -8 5 -4 13 8 81 -11 81 -23 0 -4 6 -8 14 -8 13 0 90 -43 84 -48 -2
-1 -53 -5 -114 -8 l-112 -6 -5 28 c-3 16 -9 40 -13 55 -6 24 -4 26 31 26 25 0
34 -4 29 -12z m373 -65 c-2 -1 -29 8 -60 21 -31 12 -54 26 -51 29 3 3 30 -6
60 -21 29 -14 52 -27 51 -29z m-2273 -38 c-4 -8 -16 -15 -28 -15 -20 1 -20 1
4 15 31 18 30 18 24 0z m-195 -11 c2 -2 2 -7 -1 -10 -4 -3 -19 2 -35 11 l-28
16 30 -6 c16 -4 32 -9 34 -11z m119 -1 c-13 -7 -43 -12 -68 -12 -40 0 -43 1
-27 13 10 8 40 13 68 13 46 -1 48 -2 27 -14z m2498 -305 c83 -114 208 -239
306 -308 88 -63 59 -57 -81 16 -175 92 -184 100 -246 224 -46 92 -68 160 -51
160 2 0 34 -42 72 -92z m-3123 -191 c23 -21 33 -34 22 -28 -20 10 -99 89 -125
127 -8 11 2 2 23 -20 21 -23 57 -58 80 -79z m1191 -107 c46 -40 106 -103 106
-111 0 -4 14 -21 31 -38 18 -18 27 -36 23 -43 -5 -8 -22 5 -50 37 -23 27 -40
54 -37 59 4 5 1 6 -5 3 -5 -4 -22 8 -36 25 -15 18 -57 64 -94 102 -64 66 -65
68 -17 30 28 -21 63 -50 79 -64z m-404 -172 c30 -140 87 -272 178 -413 54 -84
175 -230 203 -246 12 -6 -12 27 -51 73 -118 136 -205 274 -264 421 -59 147
-47 145 27 -4 78 -155 130 -235 240 -367 63 -75 123 -130 132 -121 1 2 -13 22
-33 44 -19 22 -31 34 -27 26 5 -9 4 -12 -3 -7 -7 4 -12 11 -12 15 0 5 -22 32
-49 61 -28 30 -47 58 -44 64 3 6 3 8 -2 4 -10 -10 -48 39 -42 55 4 8 6 7 7 -3
3 -26 218 -210 245 -210 3 0 5 5 5 11 0 5 -4 8 -9 4 -5 -3 -12 -1 -15 4 -6 9
22 26 37 22 5 -1 -13 26 -39 60 -46 58 -48 62 -29 75 10 8 23 14 28 14 4 0 5
5 1 12 -5 8 0 9 14 6 14 -4 20 -2 15 5 -4 6 0 8 9 4 9 -3 20 -1 26 5 6 6 62
13 125 16 110 4 115 4 126 -17 13 -23 6 -45 -10 -36 -5 4 -9 1 -9 -4 0 -14 17
-14 25 -1 4 6 11 7 17 4 7 -5 8 -2 3 6 -6 9 -4 11 4 6 7 -5 10 -14 7 -22 -3
-8 0 -13 7 -11 7 1 12 -8 11 -20 0 -12 4 -21 10 -20 5 1 10 -5 11 -13 0 -9 10
-26 22 -39 12 -13 26 -36 32 -51 l9 -28 -55 -4 c-39 -2 -64 2 -83 13 -16 10
-33 14 -40 9 -9 -6 -6 -10 10 -15 14 -5 19 -10 12 -17 -10 -10 -22 -5 -101 43
-18 11 -35 18 -38 15 -3 -2 -13 3 -24 12 -11 9 -23 17 -27 17 -4 0 -24 13 -44
30 -31 24 -35 32 -25 45 11 13 10 13 -7 0 -18 -14 -19 -13 -13 4 6 16 5 17 -8
6 -8 -7 -15 -8 -15 -2 0 5 -8 13 -17 16 -10 4 4 -16 32 -44 32 -33 81 -67 140
-96 49 -25 93 -49 97 -52 4 -4 -19 -8 -50 -9 -41 -2 -61 2 -75 15 -15 12 -21
14 -24 4 -3 -6 -10 -10 -16 -6 -7 3 -3 -2 7 -10 25 -20 16 -28 -33 -30 -28 0
-37 -4 -30 -12 5 -6 6 -14 2 -18 -4 -4 0 -4 10 0 9 3 25 0 35 -7 15 -12 16
-12 4 2 -11 14 -8 18 17 29 26 10 33 10 46 -4 14 -14 12 -17 -24 -36 -40 -20
-81 -70 -47 -57 22 9 28 -6 16 -39 -6 -15 -9 -29 -6 -31 2 -2 33 7 68 21 105
42 183 56 318 56 69 0 130 -4 136 -8 16 -10 26 -398 15 -542 -5 -63 -8 -116
-7 -117 1 -2 11 4 22 12 19 15 19 15 -1 9 -15 -4 -17 -4 -6 4 8 6 19 8 25 6
26 -10 152 193 207 330 29 73 72 228 80 286 3 15 15 30 33 39 30 15 28 16 94
-27 13 -8 22 -11 21 -6 -1 5 -1 18 0 29 1 15 7 10 24 -21 13 -22 24 -48 24
-58 0 -18 -1 -18 -14 0 -21 29 -15 2 13 -57 38 -77 51 -165 36 -231 -7 -29
-13 -60 -14 -68 -2 -34 -116 -161 -183 -206 -40 -26 -56 -45 -69 -78 -24 -63
-87 -157 -172 -257 -155 -183 -433 -350 -665 -400 -149 -32 -562 156 -756 343
-91 89 -109 130 -124 284 -6 66 -15 141 -20 168 -17 90 -12 122 24 162 17 21
62 63 98 94 66 57 68 58 155 70 49 6 100 16 114 22 22 9 23 11 7 19 -20 11
-23 39 -4 39 24 1 -20 19 -52 22 -17 1 -31 6 -31 10 0 4 -7 8 -15 8 -8 0 -19
9 -25 21 -11 20 -10 20 37 15 34 -4 41 -3 23 3 -14 5 -37 9 -51 10 -25 1 -28
7 -47 79 -35 134 -35 132 -9 97 63 -86 307 -348 307 -330 0 4 -6 16 -14 24
-21 23 -80 201 -117 348 -24 97 -33 162 -39 268 -5 96 -8 120 -10 75 l-3 -65
-8 55 c-10 73 -23 396 -16 390 3 -3 15 -49 27 -102z m2186 -313 c3 -112 1
-224 -4 -255 l-10 -55 -1 45 c-2 52 -32 224 -61 347 l-20 84 21 62 c11 34 26
71 32 82 19 35 37 -93 43 -310z m-1510 289 c-5 -14 -4 -15 7 -5 12 9 20 4 41
-24 15 -19 25 -39 21 -44 -3 -5 0 -13 6 -17 8 -5 10 -2 5 7 -4 8 1 3 13 -11
11 -14 26 -36 33 -50 6 -14 22 -38 33 -55 12 -16 36 -56 54 -87 30 -54 31 -58
12 -58 -26 0 -38 19 -20 32 11 8 10 9 -3 5 -9 -3 -19 -1 -22 6 -3 7 -3 2 0
-10 4 -19 1 -23 -16 -23 -16 0 -20 4 -16 16 3 8 2 12 -4 9 -12 -8 -72 85 -66
102 3 8 -1 10 -11 6 -10 -4 -14 -2 -10 4 4 6 4 13 -1 15 -16 7 -74 97 -68 106
3 6 2 21 -3 34 -5 15 -5 31 0 41 13 22 23 22 15 1z m-51 -74 c43 -61 36 -58
-19 8 -20 24 -36 49 -36 55 0 14 6 7 55 -63z m1179 -92 c-3 -4 -1 -8 4 -8 15
0 50 -130 63 -230 14 -117 14 -316 -2 -421 -6 -43 -13 -79 -16 -79 -4 0 4 98
13 158 3 19 1 32 -4 28 -5 -3 -12 -38 -15 -78 -8 -85 -39 -216 -70 -291 -40
-94 -90 -178 -103 -173 -7 3 -16 0 -20 -6 -4 -6 -3 -8 4 -4 6 3 13 2 17 -4 3
-5 1 -10 -4 -10 -6 0 -11 -6 -11 -14 0 -7 -8 -20 -17 -27 -15 -11 -16 -11 -5
1 6 8 12 18 12 24 0 5 -6 1 -14 -9 -8 -11 -12 -23 -9 -28 7 -12 -67 -98 -79
-91 -7 4 -8 2 -4 -4 4 -7 -28 -50 -77 -104 -62 -68 -90 -93 -107 -92 -21 1
-21 0 -6 -11 15 -12 15 -13 -2 -17 -15 -4 -18 0 -17 22 1 14 5 33 10 41 7 11
5 11 -10 -1 -17 -14 -18 -14 -6 8 6 12 17 22 23 22 6 0 9 3 5 6 -6 7 57 110
84 136 31 31 31 -7 -1 -40 -16 -17 -26 -32 -23 -35 2 -3 -1 -15 -7 -27 -9 -16
-14 -19 -20 -11 -5 10 -8 9 -13 -1 -3 -9 3 -14 15 -15 10 -1 22 5 25 13 4 12
8 12 22 2 14 -12 15 -11 2 5 -12 15 -11 20 5 40 11 12 25 26 32 30 7 5 10 12
7 18 -4 5 5 24 19 42 15 19 26 39 26 45 0 17 10 15 34 -5 21 -18 21 -18 3 4
-15 17 -16 25 -7 42 6 12 15 21 21 21 6 0 8 4 4 9 -3 5 9 21 27 36 18 15 27
24 21 21 -9 -5 -9 1 1 21 43 87 53 215 21 288 -9 22 -19 51 -21 65 l-4 25 14
-25 c36 -64 56 -150 56 -239 0 -49 -5 -102 -11 -118 -8 -21 -7 -25 1 -17 33
33 30 311 -4 441 -8 28 -12 53 -10 55 2 2 17 56 33 120 30 116 61 316 61 395
0 28 4 43 13 43 8 0 7 4 -3 10 -13 9 -13 11 0 19 15 10 33 -6 24 -21z m-58
-95 c-6 -130 -22 -234 -56 -362 l-23 -84 -19 62 -19 61 35 113 c36 115 66 248
66 290 0 21 7 37 17 37 2 0 1 -53 -1 -117z m-40 53 c-9 -81 -28 -156 -38 -150
-4 3 -5 -1 -2 -9 6 -16 -21 -129 -38 -162 -10 -17 -13 -14 -29 34 -10 29 -16
58 -12 64 3 6 1 7 -5 3 -11 -7 -16 7 -15 41 1 7 -3 11 -7 8 -4 -3 -11 2 -14
11 -3 8 -2 12 4 9 6 -3 10 -2 10 3 0 6 12 13 26 16 24 6 25 8 9 20 -16 11 -16
14 -3 27 8 7 13 21 11 30 -3 11 4 19 22 23 25 6 27 10 22 41 -7 40 -3 45 36
45 l30 0 -7 -54z m445 -382 c7 -74 8 -161 4 -200 l-7 -68 -14 34 c-8 19 -12
40 -9 47 2 8 1 12 -4 9 -10 -6 -47 82 -42 103 1 8 -2 10 -10 5 -14 -8 -10 27
16 146 16 72 16 163 0 295 -2 22 9 -23 25 -100 16 -77 34 -199 41 -271z
m-1912 232 c-3 -3 -11 5 -18 17 -13 21 -12 21 5 5 10 -10 16 -20 13 -22z m680
-8 c17 -2 64 -105 55 -120 -4 -7 -2 -8 4 -4 7 4 12 3 12 -3 0 -5 3 -16 6 -25
3 -9 1 -16 -5 -16 -14 0 -42 55 -33 65 4 5 2 5 -5 2 -6 -4 -20 5 -32 20 -11
16 -35 43 -53 61 l-33 33 35 -6 c19 -3 41 -7 49 -7z m74 -178 c11 0 57 -61 57
-76 0 -9 -64 7 -77 20 -11 11 -103 174 -103 183 0 2 25 -25 56 -61 30 -36 61
-66 67 -66z m463 13 c21 -32 37 -61 36 -65 -1 -5 2 -8 7 -8 10 0 39 -42 43
-62 2 -7 6 -15 9 -18 3 -3 3 -16 -1 -30 l-6 -24 -20 20 c-21 21 -59 23 -78 4
-19 -19 -21 -10 -19 79 1 49 -2 105 -7 125 -4 20 -7 36 -5 36 1 0 20 -26 41
-57z m-1606 -238 c13 -22 32 -51 43 -65 l18 -24 -67 -13 c-37 -7 -70 -11 -72
-8 -2 2 -6 77 -8 167 l-5 163 34 -90 c19 -49 45 -108 57 -130z m-19 190 c7
-56 13 -84 28 -134 12 -40 6 -56 -8 -20 -5 13 -16 41 -25 63 -19 45 -19 49 -6
41 6 -3 7 1 4 9 -3 9 -10 13 -15 10 -5 -3 -9 -1 -9 5 0 5 -3 16 -6 25 -4 11 0
14 15 13 12 -1 22 -6 22 -12z m849 -65 c-20 -13 -40 -13 -40 0 0 6 12 10 28
10 21 0 24 -2 12 -10z m474 -45 c7 -19 -3 -19 -28 0 -19 15 -19 15 1 15 11 0
23 -7 27 -15z m-1472 -27 c-7 -7 -12 -8 -12 -2 0 14 12 26 19 19 2 -3 -1 -11
-7 -17z m2715 -140 c-3 -8 -6 -5 -6 6 -1 11 2 17 5 13 3 -3 4 -12 1 -19z
m-550 -80 c-3 -8 -6 -5 -6 6 -1 11 2 17 5 13 3 -3 4 -12 1 -19z m-10 -40 c-3
-8 -6 -5 -6 6 -1 11 2 17 5 13 3 -3 4 -12 1 -19z m24 -117 c25 -13 26 -16 32
-139 16 -300 5 -761 -24 -1026 -11 -97 -13 -106 -25 -85 -8 16 -9 26 -2 30 7
4 6 9 -1 13 -6 4 -11 2 -11 -3 0 -6 -8 -11 -17 -11 -17 0 -18 22 -19 318 -1
239 -5 355 -19 472 -10 85 -19 169 -19 187 -1 17 -4 29 -8 26 -13 -7 -9 29 9
75 12 31 19 40 26 30 6 -9 7 -8 3 5 -5 17 34 130 44 124 3 -1 17 -9 31 -16z
m-2223 -41 c1 -22 0 -40 -3 -40 -10 0 -26 53 -21 67 10 26 23 12 24 -27z m-74
-27 c17 -58 16 -109 -2 -132 -16 -20 -19 -21 -19 -5 0 11 7 27 15 37 15 16 14
17 -1 11 -15 -5 -17 1 -17 50 0 54 13 75 24 39z m-301 -41 c-3 -9 -3 -14 2
-10 4 4 32 -30 63 -75 31 -45 59 -83 64 -85 4 -2 8 -8 8 -14 0 -5 10 -18 22
-28 18 -14 20 -21 10 -32 -9 -12 -9 -15 3 -15 8 0 12 4 9 9 -3 4 -3 8 -1 8 6
0 86 -79 86 -86 1 -2 4 -5 9 -5 4 -1 13 -10 20 -21 7 -10 17 -16 22 -13 5 3
14 -3 20 -14 6 -12 6 -22 1 -25 -5 -4 -12 0 -14 6 -4 9 -6 10 -6 1 -1 -16 22
-29 27 -15 2 7 8 9 14 6 6 -4 5 3 -1 15 -7 12 -9 25 -6 30 3 5 2 11 -3 13 -4
1 -18 27 -31 57 -28 66 -39 155 -21 166 10 6 12 4 7 -8 -3 -10 -2 -17 3 -17 6
0 10 12 10 28 0 22 2 24 11 12 9 -12 10 -10 6 8 -4 18 -3 21 8 12 13 -11 19
-51 31 -190 4 -41 10 -85 15 -98 14 -38 11 -165 -3 -159 -7 2 -12 10 -10 16 1
7 -2 10 -7 7 -5 -4 -29 17 -54 45 -25 28 -47 46 -51 41 -3 -6 -2 -41 4 -79 14
-99 13 -102 -20 -50 -16 26 -30 51 -30 56 0 5 -7 14 -15 21 -9 7 -14 19 -11
27 3 8 1 11 -4 8 -12 -7 -85 137 -111 218 -10 33 -19 76 -19 97 0 23 -5 37
-13 37 -8 0 -12 -14 -12 -36 0 -38 -53 -117 -134 -204 -57 -61 -79 -68 -42
-13 35 51 91 164 91 184 0 7 4 11 9 8 5 -3 8 0 8 7 -2 24 15 107 22 103 3 -2
5 14 3 36 -3 27 -1 38 6 34 6 -4 8 -14 5 -24z m2478 -25 c-10 -9 -11 -8 -5 6
3 10 9 15 12 12 3 -3 0 -11 -7 -18z m-150 -314 c-7 -60 -15 -124 -18 -143 -3
-19 -5 -48 -4 -65 1 -22 -1 -26 -8 -15 -5 8 -7 18 -5 22 3 4 0 8 -7 8 -8 0 -8
4 1 15 7 9 10 18 6 22 -3 3 -6 1 -6 -5 0 -7 -5 -12 -11 -12 -6 0 -8 7 -5 17 9
23 -33 67 -50 52 -8 -7 -14 -7 -19 1 -3 5 -16 10 -27 10 -21 0 -21 0 2 25 13
14 30 23 38 20 7 -2 11 -1 8 3 -3 5 6 20 20 35 14 15 22 32 19 37 -4 6 1 13 9
16 8 3 24 22 36 41 11 20 24 33 27 29 3 -3 1 -54 -6 -113z m-2022 17 c11 -22
10 -23 -2 -8 -11 14 -16 15 -27 5 -10 -10 -10 -8 0 11 13 26 13 27 29 -8z
m1923 -167 c20 -20 35 -40 32 -44 -2 -4 0 -10 6 -14 5 -3 10 -11 10 -17 0 -6
-13 7 -29 29 -16 22 -41 50 -56 61 -30 24 -59 29 -52 10 2 -7 11 -12 21 -10
14 3 21 -9 17 -31 -1 -5 3 -6 7 -3 14 8 45 -31 36 -45 -4 -8 -3 -10 4 -5 16 9
46 -52 44 -89 -2 -23 0 -26 8 -15 9 13 10 13 10 0 0 -34 -23 -196 -29 -209 -6
-9 -27 10 -71 65 -35 43 -63 84 -63 91 0 6 -3 10 -7 8 -4 -3 -16 5 -26 17 -19
21 -19 21 6 8 20 -10 23 -10 13 0 -6 7 -22 13 -35 14 -19 1 -23 6 -20 31 4 39
32 126 46 144 9 12 8 13 -4 6 -8 -4 -4 4 10 19 32 36 71 29 122 -21z m38 4 c0
-6 -9 -2 -20 8 -11 10 -20 23 -20 28 0 6 9 2 20 -8 11 -10 20 -23 20 -28z
m-1815 -19 c16 -24 52 -66 81 -94 l52 -51 -12 -67 c-7 -36 -20 -74 -28 -83 -9
-10 -13 -24 -10 -32 3 -9 0 -11 -8 -6 -8 5 -11 4 -7 -2 4 -6 -1 -29 -11 -52
-15 -33 -21 -38 -32 -28 -10 10 -11 8 -3 -7 12 -22 -12 -80 -29 -70 -6 4 -8 2
-4 -4 9 -14 -33 -84 -47 -75 -6 3 -7 1 -3 -5 4 -7 -19 -45 -52 -89 -71 -93
-97 -118 -113 -107 -8 4 -10 3 -5 -4 8 -13 -60 -89 -75 -85 -5 2 -9 -1 -9 -6
0 -9 -61 -51 -73 -51 -3 0 5 11 19 25 14 14 30 22 36 19 7 -5 8 -2 3 5 -4 8 3
23 17 39 13 15 32 40 42 55 9 16 22 25 28 21 6 -4 8 -3 5 3 -8 13 69 164 79
155 4 -4 4 -2 1 4 -4 7 4 41 18 77 49 132 105 402 105 511 0 25 2 46 4 46 2 0
16 -19 31 -42z m1594 -65 c-4 -21 -17 -76 -28 -123 -32 -141 -34 -181 -15
-240 l17 -53 -49 -44 c-27 -24 -116 -95 -199 -157 -82 -62 -157 -121 -165
-131 -8 -11 3 -6 25 11 70 53 71 50 10 -27 -33 -40 -79 -99 -102 -129 -23 -30
-83 -102 -134 -159 -91 -103 -92 -103 -130 -97 -21 3 -84 24 -141 47 -132 53
-226 62 -287 30 -23 -11 -41 -17 -41 -12 0 10 67 110 167 248 71 98 77 104
156 144 45 22 88 46 95 51 16 14 16 0 -3 -87 -18 -84 -19 -117 -5 -95 7 11 10
-1 11 -40 0 -30 3 -63 7 -72 4 -10 7 45 7 121 0 87 4 147 12 162 7 13 13 33
15 44 2 11 17 26 33 34 17 8 57 32 90 54 77 52 455 337 455 344 0 5 -42 -25
-220 -157 -165 -122 -158 -117 -141 -97 28 36 -8 13 -109 -68 -90 -72 -105
-81 -108 -63 -4 24 -2 27 26 31 19 3 75 40 192 126 20 15 29 18 21 8 -7 -9 -9
-17 -3 -17 12 0 34 25 27 32 -3 3 2 11 12 19 11 9 14 10 9 2 -4 -7 -5 -13 -1
-13 10 0 325 242 369 284 23 21 34 34 26 29 -13 -9 -178 -126 -322 -231 -27
-18 -48 -32 -48 -29 0 3 42 35 93 73 50 37 144 106 207 153 124 93 143 105
120 75 -14 -18 -14 -18 2 -5 10 7 16 17 13 21 -4 7 31 40 41 40 1 0 -2 -17 -7
-37z m-1387 -125 c19 -18 38 -35 44 -38 5 -3 8 -13 8 -22 -1 -10 3 -15 7 -12
5 3 7 10 4 15 -9 14 -3 11 53 -19 29 -16 49 -32 45 -36 -4 -4 -1 -5 7 -2 8 3
38 -7 67 -24 l51 -29 -1 -102 -2 -101 -39 -16 c-32 -12 -42 -13 -60 -2 -16 9
-18 9 -9 0 9 -10 3 -21 -25 -51 -19 -22 -38 -36 -41 -32 -3 5 -17 9 -31 11
-14 1 -20 -1 -13 -6 8 -5 2 -17 -18 -40 -28 -31 -47 -43 -33 -20 4 7 3 8 -5 4
-6 -4 -9 -12 -5 -17 3 -6 -2 -19 -12 -30 -10 -11 -28 -36 -40 -57 l-23 -37 -1
280 c0 160 4 274 9 266 6 -9 8 -2 8 20 -2 70 3 129 12 129 4 0 24 -15 43 -32z
m1385 -150 c-3 -8 -6 -5 -6 6 -1 11 2 17 5 13 3 -3 4 -12 1 -19z m-937 -75 c8
-3 18 -7 22 -7 3 -1 9 -4 13 -8 8 -8 -29 -30 -39 -23 -3 3 -4 2 -1 -1 7 -10
-24 -36 -35 -29 -6 3 -7 -1 -4 -9 3 -9 2 -16 -4 -16 -5 0 -12 -9 -15 -21 -4
-13 -12 -19 -24 -18 -10 2 -24 0 -30 -4 -10 -6 -13 13 -13 87 l0 95 58 -20
c31 -10 64 -22 72 -26z m2530 -149 c0 -7 5 -16 12 -20 7 -5 8 -3 3 6 -5 9 -4
11 4 6 17 -11 8 -29 -17 -32 -27 -5 -37 12 -21 34 12 15 12 15 -7 -1 -27 -22
-37 -11 -17 19 12 19 19 22 29 13 8 -6 14 -17 14 -25z m46 -50 c-3 -8 -2 -12
4 -9 8 5 110 -60 110 -71 0 -9 -136 60 -155 79 -7 7 -6 8 2 3 6 -3 14 -2 18 4
10 16 28 12 21 -6z m-261 -1540 c20 -118 25 -178 23 -277 l-3 -127 -52 67
c-28 38 -88 106 -132 153 -60 63 -79 90 -76 105 47 191 70 375 81 655 l7 175
63 -300 c35 -165 75 -368 89 -451z m-2974 121 c0 -16 -10 -84 -24 -150 -21
-102 -24 -139 -20 -250 4 -114 2 -146 -23 -260 -24 -116 -27 -151 -27 -325 -1
-205 16 -355 53 -484 10 -36 17 -66 15 -66 -8 0 -64 109 -89 172 -51 131 -60
194 -60 443 0 252 19 417 70 605 37 140 43 168 64 357 11 95 21 179 21 185 2
12 17 -162 20 -227z m437 -59 c-3 -55 -5 -61 -25 -64 -21 -3 -23 1 -23 42 0
24 5 68 12 97 l12 52 14 -32 c7 -19 12 -59 10 -95z m-442 -866 c17 -231 14
-564 -5 -583 -26 -26 -70 301 -70 518 -1 158 8 241 37 358 l17 72 2 -70 c1
-38 10 -171 19 -295z m3014 180 c-13 -95 -51 -259 -73 -312 -16 -39 -75 -89
-138 -118 -42 -18 -79 -26 -79 -15 0 2 28 39 63 82 105 130 202 344 224 495
l8 53 3 -50 c2 -27 -2 -88 -8 -135z m134 -100 c73 -197 91 -350 75 -619 -6
-97 -12 -177 -14 -180 -3 -2 -15 9 -27 25 -13 16 -55 66 -95 111 -68 76 -73
85 -73 127 l0 46 -127 61 -128 61 39 19 c95 46 133 78 156 132 35 79 77 254
86 346 l7 84 33 -59 c19 -33 49 -102 68 -154z m-2877 -179 c24 -55 33 -88 33
-129 0 -59 -5 -65 -14 -17 -3 17 -21 82 -41 145 -36 119 -42 143 -23 100 7
-14 26 -58 45 -99z"/>
<path d="M3676 6739 c2 -4 -2 -10 -8 -12 -8 -4 -9 -6 -2 -6 6 -1 17 5 23 12 8
10 7 14 -4 14 -8 0 -12 -4 -9 -8z"/>
<path d="M3664 6503 c15 -4 16 -7 5 -15 -11 -7 -11 -9 -1 -6 20 5 16 23 -5 25
-15 2 -15 1 1 -4z"/>
<path d="M1882 5375 c0 -16 2 -22 5 -12 2 9 2 23 0 30 -3 6 -5 -1 -5 -18z"/>
<path d="M2487 4999 c7 -7 15 -10 18 -7 3 3 -2 9 -12 12 -14 6 -15 5 -6 -5z"/>
<path d="M3369 4689 c-21 -40 -59 -162 -59 -191 0 -15 5 -28 11 -28 5 0 17
-17 26 -37 13 -32 14 -47 4 -97 -10 -46 -10 -61 0 -70 9 -8 10 -7 6 7 -4 11
-1 17 8 17 21 0 65 22 65 32 0 5 -9 4 -19 -2 -40 -21 -46 -13 -43 48 3 51 0
63 -22 88 -24 29 -24 33 -13 85 12 51 14 54 46 57 21 2 40 -3 52 -14 19 -17
20 -17 13 2 -15 42 -57 73 -70 52 -4 -6 -3 -9 2 -5 5 3 18 -1 29 -9 17 -13 16
-14 -18 -14 l-37 0 20 50 c20 51 20 67 -1 29z"/>
<path d="M3300 4420 c0 -16 4 -30 8 -30 5 0 7 14 4 30 -2 17 -6 30 -8 30 -2 0
-4 -13 -4 -30z"/>
<path d="M2323 4156 c-69 -17 -150 -58 -201 -101 -40 -35 -42 -39 -42 -95 0
-32 5 -71 11 -87 19 -51 62 -104 100 -124 54 -27 62 -23 13 6 -66 40 -120 140
-112 209 2 25 13 34 69 62 37 19 108 45 159 60 83 24 96 25 131 14 36 -12 41
-12 62 8 32 30 61 27 90 -8 51 -60 61 -165 24 -239 -25 -49 -20 -52 8 -6 47
76 28 200 -41 268 -29 29 -81 63 -57 37 9 -10 4 -18 -23 -36 -29 -20 -39 -22
-56 -13 -12 6 -39 9 -63 6 -66 -10 -207 -57 -248 -84 -47 -30 -62 -21 -22 13
50 41 166 92 245 107 47 10 62 15 40 15 -19 0 -58 -5 -87 -12z"/>
<path d="M2750 3915 c0 -8 5 -15 10 -15 6 0 10 7 10 15 0 8 -4 15 -10 15 -5 0
-10 -7 -10 -15z"/>
<path d="M2728 3824 c-35 -18 -35 -27 -2 -53 34 -27 54 -13 54 35 0 38 -10 41
-52 18z m41 -16 c0 -7 -4 -21 -8 -31 -6 -17 -8 -17 -26 3 -16 18 -17 23 -5 30
21 14 40 12 39 -2z"/>
<path d="M2736 3801 c-4 -5 -2 -12 3 -15 5 -4 12 -2 15 3 4 5 2 12 -3 15 -5 4
-12 2 -15 -3z"/>
<path d="M4031 5314 c0 -11 3 -14 6 -6 3 7 2 16 -1 19 -3 4 -6 -2 -5 -13z"/>
<path d="M4021 5224 c0 -11 3 -14 6 -6 3 7 2 16 -1 19 -3 4 -6 -2 -5 -13z"/>
<path d="M2560 5461 c0 -6 4 -13 10 -16 6 -3 7 1 4 9 -7 18 -14 21 -14 7z"/>
<path d="M2646 5343 c-6 -14 -5 -15 5 -6 7 7 10 15 7 18 -3 3 -9 -2 -12 -12z"/>
<path d="M2666 5251 c-3 -5 1 -14 8 -20 10 -9 16 -9 21 -1 4 6 1 9 -7 8 -7 -2
-12 3 -10 10 2 14 -4 16 -12 3z"/>
<path d="M3454 4180 c0 -13 4 -16 10 -10 7 7 7 13 0 20 -6 6 -10 3 -10 -10z"/>
<path d="M3418 4138 c19 -19 14 -32 -5 -17 -16 13 -17 12 -5 -3 8 -9 20 -14
28 -11 13 5 12 8 -2 24 -9 11 -20 19 -23 19 -3 0 0 -5 7 -12z"/>
<path d="M3376 4058 c3 -5 10 -6 15 -3 13 9 11 12 -6 12 -8 0 -12 -4 -9 -9z"/>
<path d="M3286 3943 c-6 -14 -5 -15 5 -6 7 7 10 15 7 18 -3 3 -9 -2 -12 -12z"/>
<path d="M3245 3939 c-4 -6 -4 -13 -1 -16 3 -4 6 0 6 8 0 11 2 11 10 -1 8 -13
10 -12 10 3 0 19 -15 23 -25 6z"/>
<path d="M2760 5136 c0 -2 7 -9 15 -16 13 -11 14 -10 9 4 -5 14 -24 23 -24 12z"/>
<path d="M3315 4950 c10 -11 20 -20 23 -20 3 0 -3 9 -13 20 -10 11 -20 20 -23
20 -3 0 3 -9 13 -20z"/>
<path d="M3330 4846 c0 -2 7 -7 16 -10 8 -3 12 -2 9 4 -6 10 -25 14 -25 6z"/>
<path d="M3718 4383 c7 -3 16 -2 19 1 4 3 -2 6 -13 5 -11 0 -14 -3 -6 -6z"/>
<path d="M3721 3234 c0 -11 3 -14 6 -6 3 7 2 16 -1 19 -3 4 -6 -2 -5 -13z"/>
<path d="M1200 4185 c0 -5 5 -17 10 -25 5 -8 10 -10 10 -5 0 6 -5 17 -10 25
-5 8 -10 11 -10 5z"/>
<path d="M1470 4061 c0 -6 4 -13 10 -16 6 -3 7 1 4 9 -7 18 -14 21 -14 7z"/>
<path d="M1260 4041 c0 -6 4 -13 10 -16 6 -3 7 1 4 9 -7 18 -14 21 -14 7z"/>
<path d="M1250 4015 c0 -5 5 -17 10 -25 5 -8 10 -10 10 -5 0 6 -5 17 -10 25
-5 8 -10 11 -10 5z"/>
<path d="M1337 3901 c-4 -17 -3 -21 5 -13 5 5 8 16 6 23 -3 8 -7 3 -11 -10z"/>
<path d="M1311 3894 c0 -11 3 -14 6 -6 3 7 2 16 -1 19 -3 4 -6 -2 -5 -13z"/>
<path d="M1350 3840 c0 -5 5 -10 11 -10 5 0 7 5 4 10 -3 6 -8 10 -11 10 -2 0
-4 -4 -4 -10z"/>
<path d="M3397 3868 c20 -22 24 -23 16 -1 -5 12 -3 14 8 8 8 -4 11 -4 6 0 -4
5 -16 9 -27 10 -19 2 -19 1 -3 -17z"/>
<path d="M3376 3647 c3 -10 9 -15 12 -12 3 3 0 11 -7 18 -10 9 -11 8 -5 -6z"/>
<path d="M3265 3639 c-4 -6 -5 -12 -2 -15 2 -3 7 2 10 11 7 17 1 20 -8 4z"/>
<path d="M3330 3550 c-6 -11 -8 -20 -6 -20 3 0 10 9 16 20 6 11 8 20 6 20 -3
0 -10 -9 -16 -20z"/>
<path d="M1491 3304 c0 -11 3 -14 6 -6 3 7 2 16 -1 19 -3 4 -6 -2 -5 -13z"/>
<path d="M1533 3285 c-3 -9 -3 -18 -1 -21 3 -3 8 4 11 16 6 23 -1 27 -10 5z"/>
<path d="M1446 3263 c-6 -14 -5 -15 5 -6 7 7 10 15 7 18 -3 3 -9 -2 -12 -12z"/>
<path d="M1443 3165 c0 -8 4 -12 9 -9 5 3 6 10 3 15 -9 13 -12 11 -12 -6z"/>
<path d="M1395 3101 c-3 -5 -2 -12 3 -15 5 -3 9 1 9 9 0 17 -3 19 -12 6z"/>
<path d="M1375 3071 c-3 -5 -2 -12 3 -15 5 -3 9 1 9 9 0 17 -3 19 -12 6z"/>
<path d="M2999 3583 c-13 -16 -12 -17 4 -4 16 13 21 21 13 21 -2 0 -10 -8 -17
-17z"/>
<path d="M2653 2944 c-59 -34 -54 -40 7 -9 46 24 61 35 43 35 -5 0 -27 -12
-50 -26z"/>
<path d="M2331 2834 c0 -11 3 -14 6 -6 3 7 2 16 -1 19 -3 4 -6 -2 -5 -13z"/>
<path d="M1764 3596 c1 -8 5 -18 8 -22 4 -3 5 1 4 10 -1 8 -5 18 -8 22 -4 3
-5 -1 -4 -10z"/>
<path d="M1846 3521 c-5 -8 40 -9 47 -1 3 3 -6 6 -19 6 -13 1 -26 -1 -28 -5z"/>
<path d="M1910 3515 c0 -2 6 -8 13 -14 10 -8 14 -7 14 2 0 8 -6 14 -14 14 -7
0 -13 -1 -13 -2z"/>
<path d="M1940 3220 c0 -6 -4 -8 -10 -5 -16 10 -11 -1 7 -16 9 -8 14 -9 10 -2
-4 6 -2 13 5 15 9 3 9 6 0 12 -7 4 -12 2 -12 -4z"/>
<path d="M1766 3077 c3 -10 9 -15 12 -12 3 3 0 11 -7 18 -10 9 -11 8 -5 -6z"/>
<path d="M3412 6988 c-18 -23 -83 -160 -80 -169 2 -5 24 34 49 86 46 94 51
106 31 83z"/>
<path d="M3580 6960 c-33 -3 5 -6 95 -5 l150 0 75 -39 c116 -59 237 -142 309
-210 37 -33 56 -49 43 -35 -12 14 -19 29 -15 34 5 4 2 5 -6 0 -10 -6 -12 -3
-7 12 14 44 -92 146 -207 198 -104 48 -267 65 -437 45z m394 -44 c86 -32 164
-83 209 -136 56 -66 51 -81 -10 -27 -59 51 -139 105 -220 148 -84 44 -75 51
21 15z"/>
<path d="M1627 6915 c28 -19 62 -76 79 -128 7 -23 13 -33 13 -22 1 47 -73 165
-103 165 -6 0 -1 -7 11 -15z"/>
<path d="M3325 6753 c-19 -142 -55 -248 -140 -416 -47 -92 -83 -172 -80 -176
2 -5 -2 -14 -10 -21 -8 -7 -15 -23 -15 -37 0 -22 1 -23 16 -9 23 23 25 20 10
-21 -7 -21 -13 -60 -13 -88 0 -43 1 -46 8 -21 4 16 6 33 4 37 -3 4 2 26 10 49
19 55 19 70 -2 70 -23 1 47 65 106 98 l42 24 -21 -34 c-22 -36 -25 -48 -11
-48 5 0 13 9 16 20 4 11 18 34 32 50 20 24 22 30 8 30 -21 0 -69 -25 -127 -66
-27 -19 -48 -32 -48 -29 0 2 13 23 29 47 45 68 127 236 155 318 24 72 53 256
43 267 -3 3 -8 -17 -12 -44z"/>
<path d="M1723 6695 c0 -27 2 -38 4 -22 2 15 2 37 0 50 -2 12 -4 0 -4 -28z"/>
<path d="M1110 6683 c0 -15 101 -143 112 -143 5 0 -8 21 -29 48 -22 26 -49 60
-61 76 -12 16 -22 24 -22 19z"/>
<path d="M3638 6583 c7 -3 16 -2 19 1 4 3 -2 6 -13 5 -11 0 -14 -3 -6 -6z"/>
<path d="M4078 6409 c6 -9 8 -20 4 -25 -4 -5 -3 -6 2 -2 5 4 15 3 23 -4 10 -8
17 -8 26 1 9 10 8 11 -7 5 -15 -6 -17 -4 -11 7 4 8 4 11 0 6 -5 -4 -18 1 -29
10 -15 14 -18 14 -8 2z"/>
<path d="M1940 6351 c0 -6 4 -13 10 -16 6 -3 7 1 4 9 -7 18 -14 21 -14 7z"/>
<path d="M4227 6303 c-12 -12 -7 -20 21 -32 26 -11 26 -11 7 5 -11 8 -19 20
-17 25 2 11 -2 12 -11 2z"/>
<path d="M1893 6262 c-1 -22 0 -24 9 -8 6 10 6 22 2 26 -5 5 -10 -3 -11 -18z"/>
<path d="M3415 6163 c-37 -6 -58 -23 -28 -23 12 0 33 4 47 10 14 5 26 6 26 2
0 -14 -53 -87 -94 -130 l-41 -43 25 -20 c33 -26 67 -44 129 -69 78 -31 60 -10
-34 39 -47 24 -85 47 -85 51 0 4 9 15 21 25 28 26 99 134 99 151 0 14 -8 15
-65 7z"/>
<path d="M2025 6150 c-3 -6 1 -7 9 -4 18 7 21 14 7 14 -6 0 -13 -4 -16 -10z"/>
<path d="M3260 6150 c-12 -8 -10 -10 10 -9 14 1 36 5 50 9 23 7 22 8 -10 9
-19 0 -42 -4 -50 -9z"/>
<path d="M2070 6129 c0 -5 5 -7 10 -4 6 3 10 8 10 11 0 2 -4 4 -10 4 -5 0 -10
-5 -10 -11z"/>
<path d="M1940 5943 c0 -6 8 -17 18 -24 16 -13 16 -13 2 6 -8 11 -16 22 -17
24 -2 2 -3 0 -3 -6z"/>
<path d="M2005 5885 c1 -14 6 -29 10 -33 4 -4 4 4 0 18 -7 23 -7 24 11 10 18
-14 18 -14 0 8 -24 28 -25 28 -21 -3z"/>
<path d="M2296 5878 c3 -5 10 -6 15 -3 13 9 11 12 -6 12 -8 0 -12 -4 -9 -9z"/>
<path d="M3525 5851 l30 -7 -52 -34 c-29 -18 -53 -37 -53 -41 0 -4 14 -17 30
-29 23 -17 29 -27 24 -45 -3 -13 0 -26 7 -31 9 -5 11 -2 6 9 -3 9 0 18 9 21
15 6 54 65 54 81 -1 6 -11 -3 -24 -19 -23 -28 -24 -28 -50 -11 -14 10 -26 20
-26 24 0 3 20 19 44 34 24 15 50 34 56 42 11 13 6 15 -36 14 -42 -1 -45 -2
-19 -8z"/>
<path d="M1389 5703 c-13 -16 -12 -17 4 -4 9 7 17 15 17 17 0 8 -8 3 -21 -13z"/>
<path d="M2215 5662 c4 -4 12 -7 18 -7 7 -1 11 -7 9 -14 -1 -7 2 -9 9 -6 13 9
-3 28 -27 31 -9 1 -13 -1 -9 -4z"/>
<path d="M1901 5633 c7 -12 15 -20 18 -17 3 2 -3 12 -13 22 -17 16 -18 16 -5
-5z"/>
<path d="M2279 5583 c-13 -16 -12 -17 4 -4 16 13 21 21 13 21 -2 0 -10 -8 -17
-17z"/>
<path d="M2360 5510 c-9 -6 -10 -10 -3 -10 6 0 15 5 18 10 8 12 4 12 -15 0z"/>
<path d="M1086 5497 c3 -10 9 -15 12 -12 3 3 0 11 -7 18 -10 9 -11 8 -5 -6z"/>
<path d="M1126 5445 c-9 -26 -7 -32 5 -12 6 10 9 21 6 23 -2 3 -7 -2 -11 -11z"/>
<path d="M1067 5433 c-4 -3 -7 -11 -7 -17 0 -6 5 -5 12 2 6 6 9 14 7 17 -3 3
-9 2 -12 -2z"/>
<path d="M1451 5424 c0 -11 3 -14 6 -6 3 7 2 16 -1 19 -3 4 -6 -2 -5 -13z"/>
<path d="M1236 5327 c3 -10 9 -15 12 -12 3 3 0 11 -7 18 -10 9 -11 8 -5 -6z"/>
<path d="M1021 5294 c0 -11 3 -14 6 -6 3 7 2 16 -1 19 -3 4 -6 -2 -5 -13z"/>
<path d="M1501 5294 c0 -11 3 -14 6 -6 3 7 2 16 -1 19 -3 4 -6 -2 -5 -13z"/>
<path d="M2090 5246 c0 -2 8 -10 18 -17 15 -13 16 -12 3 4 -13 16 -21 21 -21
13z"/>
<path d="M2120 5244 c0 -1 6 -7 14 -13 10 -9 15 -8 19 2 3 8 -3 13 -14 13 -11
0 -19 -1 -19 -2z"/>
<path d="M1391 5214 c0 -11 3 -14 6 -6 3 7 2 16 -1 19 -3 4 -6 -2 -5 -13z"/>
<path d="M2596 5213 c-6 -14 -5 -15 5 -6 7 7 10 15 7 18 -3 3 -9 -2 -12 -12z"/>
<path d="M1046 5173 c-6 -14 -5 -15 5 -6 7 7 10 15 7 18 -3 3 -9 -2 -12 -12z"/>
<path d="M1381 5124 c0 -11 3 -14 6 -6 3 7 2 16 -1 19 -3 4 -6 -2 -5 -13z"/>
<path d="M2260 5061 c0 -5 5 -13 10 -16 6 -3 10 -2 10 4 0 5 -4 13 -10 16 -5
3 -10 2 -10 -4z"/>
<path d="M2296 5033 c-6 -14 -5 -15 5 -6 7 7 10 15 7 18 -3 3 -9 -2 -12 -12z"/>
<path d="M1501 4994 c0 -11 3 -14 6 -6 3 7 2 16 -1 19 -3 4 -6 -2 -5 -13z"/>
<path d="M2920 4991 c5 -11 15 -23 21 -27 6 -3 3 5 -6 20 -20 30 -30 35 -15 7z"/>
<path d="M1151 4984 c0 -11 3 -14 6 -6 3 7 2 16 -1 19 -3 4 -6 -2 -5 -13z"/>
<path d="M2920 4955 c0 -5 5 -17 10 -25 5 -8 10 -10 10 -5 0 6 -5 17 -10 25
-5 8 -10 11 -10 5z"/>
<path d="M932 4900 c0 -14 2 -19 5 -12 2 6 2 18 0 25 -3 6 -5 1 -5 -13z"/>
<path d="M1909 4768 c-5 -18 -6 -38 -1 -34 7 8 12 36 6 36 -2 0 -4 -1 -5 -2z"/>
<path d="M3016 4751 c-3 -5 1 -11 9 -14 9 -4 12 -1 8 9 -6 16 -10 17 -17 5z"/>
<path d="M1071 4734 c0 -11 3 -14 6 -6 3 7 2 16 -1 19 -3 4 -6 -2 -5 -13z"/>
<path d="M3010 4706 c0 -2 7 -7 16 -10 8 -3 12 -2 9 4 -6 10 -25 14 -25 6z"/>
<path d="M3225 4659 c-4 -6 -5 -12 -2 -15 2 -3 7 2 10 11 7 17 1 20 -8 4z"/>
<path d="M3016 4631 c-4 -7 -5 -15 -2 -18 9 -9 19 4 14 18 -4 11 -6 11 -12 0z"/>
<path d="M1396 4607 c3 -10 9 -15 12 -12 3 3 0 11 -7 18 -10 9 -11 8 -5 -6z"/>
<path d="M1291 4594 c0 -11 3 -14 6 -6 3 7 2 16 -1 19 -3 4 -6 -2 -5 -13z"/>
<path d="M3151 4441 c-8 -5 -9 -11 -3 -15 5 -3 12 1 16 9 6 17 6 18 -13 6z"/>
<path d="M1302 4390 c0 -14 2 -19 5 -12 2 6 2 18 0 25 -3 6 -5 1 -5 -13z"/>
<path d="M3050 4301 c0 -6 4 -13 10 -16 6 -3 7 1 4 9 -7 18 -14 21 -14 7z"/>
<path d="M4121 4243 c-2 -47 19 -186 30 -203 7 -10 8 -2 3 25 -3 22 -12 78
-19 125 -7 47 -13 71 -14 53z"/>
<path d="M2995 4201 c-3 -5 -2 -12 3 -15 5 -3 9 1 9 9 0 17 -3 19 -12 6z"/>
<path d="M1340 4165 c0 -8 2 -15 4 -15 2 0 6 7 10 15 3 8 1 15 -4 15 -6 0 -10
-7 -10 -15z"/>
<path d="M1326 4118 c3 -5 10 -6 15 -3 13 9 11 12 -6 12 -8 0 -12 -4 -9 -9z"/>
<path d="M733 4028 c-6 -7 -13 -37 -16 -67 -4 -29 -8 -56 -11 -58 -2 -3 -29
14 -59 36 -155 117 -205 1 -64 -148 55 -57 127 -91 195 -91 l54 0 -7 78 c-12
132 -48 262 -74 262 -5 0 -13 -6 -18 -12z m48 -80 c10 -35 20 -104 24 -151 l7
-87 -39 0 c-76 0 -177 70 -233 162 -23 37 -27 93 -7 101 19 7 65 -15 120 -57
59 -45 77 -42 77 16 0 105 27 114 51 16z"/>
<path d="M4021 3602 c-1 -13 10 -112 24 -220 14 -108 23 -203 20 -210 -3 -8
-1 -20 3 -26 5 -6 15 -65 21 -130 45 -458 30 -1057 -35 -1411 -20 -104 -69
-291 -94 -355 -22 -57 -24 -63 -11 -56 10 6 51 121 80 221 106 368 139 1097
76 1655 -24 211 -82 577 -84 532z"/>
<path d="M1053 3543 c-7 -2 -17 -22 -23 -44 l-11 -39 -41 30 c-22 17 -50 30
-61 30 -16 0 -18 -5 -12 -27 16 -67 77 -114 149 -117 23 0 44 -5 48 -11 11
-15 9 130 -2 159 -9 25 -21 30 -47 19z m32 -25 c2 -7 6 -39 9 -70 l4 -58 -39
0 c-22 0 -53 7 -69 15 -48 25 -92 95 -59 95 6 0 28 -13 49 -30 45 -36 60 -38
60 -7 0 38 12 67 26 67 8 0 17 -6 19 -12z"/>
<path d="M4532 3455 c3 -3 16 -8 28 -10 12 -2 20 -1 16 2 -4 4 -16 8 -28 10
-12 2 -19 1 -16 -2z"/>
<path d="M1683 3415 c0 -22 2 -30 4 -17 2 12 2 30 0 40 -3 9 -5 -1 -4 -23z"/>
<path d="M4520 3431 c0 -5 7 -12 16 -15 14 -5 15 -4 4 9 -14 17 -20 19 -20 6z"/>
<path d="M3490 3396 c0 -2 8 -10 18 -17 15 -13 16 -12 3 4 -13 16 -21 21 -21
13z"/>
<path d="M3780 3340 c0 -5 5 -10 11 -10 5 0 7 5 4 10 -3 6 -8 10 -11 10 -2 0
-4 -4 -4 -10z"/>
<path d="M4635 3321 c-3 -5 0 -13 6 -17 7 -4 9 -3 5 4 -3 5 0 13 6 15 9 4 10
6 1 6 -6 1 -14 -3 -18 -8z"/>
<path d="M2046 3048 c-13 -24 -27 -54 -30 -68 -4 -16 0 -12 10 10 9 19 25 50
36 68 11 17 17 32 14 32 -3 0 -16 -19 -30 -42z"/>
<path d="M3826 3023 c-6 -14 -5 -15 5 -6 7 7 10 15 7 18 -3 3 -9 -2 -12 -12z"/>
<path d="M2001 2934 c0 -11 3 -14 6 -6 3 7 2 16 -1 19 -3 4 -6 -2 -5 -13z"/>
<path d="M3900 2881 c0 -6 4 -13 10 -16 6 -3 7 1 4 9 -7 18 -14 21 -14 7z"/>
<path d="M3433 2802 c-6 -4 30 -7 80 -7 90 0 94 -1 170 -43 43 -24 83 -42 89
-40 5 2 -28 25 -73 51 -82 46 -86 47 -169 47 -47 0 -90 -4 -97 -8z"/>
<path d="M3200 2714 c-470 -198 -814 -400 -1012 -593 -60 -57 -108 -109 -108
-115 0 -6 26 15 58 45 117 114 258 208 497 331 94 48 167 88 164 88 -13 0
-153 -61 -226 -99 -126 -66 -93 -40 60 46 179 102 308 167 487 243 150 64 176
72 120 39 -58 -36 -163 -150 -229 -250 -117 -175 -241 -458 -255 -579 -6 -44
-6 -45 5 -10 117 379 288 678 462 807 34 25 61 50 59 55 -1 5 2 7 7 4 9 -6 81
20 81 30 0 3 -4 2 -10 -1 -5 -3 -10 -4 -10 -1 0 3 15 12 33 20 23 10 26 14 12
14 -11 0 -99 -33 -195 -74z"/>
<path d="M3880 2625 c0 -2 18 -29 39 -60 54 -77 65 -131 58 -288 -4 -101 -2
-126 7 -111 7 12 11 72 11 159 0 131 -2 144 -27 195 -31 65 -88 133 -88 105z"/>
<path d="M3945 2609 c-4 -6 -5 -12 -2 -15 2 -3 7 2 10 11 7 17 1 20 -8 4z"/>
<path d="M4092 2470 c0 -14 2 -19 5 -12 2 6 2 18 0 25 -3 6 -5 1 -5 -13z"/>
<path d="M1655 2305 c7 -122 38 -415 44 -410 5 6 -27 368 -40 440 -7 42 -8 38
-4 -30z"/>
<path d="M3600 2195 c-248 -56 -423 -122 -554 -209 -112 -75 -180 -149 -200
-217 -21 -72 -78 -371 -72 -377 6 -5 8 4 45 193 l29 150 1 -190 c0 -104 -4
-237 -8 -295 -12 -154 -47 -232 -214 -478 -126 -186 -184 -279 -142 -227 41
50 184 256 228 329 27 45 47 74 44 65 -46 -135 -104 -392 -118 -521 -9 -78
-18 -117 -39 -158 -26 -50 -110 -247 -110 -256 0 -2 4 -4 8 -4 5 0 21 33 37
72 15 40 42 104 58 142 29 63 31 67 41 45 7 -19 11 1 17 92 5 72 22 179 44
279 38 172 116 435 143 485 14 26 17 78 20 355 4 373 0 354 101 438 81 67 181
125 298 172 105 42 370 113 478 129 57 8 58 9 15 9 -25 0 -92 -10 -150 -23z"/>
<path d="M3863 2193 c15 -2 37 -2 50 0 12 2 0 4 -28 4 -27 0 -38 -2 -22 -4z"/>
<path d="M3951 2039 c-2 -85 -89 -376 -183 -609 -91 -223 -132 -299 -196 -358
-50 -46 -40 -58 11 -13 13 11 8 -8 -18 -64 -45 -97 -77 -185 -72 -200 2 -5 9
8 16 30 7 22 61 139 120 260 59 121 114 236 123 255 17 35 17 35 13 5 -3 -16
-12 -92 -20 -168 -19 -161 -35 -219 -82 -304 -30 -54 -36 -78 -49 -186 -18
-157 -41 -237 -153 -525 -42 -110 -60 -174 -43 -157 14 15 146 366 177 470 15
50 31 135 35 189 10 110 20 145 62 229 16 32 35 83 43 115 15 58 46 352 39
363 -3 6 58 183 115 334 11 29 11 28 6 -12 -3 -23 -9 -165 -15 -315 -10 -291
-16 -354 -31 -363 -14 -9 -11 -22 6 -22 8 0 15 6 15 14 0 7 15 33 34 57 l34
45 33 -99 33 -98 -39 -59 c-21 -32 -30 -51 -20 -43 17 14 18 13 12 -2 -15 -41
6 -14 29 37 14 30 30 55 35 55 20 0 67 -84 89 -159 23 -81 42 -112 55 -91 3 5
2 10 -3 10 -6 0 -20 33 -32 73 -27 87 -44 123 -78 159 -23 26 -24 29 -9 51 61
93 205 392 194 403 -2 2 -23 -40 -46 -94 -39 -89 -147 -292 -156 -292 -2 0 7
33 21 72 35 103 119 433 143 563 30 160 51 337 49 408 -1 51 -2 54 -5 17 -8
-100 -35 -243 -62 -326 -62 -193 -145 -386 -209 -489 l-31 -49 -12 47 c-17 71
-30 67 -13 -4 14 -58 13 -63 -7 -95 -11 -19 -22 -34 -24 -34 -2 0 -1 35 1 78
2 42 9 203 14 357 8 195 16 297 27 335 26 92 42 201 33 224 -7 16 -9 10 -9
-25z m234 -445 c-32 -184 -159 -649 -175 -639 -4 3 -20 42 -34 87 l-27 83 83
165 c46 91 101 218 123 282 22 64 41 115 42 114 2 -2 -4 -43 -12 -92z"/>
<path d="M5074 1935 c44 -44 97 -107 118 -140 39 -60 41 -68 23 -135 -5 -22
-4 -22 12 5 13 22 17 52 18 112 0 46 1 83 3 83 2 0 28 -51 57 -112 30 -62 54
-110 55 -107 1 14 -53 137 -85 194 -34 62 -66 99 -51 60 9 -24 20 -135 14
-135 -3 0 -18 19 -33 41 -36 56 -97 121 -159 171 -38 31 -30 21 28 -37z"/>
<path d="M5368 1586 c40 -44 72 -86 72 -93 0 -8 4 -12 8 -9 5 3 35 -26 66 -64
55 -65 114 -124 76 -75 -9 11 -42 50 -74 88 -32 37 -59 79 -61 93 -1 15 -21
44 -45 68 -37 36 -41 38 -35 16 6 -25 6 -25 -12 -5 -10 11 -30 29 -43 40 -13
11 8 -16 48 -59z m37 -16 c10 -11 16 -20 13 -20 -3 0 -13 9 -23 20 -10 11 -16
20 -13 20 3 0 13 -9 23 -20z"/>
<path d="M5450 1463 c0 -5 7 -33 15 -63 20 -73 19 -78 -7 -44 -37 50 -41 51
-17 4 13 -24 31 -51 39 -58 10 -9 10 -11 1 -7 -10 6 -9 1 3 -17 11 -17 17 -60
21 -153 l6 -130 -61 65 c-34 36 -75 83 -91 104 -16 21 -29 36 -29 32 0 -14 37
-64 102 -137 63 -71 68 -80 68 -123 0 -25 -4 -46 -8 -46 -5 0 -39 39 -75 88
-36 48 -82 105 -102 127 -20 22 3 -14 51 -80 48 -66 96 -130 106 -141 18 -20
18 -27 8 -85 -7 -35 -14 -68 -18 -73 -3 -5 -25 13 -50 40 l-44 49 41 -54 c22
-29 41 -59 41 -66 0 -16 -32 -108 -61 -173 l-23 -52 -40 37 -41 38 38 -41 c44
-48 45 -43 -26 -149 -90 -133 -188 -212 -377 -304 -78 -39 -96 -51 -75 -51 41
0 236 102 330 173 44 34 117 97 163 141 79 76 83 79 98 60 14 -18 15 -18 4 4
-10 20 -4 31 51 98 l62 75 26 -23 c14 -13 20 -16 14 -8 -7 8 -13 19 -13 25 0
5 14 -6 30 -25 39 -46 39 -34 0 15 -16 21 -30 42 -30 47 0 12 50 78 59 78 4 0
24 -23 45 -50 21 -28 41 -49 43 -46 3 2 -14 28 -36 56 -23 29 -41 56 -41 62 0
8 26 50 47 77 2 3 26 -20 54 -50 56 -59 54 -51 -4 22 l-37 47 70 137 c39 75
70 146 70 158 0 12 -17 -14 -37 -58 -52 -111 -109 -210 -120 -210 -5 0 -46 38
-90 85 l-81 85 -3 130 c-2 72 0 131 4 133 5 2 22 -14 39 -35 35 -44 44 -54 33
-33 -22 40 -68 89 -77 84 -7 -4 -8 -2 -4 4 4 6 2 19 -3 29 -6 10 -20 55 -32
101 -18 72 -29 99 -29 75z m230 -684 c0 -12 -41 -79 -48 -79 -4 0 -33 35 -64
77 -47 61 -58 83 -58 114 0 74 7 72 91 -18 43 -47 79 -89 79 -94z m-60 -96 c0
-12 -49 -83 -58 -83 -4 0 -26 22 -49 49 l-42 49 16 70 17 70 58 -73 c32 -40
58 -77 58 -82z m-70 -95 c0 -9 -85 -120 -114 -147 -22 -21 -28 -22 -43 -10
-16 13 -17 12 -4 -3 11 -15 10 -21 -10 -45 -32 -38 -135 -132 -123 -113 5 8
34 53 65 100 31 47 73 126 93 175 21 50 42 101 47 114 l10 25 39 -45 c22 -24
39 -47 40 -51z"/>
<path d="M5515 600 c10 -11 20 -20 23 -20 3 0 -3 9 -13 20 -10 11 -20 20 -23
20 -3 0 3 -9 13 -20z"/>
<path d="M1935 1138 c-7 -130 -2 -565 7 -608 2 -14 12 -37 20 -50 9 -14 27
-67 42 -118 22 -78 26 -113 26 -222 0 -73 4 -131 10 -135 12 -7 3 272 -11 334
-5 24 -8 45 -5 48 2 2 21 -25 41 -61 20 -36 40 -64 45 -61 8 5 98 -115 159
-213 18 -28 37 -52 43 -52 18 0 -59 115 -227 340 -150 202 -148 193 -142 603
3 174 3 317 2 317 -2 0 -6 -55 -10 -122z"/>
<path d="M3867 821 c-4 -35 -6 -89 -6 -120 1 -37 5 -18 10 54 10 121 6 168 -4
66z"/>
<path d="M2110 254 c0 -5 32 -58 70 -119 38 -60 74 -117 79 -125 5 -8 12 -13
14 -10 3 3 -31 61 -74 130 -87 134 -89 138 -89 124z"/>
</g>
</svg>
