<?xml version="1.0" standalone="no"?>
<!DOCTYPE svg PUBLIC "-//W3C//DTD SVG 20010904//EN"
 "http://www.w3.org/TR/2001/REC-SVG-20010904/DTD/svg10.dtd">
<svg version="1.0" xmlns="http://www.w3.org/2000/svg"
 width="480.000000pt" height="556.000000pt" viewBox="0 0 480.000000 556.000000"
 preserveAspectRatio="xMidYMid meet">

<g transform="translate(0.000000,556.000000) scale(0.100000,-0.100000)"
fill="#000000" stroke="none">
<path d="M1636 5544 c-11 -8 -16 -14 -10 -14 13 0 39 18 34 24 -3 2 -14 -2
-24 -10z"/>
<path d="M2163 5544 c-17 -44 22 -165 78 -246 11 -14 19 -33 19 -41 0 -9 3
-17 8 -19 4 -1 26 -28 48 -58 23 -30 69 -83 103 -118 53 -54 62 -67 57 -90
-10 -44 -24 -392 -20 -467 7 -115 24 -268 32 -300 6 -21 11 21 16 133 3 90 13
208 21 263 14 103 50 229 65 229 5 0 11 -19 15 -42 4 -24 23 -90 41 -148 19
-58 34 -112 34 -121 0 -9 6 -19 13 -22 8 -3 24 -31 37 -64 13 -32 29 -65 36
-73 6 -8 19 -33 28 -54 9 -22 19 -37 22 -34 3 4 1 14 -4 25 -6 10 -22 45 -37
78 -14 33 -31 68 -36 79 -24 43 37 43 179 1 45 -14 51 -19 66 -60 10 -25 22
-45 28 -45 6 0 7 8 3 18 -3 9 -9 30 -12 46 -5 26 -4 28 13 21 10 -4 35 -9 54
-11 19 -2 26 -1 15 2 -100 24 -95 19 -138 153 l-24 74 -6 -52 c-4 -36 -2 -64
8 -87 17 -40 17 -40 -97 -23 -124 19 -114 5 -178 244 -38 142 -41 170 -17 169
26 -2 21 10 -15 37 -92 68 -340 335 -376 405 -36 71 -73 180 -66 198 3 9 3 16
0 16 -4 0 -9 -7 -13 -16z"/>
<path d="M1490 5429 c0 -5 5 -7 10 -4 6 3 10 8 10 11 0 2 -4 4 -10 4 -5 0 -10
-5 -10 -11z"/>
<path d="M1440 5389 c-19 -16 -34 -37 -32 -45 2 -10 -1 -13 -8 -9 -13 8 -50
-31 -50 -52 0 -8 -4 -12 -9 -9 -19 12 -58 -65 -52 -103 2 -8 -2 -10 -11 -5 -7
4 -10 4 -6 -1 8 -9 -22 -65 -35 -65 -12 0 -48 -90 -40 -103 4 -7 -2 -5 -12 3
-12 10 -16 11 -11 2 10 -17 -2 -65 -14 -57 -5 3 -19 1 -30 -5 -22 -12 -27 -49
-7 -69 10 -11 9 -14 -1 -18 -6 -3 -15 -22 -18 -44 -4 -21 -10 -39 -15 -39 -5
0 -7 -6 -5 -12 1 -7 1 -10 -1 -5 -10 16 -20 5 -31 -32 -18 -57 -13 -72 8 -26
17 38 19 38 19 13 1 -16 -3 -28 -8 -28 -5 0 -12 -13 -16 -30 -7 -31 -20 -40
-27 -17 -2 6 -3 35 -3 64 0 42 -2 49 -13 40 -8 -6 -12 -21 -9 -34 2 -13 1 -23
-4 -23 -5 0 -14 -19 -20 -42 -7 -24 -16 -47 -21 -53 -4 -5 -8 -21 -8 -35 0
-14 -4 -30 -9 -35 -13 -15 -23 -83 -12 -89 5 -4 12 -2 16 4 3 5 1 10 -4 10 -6
0 -11 5 -11 10 0 6 7 10 15 10 18 0 20 -41 3 -58 -10 -10 -10 -17 0 -32 11
-17 8 -29 -18 -78 -16 -31 -30 -49 -30 -39 0 10 -4 15 -10 12 -5 -3 -10 3 -10
14 0 28 18 36 22 9 3 -20 6 -17 26 21 13 24 20 46 17 49 -6 6 -20 -11 -28 -33
-3 -5 -8 -7 -12 -3 -5 5 -1 16 9 26 12 14 14 25 8 42 -8 21 -11 18 -27 -31
-10 -30 -19 -75 -20 -101 -1 -30 -8 -55 -20 -68 -9 -10 -15 -26 -12 -34 3 -8
3 -16 -1 -18 -4 -2 -15 -28 -25 -58 -10 -30 -21 -62 -23 -70 -12 -37 68 70 82
110 27 76 105 230 116 230 7 0 9 -15 5 -40 -3 -22 -3 -40 -1 -40 9 0 26 45 29
78 5 54 24 172 34 212 29 111 48 165 140 400 10 25 30 64 44 87 15 24 27 49
27 57 0 8 3 16 8 18 4 2 21 25 39 53 23 35 29 52 20 57 -8 5 -6 9 5 13 10 4
23 22 29 40 7 19 21 36 31 38 10 3 18 12 18 21 0 9 4 16 9 16 5 0 19 14 31 30
26 37 24 37 -20 -1z m-280 -463 c0 -3 -5 -17 -11 -33 -8 -22 -12 -24 -19 -13
-13 20 -12 33 0 25 6 -3 10 1 10 9 0 9 5 16 10 16 6 0 10 -2 10 -4z m-163
-446 c6 19 12 27 12 17 1 -22 -16 -57 -29 -57 -14 0 -22 38 -13 63 6 19 8 17
13 -18 l6 -40 11 35z m-17 -90 c0 -5 -4 -10 -10 -10 -5 0 -10 5 -10 10 0 6 5
10 10 10 6 0 10 -4 10 -10z"/>
<path d="M2686 5400 c34 -65 150 -210 169 -210 7 0 15 -13 18 -30 4 -16 17
-39 29 -52 23 -22 58 -75 77 -113 10 -21 223 -235 234 -235 4 0 -9 26 -28 58
-19 31 -35 63 -35 70 0 14 -28 73 -39 82 -3 3 -21 34 -39 70 -28 54 -41 68
-75 84 -23 10 -50 25 -59 33 -10 9 -25 12 -38 8 -16 -5 -21 -3 -18 9 3 14 -43
70 -165 200 -22 23 -35 34 -31 26z m244 -266 c0 -8 -4 -12 -10 -9 -5 3 -10 10
-10 16 0 5 5 9 10 9 6 0 10 -7 10 -16z m45 -34 c3 -5 -1 -10 -9 -10 -9 0 -16
5 -16 10 0 6 4 10 9 10 6 0 13 -4 16 -10z m31 -68 c-4 -3 -14 2 -24 12 -16 18
-16 18 6 6 13 -6 21 -14 18 -18z m54 -56 c-11 -11 -27 0 -40 27 -11 21 -11 21
4 3 16 -19 16 -19 16 5 l1 24 14 -25 c7 -14 10 -29 5 -34z m38 -35 c3 -8 -1
-12 -9 -9 -7 2 -15 10 -17 17 -3 8 1 12 9 9 7 -2 15 -10 17 -17z"/>
<path d="M3200 5370 c0 -5 7 -10 16 -10 8 0 12 5 9 10 -3 6 -10 10 -16 10 -5
0 -9 -4 -9 -10z"/>
<path d="M3250 5332 c0 -9 40 -35 46 -29 6 6 -25 37 -37 37 -5 0 -9 -3 -9 -8z"/>
<path d="M3330 5266 c0 -2 7 -7 16 -10 8 -3 12 -2 9 4 -6 10 -25 14 -25 6z"/>
<path d="M1645 5240 c-3 -5 -1 -10 4 -10 6 0 11 5 11 10 0 6 -2 10 -4 10 -3 0
-8 -4 -11 -10z"/>
<path d="M1981 5210 c-52 -100 -230 -345 -290 -400 -9 -8 -36 -39 -61 -69 -25
-30 -92 -103 -150 -161 -187 -188 -454 -471 -485 -514 -16 -22 -38 -50 -47
-60 -19 -21 -21 -31 -10 -58 6 -13 13 -8 37 28 17 24 33 44 37 44 3 0 6 -116
5 -257 0 -173 3 -278 12 -318 7 -33 15 -79 18 -102 3 -24 10 -43 14 -43 5 0 9
-11 9 -25 0 -15 6 -38 14 -53 7 -15 16 -46 20 -70 3 -24 10 -51 15 -60 20 -39
43 -123 37 -137 -3 -8 0 -15 6 -15 7 0 9 -25 5 -77 -6 -76 -6 -77 9 -43 l15
35 19 -25 c19 -24 20 -24 20 -4 0 26 21 44 90 80 30 15 80 44 110 64 93 62
119 73 137 58 14 -11 16 -10 11 10 -4 14 -2 22 7 22 7 0 18 7 25 15 7 9 37 27
67 40 60 28 60 22 2 113 -17 27 -27 53 -23 64 4 13 0 18 -13 18 -10 1 -34 11
-54 23 -148 90 -247 180 -307 279 -9 15 -22 30 -29 32 -23 9 -14 -43 21 -125
40 -91 33 -93 -25 -7 -133 195 -196 455 -139 571 50 102 90 159 155 226 39 40
72 76 73 81 2 6 8 10 13 10 5 0 33 26 62 57 28 31 84 87 122 124 84 81 87 76
52 -76 -19 -81 -28 -102 -46 -111 -28 -15 -49 -34 -35 -34 6 0 15 5 21 11 21
21 31 1 22 -43 -20 -96 -39 -234 -38 -272 1 -31 5 -17 19 54 35 179 70 320 83
337 5 7 13 59 17 116 8 113 18 139 79 209 23 25 41 51 41 57 0 6 4 11 8 11 5
0 24 21 42 48 45 61 120 174 120 179 0 2 21 39 46 83 25 43 44 84 42 91 -2 7
-14 -7 -27 -31z m-851 -1720 c0 -5 11 -34 25 -63 24 -50 25 -62 23 -188 -4
-196 -25 -178 -53 46 -18 140 -20 229 -5 220 6 -3 10 -10 10 -15z m250 -271
c0 -16 5 -29 10 -29 6 0 10 9 10 21 0 21 0 21 25 -2 13 -13 25 -29 25 -36 0
-7 12 -25 26 -40 36 -39 49 -64 29 -57 -8 4 -15 9 -15 13 0 4 -17 17 -37 29
-21 12 -52 34 -69 49 -27 23 -31 33 -27 60 6 39 23 34 23 -8z"/>
<path d="M3395 5240 c-4 -6 -14 -9 -22 -5 -13 5 -14 3 -3 -10 10 -11 15 -13
20 -4 10 15 22 -5 14 -24 -3 -8 1 -21 10 -29 8 -8 33 -46 56 -83 23 -38 59
-92 81 -121 21 -29 39 -56 39 -60 0 -3 45 -97 99 -208 55 -110 116 -243 136
-295 19 -52 41 -101 47 -108 6 -7 9 -16 6 -19 -7 -7 -58 17 -58 28 0 4 -5 8
-11 8 -6 0 -17 7 -26 15 -8 9 -18 13 -22 10 -8 -8 34 -40 87 -65 38 -18 56
-40 33 -40 -5 0 -64 26 -132 59 -68 32 -205 96 -304 142 -99 45 -196 92 -215
104 -63 39 -76 36 -27 -6 26 -23 47 -47 47 -54 0 -7 4 -15 9 -17 4 -1 24 -32
43 -68 19 -36 52 -94 72 -130 37 -66 78 -148 91 -185 5 -14 9 -16 12 -7 5 12
-22 99 -47 157 -5 11 -21 49 -37 85 -15 36 -35 81 -44 100 -10 19 -14 36 -9
38 5 2 42 -16 84 -40 l75 -43 27 -79 c15 -44 35 -94 45 -110 27 -48 131 -324
184 -491 26 -82 72 -212 102 -288 70 -178 161 -455 168 -509 6 -44 38 -184 57
-251 16 -54 3 -56 -21 -4 -12 25 -21 48 -21 50 0 20 -110 226 -163 306 -31 47
-44 69 -107 186 -64 117 -63 116 -95 165 -41 62 -56 92 -51 98 9 9 -61 124
-156 258 -32 44 -58 86 -58 92 0 7 -4 12 -9 12 -5 0 6 -42 24 -92 30 -87 90
-290 157 -538 15 -58 31 -139 33 -180 l6 -75 -29 105 c-15 58 -38 127 -50 154
-12 27 -22 52 -22 57 0 5 -12 34 -27 66 -64 141 -135 306 -223 518 -5 11 -11
33 -15 49 -3 16 -18 50 -33 74 l-26 45 -10 -34 c-7 -22 -18 -35 -31 -36 -49
-6 -85 -16 -85 -25 0 -14 -24 13 -44 47 l-16 30 6 -27 c5 -22 2 -28 -10 -28
-18 0 -22 -15 -6 -25 6 -3 10 -15 10 -25 0 -10 7 -23 16 -28 8 -5 24 -22 36
-38 l20 -29 -6 26 c-7 33 26 59 81 62 l36 2 39 -105 39 -105 -10 -130 c-9
-120 -39 -282 -61 -330 -23 -51 -73 -255 -65 -264 8 -8 24 19 32 52 l6 28 11
-23 c38 -76 66 -222 66 -338 0 -47 4 -121 10 -165 5 -44 11 -147 14 -229 3
-82 10 -154 14 -158 11 -11 13 18 53 835 10 207 8 328 -7 460 -8 61 10 62 37
1 38 -86 72 -246 79 -375 0 -3 12 -11 28 -18 15 -7 77 -51 138 -97 l112 -85
31 -97 c17 -53 38 -133 47 -176 17 -85 18 -74 -23 -261 -10 -44 -18 -114 -18
-155 0 -52 -6 -84 -17 -105 -10 -16 -22 -48 -28 -70 -18 -67 -46 -177 -60
-235 -7 -30 -16 -59 -20 -65 -4 -5 -10 -23 -14 -40 -4 -16 -18 -53 -31 -82
-19 -41 -23 -62 -18 -102 5 -42 2 -57 -21 -95 -14 -24 -26 -51 -26 -59 0 -12
-63 -221 -77 -257 -4 -8 -14 -35 -23 -60 l-17 -45 30 -27 c32 -29 17 -39 -17
-13 -27 20 -29 19 -49 -15 -16 -26 -16 -30 -3 -30 20 0 20 -17 0 -55 -13 -25
-13 -31 -1 -40 7 -5 16 -18 20 -28 3 -9 13 -17 21 -17 26 0 30 -40 6 -65 -26
-27 -20 -62 16 -96 13 -12 24 -30 24 -40 0 -15 -53 -49 -78 -49 -5 0 -12 -15
-14 -32 -4 -24 2 -43 21 -72 l25 -38 -26 -22 c-15 -11 -38 -29 -52 -39 -21
-14 -24 -23 -20 -47 13 -64 -18 -100 -87 -100 -47 0 -69 -16 -69 -50 l0 -30
169 0 c154 0 171 2 194 20 23 18 27 19 34 5 7 -12 13 -2 25 37 9 29 19 65 22
80 4 19 15 30 34 34 39 10 59 30 78 83 10 25 21 51 25 56 9 12 26 117 32 193
3 39 0 55 -9 59 -8 3 -14 17 -14 32 0 15 -5 32 -11 38 -7 7 -8 19 -4 30 5 10
7 26 6 36 -1 10 3 25 10 33 6 8 9 17 6 20 -3 3 1 20 8 37 19 47 50 294 61 492
9 143 17 125 38 -85 46 -436 44 -542 -9 -763 -14 -59 -22 -113 -18 -120 8 -13
63 196 93 358 25 132 29 147 39 140 8 -4 19 130 25 305 1 47 -1 127 -5 179 -6
59 -5 99 1 110 8 12 9 8 4 -14 -6 -29 -6 -29 9 -10 12 14 16 42 17 98 0 70 2
77 20 77 17 0 20 7 20 40 0 22 5 40 10 40 6 0 10 -18 10 -40 0 -38 2 -40 30
-40 28 0 30 -3 30 -36 0 -19 7 -42 15 -50 13 -14 15 -11 15 21 0 22 4 34 10
30 6 -4 9 -26 7 -50 -2 -24 0 -42 3 -40 7 4 16 85 24 220 4 50 3 60 -3 35 l-8
-35 -2 43 c0 24 3 41 8 38 34 -21 20 680 -19 909 -5 33 -17 112 -25 175 -9 63
-25 151 -36 194 -10 44 -17 88 -13 98 3 10 1 18 -5 18 -6 0 -11 18 -11 40 0
22 -4 40 -10 40 -5 0 -10 10 -10 23 l0 22 19 -25 c22 -28 73 -173 97 -278 10
-39 19 -70 21 -68 3 3 -18 134 -32 203 -6 27 -6 27 10 8 53 -65 135 -249 259
-583 26 -68 53 -136 61 -150 14 -27 14 -26 9 13 -7 49 -28 173 -54 320 -11 61
-20 153 -20 205 -1 89 -11 201 -26 279 -5 23 -2 36 7 43 11 7 11 11 2 15 -7 2
-13 16 -13 29 0 13 -5 24 -12 24 -9 0 -9 3 -1 11 11 11 10 23 -7 64 -26 63
-40 108 -40 125 0 11 -11 39 -25 62 -14 24 -40 72 -57 108 -76 161 -115 248
-128 280 -8 19 -29 61 -47 94 -18 32 -36 69 -39 83 -6 22 -4 24 15 18 36 -11
23 11 -16 29 -32 15 -45 32 -86 112 -26 52 -44 94 -40 94 5 0 28 -27 52 -60
24 -33 47 -60 51 -60 4 0 15 -15 24 -34 9 -18 25 -36 36 -39 23 -6 26 5 6 22
-8 7 -24 37 -36 69 -12 31 -27 71 -35 87 -7 17 -20 50 -29 74 -9 24 -28 58
-42 77 -14 18 -27 45 -29 60 -1 14 -7 29 -11 33 -5 3 -17 18 -27 33 -20 33
-86 108 -171 198 -55 58 -179 230 -214 295 -7 14 -17 25 -22 25 -5 0 -12 9
-15 20 -8 25 -22 26 -28 3 -3 -10 -5 -4 -6 13 -1 34 -34 73 -46 54z m195 -920
c0 -5 6 -10 14 -10 8 0 27 -5 43 -12 15 -6 34 -12 41 -14 7 -1 32 -11 56 -22
23 -11 66 -28 94 -37 29 -10 55 -21 58 -26 3 -5 15 -9 27 -9 15 0 18 -3 10
-11 -22 -22 93 -240 202 -379 19 -25 47 -62 61 -82 15 -21 31 -38 35 -38 5 0
9 -10 9 -22 0 -12 12 -35 27 -50 15 -15 21 -28 15 -28 -16 0 -60 37 -147 125
-39 38 -120 117 -181 175 -128 122 -231 233 -320 345 -61 76 -76 105 -54 105
6 0 10 -4 10 -10z m423 -159 c10 -11 7 -12 -13 -6 -33 10 -46 22 -20 20 11 -1
26 -7 33 -14z m-36 -2313 c-3 -7 -5 -2 -5 12 0 14 2 19 5 13 2 -7 2 -19 0 -25z
m200 -35 c-3 -10 -5 -2 -5 17 0 19 2 27 5 18 2 -10 2 -26 0 -35z m17 -178 c3
-22 2 -30 0 -17 -5 22 -18 29 -27 15 -2 -5 -2 -2 0 5 1 8 4 41 4 75 l2 62 8
-50 c5 -27 10 -68 13 -90z m-237 43 c-2 -18 -4 -6 -4 27 0 33 2 48 4 33 2 -15
2 -42 0 -60z m40 -65 c-3 -10 -5 -2 -5 17 0 19 2 27 5 18 2 -10 2 -26 0 -35z
m3 -94 c0 -23 -7 -47 -15 -55 -8 -9 -15 -11 -15 -5 0 5 5 13 11 17 6 3 9 24 7
45 -2 22 0 39 4 39 5 0 8 -18 8 -41z m-296 -721 c3 -13 6 -39 6 -59 0 -28 -5
-38 -24 -47 -18 -8 -22 -16 -19 -36 4 -21 10 -26 32 -24 24 3 26 0 26 -37 l0
-40 -47 -3 -48 -3 0 60 c0 35 -8 82 -19 111 l-19 50 42 24 c52 31 62 31 70 4z"/>
<path d="M1610 5188 c-8 -13 -15 -36 -15 -52 0 -16 -6 -30 -13 -32 -7 -1 -8 0
-2 3 13 6 13 33 0 33 -6 0 -16 -12 -22 -27 -7 -16 -17 -35 -24 -43 -19 -24
-26 -68 -11 -74 8 -3 7 -5 -3 -4 -38 5 -68 -32 -75 -93 -1 -9 -11 -27 -23 -40
-12 -13 -21 -28 -18 -34 4 -12 -21 -61 -46 -89 -10 -11 -18 -24 -18 -28 0 -5
-21 -31 -47 -59 -25 -27 -44 -51 -41 -54 5 -5 80 72 231 234 43 46 90 106 104
135 14 28 36 65 49 82 31 40 31 50 -1 19 -27 -28 -60 -33 -69 -9 -4 12 -1 14
14 9 14 -5 20 -2 20 10 0 8 9 41 20 72 23 66 22 63 12 63 -4 0 -14 -10 -22
-22z m-128 -300 c-7 -7 -12 -8 -12 -2 0 14 12 26 19 19 2 -3 -1 -11 -7 -17z
m-24 -32 c-7 -8 -15 -12 -17 -11 -5 6 10 25 20 25 5 0 4 -6 -3 -14z"/>
<path d="M1231 5143 c-7 -8 -11 -16 -8 -19 2 -2 10 2 17 11 17 20 9 27 -9 8z"/>
<path d="M1182 5070 c0 -14 2 -19 5 -12 2 6 2 18 0 25 -3 6 -5 1 -5 -13z"/>
<path d="M1973 5023 c-37 -54 -62 -124 -147 -423 -20 -68 -40 -127 -44 -131
-6 -5 -37 -15 -112 -34 -8 -2 -19 -4 -24 -4 -5 -1 -7 -4 -4 -7 3 -3 34 0 67 7
34 6 64 9 67 6 3 -3 -4 -52 -15 -108 -11 -57 -27 -142 -34 -189 -8 -47 -18
-94 -22 -105 -5 -16 -5 -17 4 -5 8 12 11 4 12 -35 0 -27 2 -61 3 -75 4 -33
-17 -47 -26 -17 l-6 22 -1 -22 c-1 -31 -12 -34 -72 -23 -44 9 -54 8 -62 -5 -4
-8 -15 -15 -22 -15 -8 0 -15 -4 -15 -10 0 -5 18 -10 40 -10 44 0 49 -6 23 -27
-13 -11 -10 -10 9 1 52 31 138 9 138 -35 0 -10 5 -21 11 -25 8 -5 10 3 7 24
-4 31 12 49 32 37 10 -6 129 41 145 57 15 15 -86 -1 -112 -18 -12 -8 -31 -14
-42 -14 -20 0 -23 10 -37 131 -9 85 35 342 80 467 7 21 24 72 36 115 13 42 27
77 30 77 7 0 13 -25 44 -185 9 -44 25 -111 36 -150 12 -38 26 -90 32 -115 6
-25 14 -47 17 -50 4 -3 13 -25 20 -48 7 -24 15 -41 18 -38 3 3 1 18 -5 33 -17
46 -26 110 -12 97 15 -15 42 -134 35 -153 -5 -12 -3 -13 5 -4 9 8 8 28 -4 81
-18 82 -14 111 12 83 9 -9 26 -34 37 -55 10 -21 21 -33 23 -27 4 11 -35 81
-51 92 -5 4 -11 31 -12 60 -1 30 -10 67 -18 84 -20 35 -41 131 -34 149 3 8 1
18 -4 23 -28 28 -49 416 -26 501 11 44 4 50 -20 15z m52 -790 c4 -29 3 -43 -4
-43 -6 0 -11 18 -11 40 0 26 -5 43 -15 46 -11 5 -12 9 -2 19 14 15 21 3 32
-62z m45 37 c0 -5 -2 -10 -4 -10 -3 0 -8 5 -11 10 -3 6 -1 10 4 10 6 0 11 -4
11 -10z m-73 -32 c-3 -8 -6 -5 -6 6 -1 11 2 17 5 13 3 -3 4 -12 1 -19z"/>
<path d="M1147 4994 c-4 -4 -7 -14 -7 -23 0 -11 3 -12 11 -4 6 6 10 16 7 23
-2 6 -7 8 -11 4z"/>
<path d="M1110 4965 c-7 -9 -8 -15 -2 -15 5 0 12 7 16 15 3 8 4 15 2 15 -2 0
-9 -7 -16 -15z"/>
<path d="M1072 4908 c-6 -13 -14 -34 -17 -48 -5 -18 0 -14 19 15 14 22 26 43
26 48 0 15 -17 6 -28 -15z"/>
<path d="M2660 4892 c0 -5 10 -14 23 -21 40 -21 187 -119 197 -132 3 -4 30
-21 60 -40 30 -18 57 -37 58 -41 5 -11 22 -10 22 1 0 5 -15 16 -32 25 -42 22
-74 45 -171 124 -97 80 -157 112 -157 84z"/>
<path d="M1087 4866 c-4 -10 -5 -21 -2 -24 9 -9 17 6 13 25 -3 17 -4 17 -11
-1z"/>
<path d="M1063 4814 c-3 -8 -1 -20 6 -27 8 -8 11 -4 11 16 0 30 -7 35 -17 11z"/>
<path d="M1034 4782 c3 -19 7 -36 10 -40 9 -9 6 31 -5 53 -7 16 -8 13 -5 -13z"/>
<path d="M2101 4578 c-1 -128 13 -243 39 -317 11 -30 16 -59 13 -64 -3 -6 -1
-7 5 -3 6 4 17 -9 27 -31 9 -21 24 -56 34 -78 10 -22 23 -51 29 -65 11 -24 11
-24 5 5 -3 17 -11 44 -19 60 -7 17 -25 66 -39 110 -14 44 -31 89 -36 100 -5
11 -20 103 -33 205 l-24 185 -1 -107z"/>
<path d="M3360 4640 c0 -5 5 -10 11 -10 5 0 7 5 4 10 -3 6 -8 10 -11 10 -2 0
-4 -4 -4 -10z"/>
<path d="M3400 4608 c0 -2 9 -11 20 -21 11 -9 20 -13 20 -7 0 5 -9 14 -20 20
-11 6 -20 9 -20 8z"/>
<path d="M3460 4560 c0 -5 5 -10 11 -10 5 0 7 5 4 10 -3 6 -8 10 -11 10 -2 0
-4 -4 -4 -10z"/>
<path d="M3580 4461 c0 -5 7 -11 14 -14 10 -4 13 -1 9 9 -6 15 -23 19 -23 5z"/>
<path d="M1621 4414 c0 -11 3 -14 6 -6 3 7 2 16 -1 19 -3 4 -6 -2 -5 -13z"/>
<path d="M3645 4414 c11 -8 30 -24 42 -34 13 -11 35 -22 50 -25 l28 -5 -27 11
c-16 6 -28 15 -28 20 0 5 -5 9 -10 9 -6 0 -20 9 -32 20 -12 11 -27 20 -32 20
-6 0 -2 -7 9 -16z"/>
<path d="M3146 4401 c5 -5 23 -12 39 -16 l30 -6 -25 15 c-28 17 -60 22 -44 7z"/>
<path d="M1375 4283 c-23 -77 -16 -293 13 -403 5 -20 6 -44 2 -55 -6 -16 -13
-8 -38 45 -19 40 -29 53 -25 35 9 -52 52 -168 63 -175 7 -4 11 -10 11 -14 -2
-17 0 -24 18 -43 10 -11 22 -29 25 -39 3 -10 3 -1 1 20 -2 22 -8 42 -13 45 -5
3 -12 24 -16 46 l-7 40 14 -30 c37 -78 49 -115 44 -130 -5 -13 -3 -14 13 -5
31 16 31 25 4 84 -14 31 -23 60 -20 65 3 5 -1 14 -9 21 -8 7 -12 17 -9 22 4 5
2 20 -4 31 -40 82 -47 132 -47 315 0 100 -1 182 -2 182 -1 0 -9 -26 -18 -57z"/>
<path d="M1632 4260 c0 -14 2 -19 5 -12 2 6 2 18 0 25 -3 6 -5 1 -5 -13z"/>
<path d="M1653 4125 c3 -33 11 -61 16 -63 6 -2 8 -15 5 -30 -3 -15 -1 -38 5
-52 8 -20 9 -14 6 30 -5 62 -24 162 -32 170 -3 3 -3 -22 0 -55z"/>
<path d="M2861 4170 c0 -8 4 -22 9 -30 12 -18 12 -2 0 25 -6 13 -9 15 -9 5z"/>
<path d="M4118 4123 c7 -3 16 -2 19 1 4 3 -2 6 -13 5 -11 0 -14 -3 -6 -6z"/>
<path d="M2991 4013 c0 -4 4 -17 9 -28 8 -19 9 -19 9 2 1 12 -3 25 -9 28 -5 3
-10 3 -9 -2z"/>
<path d="M1702 3990 c0 -14 2 -19 5 -12 2 6 2 18 0 25 -3 6 -5 1 -5 -13z"/>
<path d="M2273 3951 c-1 -10 9 -29 23 -42 29 -28 31 -17 3 27 -24 40 -24 40
-26 15z"/>
<path d="M2980 3951 c0 -6 4 -13 10 -16 6 -3 7 1 4 9 -7 18 -14 21 -14 7z"/>
<path d="M934 3630 c0 -102 -3 -207 -7 -233 -4 -27 -16 -112 -27 -190 -11 -78
-30 -180 -41 -227 -35 -150 -71 -284 -85 -320 -7 -19 -21 -64 -29 -100 -9 -36
-33 -116 -53 -177 -33 -102 -35 -114 -21 -128 16 -16 26 -4 117 140 21 34 86
176 97 213 4 13 16 27 28 31 15 6 25 25 38 82 10 41 18 85 19 99 0 14 9 53 20
87 10 34 22 86 26 115 4 29 14 69 22 88 13 33 15 33 28 15 14 -18 14 -18 14 1
0 11 -4 24 -8 30 -19 21 -116 390 -106 405 2 4 -1 20 -7 36 -6 15 -14 71 -18
123 -7 80 -8 66 -7 -90z m-234 -1344 c0 -3 -4 -8 -10 -11 -5 -3 -10 -1 -10 4
0 6 5 11 10 11 6 0 10 -2 10 -4z"/>
<path d="M1570 3645 c0 -3 9 -16 21 -28 l21 -22 -13 28 c-11 23 -29 37 -29 22z"/>
<path d="M690 3617 c0 -7 -9 -30 -20 -52 -11 -22 -20 -46 -20 -55 0 -9 -4 -20
-9 -25 -5 -6 -12 -32 -15 -60 l-6 -50 16 30 c10 17 23 35 29 40 7 6 19 45 29
88 19 91 19 97 6 97 -5 0 -10 -6 -10 -13z"/>
<path d="M1627 3550 c6 -23 33 -49 33 -31 0 6 -4 11 -10 11 -5 0 -10 6 -10 14
0 8 -4 17 -9 20 -5 4 -7 -3 -4 -14z"/>
<path d="M3115 3268 c-4 -13 -17 -36 -29 -53 -31 -42 -37 -62 -20 -69 8 -3 14
-12 14 -21 0 -16 15 -20 24 -6 8 13 28 162 23 168 -3 2 -8 -6 -12 -19z"/>
<path d="M872 3245 c0 -16 2 -22 5 -12 2 9 2 23 0 30 -3 6 -5 -1 -5 -18z"/>
<path d="M3041 3114 c0 -11 3 -14 6 -6 3 7 2 16 -1 19 -3 4 -6 -2 -5 -13z"/>
<path d="M1745 3110 c-3 -5 -2 -10 4 -10 5 0 13 5 16 10 3 6 2 10 -4 10 -5 0
-13 -4 -16 -10z"/>
<path d="M2985 3100 c-10 -11 -15 -20 -11 -20 4 0 16 9 28 20 12 11 17 20 11
20 -5 0 -18 -9 -28 -20z"/>
<path d="M2938 3063 c-23 -6 -23 -19 -1 -27 10 -4 14 -4 10 0 -4 4 -2 13 4 21
6 7 10 12 8 12 -2 -1 -12 -3 -21 -6z"/>
<path d="M2842 3016 c-18 -13 -28 -26 -22 -28 7 -2 15 -31 19 -63 l7 -60 13
60 c8 33 14 65 15 72 1 7 5 16 9 19 9 10 9 24 0 24 -5 -1 -23 -12 -41 -24z"/>
<path d="M1661 3010 c-13 -11 -20 -20 -17 -20 10 0 66 30 66 35 0 11 -27 3
-49 -15z"/>
<path d="M2910 3010 c0 -5 7 -10 16 -10 8 0 12 5 9 10 -3 6 -10 10 -16 10 -5
0 -9 -4 -9 -10z"/>
<path d="M1965 2958 c3 -18 12 -55 20 -83 8 -27 17 -81 21 -120 12 -123 24
-117 18 10 -6 121 -17 190 -36 213 -18 22 -28 13 -23 -20z"/>
<path d="M2904 2977 c-3 -9 -4 -24 -2 -34 3 -16 5 -15 17 6 9 16 10 26 2 34
-7 7 -12 6 -17 -6z"/>
<path d="M3117 2881 c-4 -17 -3 -21 5 -13 5 5 8 16 6 23 -3 8 -7 3 -11 -10z"/>
<path d="M4211 2854 c0 -11 3 -14 6 -6 3 7 2 16 -1 19 -3 4 -6 -2 -5 -13z"/>
<path d="M4237 2725 c3 -27 9 -54 14 -60 10 -10 2 39 -12 85 -5 16 -6 6 -2
-25z"/>
<path d="M2775 2609 c-4 -6 -5 -12 -2 -15 2 -3 7 2 10 11 7 17 1 20 -8 4z"/>
<path d="M4262 2585 c0 -22 4 -51 8 -65 7 -23 8 -22 8 10 0 19 -4 49 -8 65 -7
29 -8 28 -8 -10z"/>
<path d="M3006 2584 c-4 -14 -5 -28 -3 -31 3 -2 8 8 11 23 4 14 5 28 3 31 -3
2 -8 -8 -11 -23z"/>
<path d="M2969 2513 c-22 -46 -22 -50 1 -15 13 18 20 35 18 37 -3 3 -11 -7
-19 -22z"/>
<path d="M2660 2459 c0 -5 5 -7 10 -4 6 3 10 8 10 11 0 2 -4 4 -10 4 -5 0 -10
-5 -10 -11z"/>
<path d="M4280 2404 c0 -8 5 -12 10 -9 6 4 8 11 5 16 -9 14 -15 11 -15 -7z"/>
<path d="M4290 2363 c0 -10 5 -25 10 -33 7 -11 10 -7 10 18 0 17 -4 32 -10 32
-5 0 -10 -8 -10 -17z"/>
<path d="M2130 2283 c0 -10 4 -14 8 -8 4 6 11 13 16 18 5 4 2 7 -7 7 -10 0
-17 -8 -17 -17z"/>
<path d="M2595 2270 c-3 -6 1 -7 9 -4 18 7 21 14 7 14 -6 0 -13 -4 -16 -10z"/>
<path d="M4311 2264 c0 -11 3 -14 6 -6 3 7 2 16 -1 19 -3 4 -6 -2 -5 -13z"/>
<path d="M2130 2233 c0 -33 -29 -63 -61 -63 -17 0 -29 -5 -29 -13 0 -19 127
-144 161 -158 16 -6 28 -17 26 -23 -1 -6 -39 -29 -84 -51 -45 -22 -123 -73
-175 -113 -105 -82 -257 -224 -282 -264 -32 -50 5 -138 52 -124 10 4 55 46 98
94 43 48 117 125 163 172 80 82 83 84 94 62 8 -17 7 -26 -3 -35 -10 -10 -11
-9 -5 2 5 9 4 12 -3 7 -14 -8 -4 -36 11 -33 7 1 13 -10 15 -25 2 -16 7 -28 12
-28 22 0 13 -41 -25 -115 -81 -158 -128 -216 -228 -280 -28 -18 -29 -18 -54
11 -77 91 -133 143 -133 125 0 -22 25 -55 101 -134 56 -58 76 -64 104 -33 17
19 49 42 44 31 -29 -54 -91 -205 -112 -270 -53 -162 -69 -217 -65 -220 2 -2
19 35 38 83 41 104 47 114 43 64 l-3 -37 17 43 c18 45 39 58 29 18 -7 -27 11
-47 24 -27 4 7 5 24 4 39 -3 23 -2 23 8 -5 7 -21 17 -33 29 -33 13 0 20 -8 21
-22 0 -13 2 -27 3 -33 2 -5 4 -14 5 -20 1 -5 14 37 29 95 16 58 43 150 60 205
44 135 61 192 72 240 4 22 18 65 30 95 11 30 24 71 28 90 4 19 32 85 61 147
50 104 56 112 89 121 50 12 90 -6 108 -49 46 -105 113 -282 113 -296 0 -9 11
-28 24 -42 27 -29 45 -81 27 -81 -14 0 -51 -41 -45 -51 2 -4 -3 -25 -12 -46
-45 -102 -43 -93 -23 -140 10 -25 19 -51 19 -58 0 -8 13 -29 29 -47 15 -18 33
-42 39 -54 10 -19 19 -21 104 -19 l92 2 8 31 c5 18 13 32 18 32 6 0 10 10 11
23 0 17 2 18 7 6 4 -9 40 -52 81 -94 71 -75 74 -77 67 -44 -3 19 -26 97 -51
174 -25 76 -45 142 -45 146 0 4 23 24 52 45 28 21 46 40 41 41 -18 6 -143 -59
-164 -85 -15 -19 -18 -33 -13 -60 10 -54 -17 -35 -31 22 -7 27 -18 52 -25 56
-18 11 -4 44 15 36 25 -9 17 10 -9 22 -14 6 -33 24 -43 39 -10 15 -20 30 -23
33 -9 8 -107 212 -115 238 -7 26 19 32 29 6 3 -8 10 -12 16 -9 5 3 10 1 10 -4
0 -6 5 -11 10 -11 10 0 8 6 -19 58 -6 12 -8 34 -5 49 5 17 3 24 -4 19 -6 -3
-13 -2 -17 4 -3 5 -1 10 5 10 6 0 8 5 4 11 -4 7 -1 10 7 7 18 -6 130 -140 249
-299 27 -37 62 -75 77 -84 26 -18 27 -17 53 12 15 17 30 47 34 67 6 32 2 45
-25 89 -47 75 -84 112 -174 171 -44 30 -93 65 -109 80 -15 15 -43 37 -61 49
-56 38 -160 119 -163 126 -2 6 115 101 157 126 38 23 91 68 91 77 0 6 -9 7
-22 3 -51 -16 -63 -12 -68 24 -3 19 -11 36 -17 39 -7 2 -53 -37 -101 -87 -49
-50 -95 -91 -103 -91 -18 0 -92 39 -101 54 -4 6 -8 -1 -8 -15 0 -27 -16 -39
-50 -39 -20 0 -75 71 -114 149 -28 55 -46 72 -46 44z m331 -240 c0 -10 2 -31
3 -48 3 -29 -37 -115 -53 -115 -8 0 -122 67 -135 80 -5 5 -5 20 2 37 5 15 13
36 16 46 4 14 18 17 86 17 69 0 80 -2 81 -17z m-257 -148 c-4 -8 -10 -12 -15
-9 -11 6 -2 24 11 24 5 0 7 -7 4 -15z m-24 -34 c0 -10 -7 -21 -15 -25 -8 -3
-15 0 -15 7 0 8 -3 8 -9 -2 -5 -7 -6 -22 -4 -32 3 -10 1 -19 -5 -19 -13 0 -24
44 -16 65 4 9 13 14 20 11 8 -3 14 -1 14 4 0 6 7 10 15 10 8 0 15 -9 15 -19z
m30 -64 c0 -18 -34 -66 -42 -60 -7 4 -9 0 -5 -10 8 -21 -6 -22 -23 -2 -10 12
-9 16 4 21 9 3 13 10 10 15 -3 5 1 9 9 9 8 0 17 7 21 15 4 13 26 22 26 12z
m445 -417 c3 -5 15 -10 25 -10 10 0 32 -11 47 -25 l28 -24 -27 -23 c-35 -30
-75 -114 -92 -191 -14 -60 -14 -61 -15 -20 -1 34 -5 43 -23 49 -54 16 -73 60
-44 99 14 19 15 19 38 -6 25 -27 27 -52 2 -42 -20 8 -17 -10 6 -29 19 -17 20
-16 30 22 11 41 42 102 67 132 18 21 8 27 -57 35 -48 6 -50 7 -34 24 19 21 39
24 49 9z m-614 -173 c-10 -9 -11 -8 -5 6 3 10 9 15 12 12 3 -3 0 -11 -7 -18z
m736 -87 c40 0 44 -2 32 -16 -12 -15 -65 -14 -121 2 -32 9 -20 27 13 20 17 -3
52 -6 76 -6z"/>
<path d="M1440 2062 c0 -5 7 -15 15 -22 8 -7 15 -8 15 -2 0 5 -7 15 -15 22 -8
7 -15 8 -15 2z"/>
<path d="M3398 2064 c-5 -4 -8 -21 -8 -38 1 -26 2 -28 11 -13 11 19 8 63 -3
51z"/>
<path d="M1037 1972 c-3 -4 -8 -35 -12 -69 -4 -36 -15 -73 -25 -86 -10 -13
-23 -52 -28 -88 -11 -74 -16 -93 -31 -132 -6 -16 -11 -43 -11 -60 l0 -32 20
32 c11 18 21 50 22 72 2 21 6 37 11 34 4 -2 8 15 9 39 l1 43 4 -38 c3 -22 -5
-66 -16 -102 -22 -68 -27 -107 -9 -65 10 22 12 22 15 7 3 -11 -4 -29 -15 -40
-27 -31 -39 -52 -22 -42 15 9 6 -43 -16 -92 -18 -40 -29 -43 -19 -6 4 16 3 24
-1 20 -4 -4 -9 -31 -9 -60 -1 -28 -5 -61 -9 -72 -4 -11 7 7 23 40 16 33 30 65
30 71 1 5 17 50 37 100 46 113 67 194 47 187 -8 -3 -13 3 -13 17 0 19 3 20 15
10 21 -17 29 -8 61 65 16 36 32 65 35 65 4 0 4 15 -1 33 -5 17 -13 50 -19 73
-10 38 -64 94 -74 76z m50 -224 c-3 -8 -6 -5 -6 6 -1 11 2 17 5 13 3 -3 4 -12
1 -19z m-17 -47 c0 -6 -4 -13 -10 -16 -5 -3 -10 1 -10 9 0 9 5 16 10 16 6 0
10 -4 10 -9z m-58 -118 c-3 -16 -7 -22 -10 -15 -4 13 4 42 11 42 2 0 2 -12 -1
-27z m-52 -13 c0 -5 -4 -10 -10 -10 -5 0 -10 5 -10 10 0 6 5 10 10 10 6 0 10
-4 10 -10z"/>
<path d="M3381 1873 c-1 -17 -5 -35 -11 -38 -5 -3 -9 -27 -9 -53 1 -26 3 -38
5 -27 2 11 9 43 15 71 7 28 9 58 6 65 -3 8 -6 0 -6 -18z"/>
<path d="M1150 1613 c-7 -38 -16 -70 -20 -73 -12 -9 -39 -120 -30 -125 4 -3
11 6 14 20 4 14 11 25 16 25 15 0 12 -16 -10 -55 -11 -20 -20 -40 -20 -45 0
-17 18 -11 23 8 3 9 5 2 6 -15 1 -42 16 -42 30 -1 6 17 13 29 16 26 3 -3 2
-16 -3 -29 -10 -28 -4 -62 9 -54 5 4 9 15 9 26 0 10 5 19 11 19 16 0 3 -72
-21 -121 -11 -21 -23 -39 -26 -39 -3 0 -10 14 -15 30 -11 31 -49 43 -49 15 0
-18 -17 -20 -23 -2 -2 6 -8 9 -12 5 -11 -10 4 -60 15 -53 6 4 17 -1 26 -10 13
-12 15 -30 12 -78 -4 -58 -15 -90 -73 -212 -13 -27 -31 -67 -39 -87 -9 -20
-21 -40 -26 -43 -6 -3 -10 -15 -10 -25 0 -10 -7 -25 -15 -34 -8 -8 -15 -18
-15 -21 0 -4 -23 -48 -52 -99 -28 -50 -59 -106 -69 -124 -10 -17 -15 -32 -11
-32 19 0 203 245 279 370 128 210 175 271 160 208 -3 -13 -13 -59 -22 -103 -9
-44 -19 -89 -22 -99 -4 -15 -2 -18 12 -12 10 3 23 2 30 -4 9 -8 16 -2 25 20
16 39 50 60 50 31 0 -11 -3 -22 -7 -24 -5 -3 -30 -48 -58 -101 -28 -54 -52
-90 -56 -84 -4 6 -5 17 -2 25 3 7 -2 13 -11 13 -9 0 -16 -8 -16 -20 0 -12 -8
-33 -17 -47 -19 -29 -34 -67 -60 -148 -8 -27 -19 -54 -23 -60 -4 -5 -9 -39
-10 -75 -4 -87 0 -188 7 -172 2 6 9 9 15 6 5 -4 4 -12 -5 -22 -22 -26 -28 -52
-13 -52 12 0 23 19 40 73 8 24 52 22 80 -6 12 -12 33 -46 47 -74 24 -51 58
-76 44 -32 -5 15 -4 19 4 15 6 -4 11 -14 11 -22 0 -23 28 -16 33 8 l4 23 2
-22 1 -23 217 0 c209 0 216 1 200 18 -10 10 -17 28 -17 41 0 20 -2 21 -27 8
-45 -22 -60 -12 -67 45 -5 38 -12 51 -26 55 -24 6 -25 19 -5 39 12 13 11 21
-14 63 -36 61 -67 130 -76 170 -4 20 -13 31 -23 31 -28 0 -82 38 -82 57 0 10
7 27 15 37 23 30 18 69 -10 96 -35 33 -31 54 15 91 22 18 39 39 38 48 -2 8 9
21 25 29 30 14 36 46 14 76 -10 14 -17 15 -40 7 -36 -14 -37 -14 -37 3 0 8 13
20 29 27 l29 13 -19 24 c-10 14 -19 28 -19 32 0 5 -17 37 -38 71 -86 142 -107
197 -109 288 -2 76 -4 86 -29 112 -15 16 -34 29 -41 29 -8 0 -13 12 -13 28 0
52 -12 104 -21 90 -6 -8 -9 -2 -9 20 0 54 -16 36 -30 -35z m30 -63 c0 -4 -9
-15 -20 -25 -11 -10 -20 -13 -20 -7 0 6 5 14 11 17 6 4 8 13 5 21 -3 8 0 11
10 7 7 -3 14 -8 14 -13z m-5 -59 c-3 -6 -11 -11 -17 -11 -6 0 -6 6 2 15 14 17
26 13 15 -4z m75 -47 c0 -8 -4 -12 -10 -9 -5 3 -10 10 -10 16 0 5 5 9 10 9 6
0 10 -7 10 -16z m-33 -86 c-3 -8 -6 -5 -6 6 -1 11 2 17 5 13 3 -3 4 -12 1 -19z
m-75 -198 c13 0 9 -35 -7 -56 -14 -18 -15 -18 -15 11 1 17 -2 46 -4 65 -5 34
-5 35 6 8 7 -16 15 -28 20 -28z m358 -767 c8 -27 24 -70 37 -98 29 -63 30 -95
3 -95 -32 0 -53 43 -47 96 4 43 4 45 -29 59 -47 20 -54 43 -20 72 15 13 31 21
35 18 5 -2 14 -26 21 -52z m-170 -190 c0 -5 -20 -21 -45 -36 -25 -16 -45 -32
-45 -37 0 -16 -32 -20 -46 -6 -24 24 -16 33 49 59 66 27 87 31 87 20z"/>
<path d="M2640 1668 c0 -9 5 -20 11 -23 17 -11 20 0 4 21 -13 17 -14 17 -15 2z"/>
<path d="M1491 1644 c0 -11 3 -14 6 -6 3 7 2 16 -1 19 -3 4 -6 -2 -5 -13z"/>
<path d="M2670 1621 c0 -5 7 -12 16 -15 14 -5 15 -4 4 9 -14 17 -20 19 -20 6z"/>
<path d="M895 1401 c-3 -5 -1 -12 5 -16 5 -3 10 1 10 9 0 18 -6 21 -15 7z"/>
<path d="M4181 1384 c0 -11 3 -14 6 -6 3 7 2 16 -1 19 -3 4 -6 -2 -5 -13z"/>
<path d="M1071 1380 c-1 -8 -4 -26 -7 -40 -5 -22 -4 -23 6 -7 6 10 9 28 7 40
-2 12 -5 15 -6 7z"/>
<path d="M1096 1324 c-4 -11 -2 -20 3 -22 6 -2 11 -12 11 -22 0 -10 5 -22 10
-25 13 -8 12 2 -4 48 -11 32 -14 35 -20 21z"/>
<path d="M866 1284 c-4 -9 -4 -19 -1 -22 2 -3 7 3 11 12 4 9 4 19 1 22 -2 3
-7 -3 -11 -12z"/>
<path d="M1072 1278 c2 -6 10 -14 16 -16 7 -2 10 2 6 12 -7 18 -28 22 -22 4z"/>
<path d="M1158 1274 c-5 -4 -8 -21 -7 -38 0 -30 0 -30 10 -7 11 27 8 57 -3 45z"/>
<path d="M1545 1270 c-3 -5 -1 -10 4 -10 6 0 11 5 11 10 0 6 -2 10 -4 10 -3 0
-8 -4 -11 -10z"/>
<path d="M4113 1243 c-16 -6 -17 -39 -1 -49 8 -5 9 -2 5 11 -4 9 -2 24 4 31
12 15 11 15 -8 7z"/>
<path d="M4141 1224 c0 -11 3 -14 6 -6 3 7 2 16 -1 19 -3 4 -6 -2 -5 -13z"/>
<path d="M1540 1220 c0 -5 5 -10 11 -10 5 0 7 5 4 10 -3 6 -8 10 -11 10 -2 0
-4 -4 -4 -10z"/>
<path d="M4131 1154 c0 -11 3 -14 6 -6 3 7 2 16 -1 19 -3 4 -6 -2 -5 -13z"/>
<path d="M4085 1141 c-3 -5 -1 -12 5 -16 5 -3 10 1 10 9 0 18 -6 21 -15 7z"/>
<path d="M3292 1103 c-10 -34 -10 -36 3 -19 13 17 21 56 12 56 -2 0 -9 -17
-15 -37z"/>
<path d="M4121 1106 c-1 -12 -6 -16 -16 -13 -8 4 -17 2 -20 -3 -4 -6 -15 -10
-26 -10 -27 0 -24 -23 6 -37 22 -10 25 -9 25 7 0 11 5 22 10 25 6 3 10 1 10
-6 0 -9 3 -10 11 -2 6 6 9 21 6 34 -3 17 -5 18 -6 5z"/>
<path d="M1031 1094 c0 -11 3 -14 6 -6 3 7 2 16 -1 19 -3 4 -6 -2 -5 -13z"/>
<path d="M1594 1055 c3 -22 6 -54 6 -72 0 -25 4 -31 15 -27 17 7 20 49 5 59
-5 3 -10 16 -10 28 0 12 -5 29 -11 37 -8 11 -9 5 -5 -25z"/>
<path d="M1070 1064 c0 -8 5 -12 10 -9 6 3 10 10 10 16 0 5 -4 9 -10 9 -5 0
-10 -7 -10 -16z"/>
<path d="M801 1034 c0 -11 3 -14 6 -6 3 7 2 16 -1 19 -3 4 -6 -2 -5 -13z"/>
<path d="M2846 984 c-9 -24 -2 -26 12 -4 7 11 8 20 3 20 -5 0 -12 -7 -15 -16z"/>
<path d="M3250 949 c0 -26 3 -29 14 -20 8 7 12 21 9 31 -8 31 -23 23 -23 -11z"/>
<path d="M1576 933 c-4 -9 -2 -21 4 -27 7 -7 10 -2 10 17 0 31 -5 34 -14 10z"/>
<path d="M3981 754 c0 -11 3 -14 6 -6 3 7 2 16 -1 19 -3 4 -6 -2 -5 -13z"/>
<path d="M2801 745 c0 -11 6 -31 14 -45 18 -32 19 -5 0 35 -10 23 -13 25 -14
10z"/>
<path d="M3983 675 c0 -27 2 -38 4 -22 2 15 2 37 0 50 -2 12 -4 0 -4 -28z"/>
<path d="M2862 525 c0 -16 2 -22 5 -12 2 9 2 23 0 30 -3 6 -5 -1 -5 -18z"/>
<path d="M3800 220 c-1 -8 -2 -19 -1 -24 1 -5 -3 -12 -10 -16 -6 -4 -9 -14 -7
-21 7 -22 30 28 25 54 -2 12 -5 15 -7 7z"/>
<path d="M3766 125 c-9 -26 -7 -32 5 -12 6 10 9 21 6 23 -2 3 -7 -2 -11 -11z"/>
</g>
</svg>
