<?xml version="1.0" standalone="no"?>
<!DOCTYPE svg PUBLIC "-//W3C//DTD SVG 20010904//EN"
 "http://www.w3.org/TR/2001/REC-SVG-20010904/DTD/svg10.dtd">
<svg version="1.0" xmlns="http://www.w3.org/2000/svg"
 width="324.000000pt" height="487.000000pt" viewBox="0 0 324.000000 487.000000"
 preserveAspectRatio="xMidYMid meet">

<g transform="translate(0.000000,487.000000) scale(0.100000,-0.100000)"
fill="#000000" stroke="none">
<path d="M812 4850 c-23 -22 -30 -36 -11 -24 8 4 9 -1 4 -17 -4 -13 -14 -28
-22 -32 -8 -5 -11 -16 -8 -25 6 -21 -73 -115 -115 -137 -15 -8 -44 -37 -64
-66 l-37 -51 33 7 c18 3 42 8 53 11 11 2 2 -5 -20 -16 -22 -11 -47 -20 -55
-20 -9 0 -45 -30 -80 -66 -36 -36 -91 -81 -122 -100 -32 -20 -58 -37 -58 -39
0 -4 99 32 167 60 52 22 53 19 3 -26 l-45 -41 120 63 c97 50 115 57 96 36 -31
-34 -20 -35 23 -2 18 14 38 25 45 25 20 0 -9 -35 -45 -55 -25 -13 -31 -21 -24
-30 7 -8 5 -26 -5 -55 -8 -23 -15 -45 -15 -49 1 -10 60 88 60 99 0 15 20 12
20 -2 0 -7 8 -1 18 15 25 41 34 33 30 -28 -3 -51 -2 -54 17 -49 27 9 95 56
123 87 20 21 65 125 92 210 11 33 -7 37 -19 4 -19 -49 -181 -247 -181 -221 0
22 81 250 112 312 32 66 104 180 133 209 20 19 45 10 45 -17 0 -14 7 -20 23
-20 14 0 18 -3 10 -8 -7 -4 -13 -23 -14 -42 -1 -33 -14 -67 -59 -165 -11 -22
-35 -76 -55 -120 -30 -69 -32 -76 -12 -54 13 14 45 75 71 135 26 60 54 113 62
117 8 4 14 18 14 30 1 21 1 21 16 -3 l15 -25 -5 35 -5 35 14 -26 c13 -24 13
-31 -1 -58 -9 -17 -19 -29 -23 -26 -5 2 -6 -6 -4 -20 3 -13 -14 -90 -38 -172
l-42 -148 -5 -255 c-6 -284 -10 -284 -43 0 -17 151 -19 200 -11 270 5 47 13
94 18 105 7 20 7 20 -14 1 -12 -10 -36 -40 -54 -67 -18 -27 -37 -49 -41 -49
-4 0 -39 -19 -77 -41 -67 -40 -69 -43 -75 -88 -4 -25 -9 -58 -11 -73 -5 -22
-2 -27 10 -22 14 5 14 1 2 -40 -8 -25 -12 -46 -10 -46 10 0 62 95 100 184 23
55 49 103 58 108 8 5 -23 -72 -70 -169 -75 -156 -82 -174 -55 -149 29 28 31
28 31 9 0 -12 5 -23 11 -25 6 -2 2 -14 -10 -29 -18 -23 -18 -26 -3 -26 9 0 20
5 24 11 4 6 9 -11 10 -39 6 -145 8 -156 24 -100 8 28 18 73 23 100 7 40 9 44
10 18 0 -18 5 -33 11 -33 5 0 7 -7 3 -16 -14 -37 23 -5 49 42 15 27 28 44 28
38 0 -16 -45 -146 -64 -182 -20 -38 -20 -46 -1 -38 8 3 15 0 15 -7 1 -7 8 1
17 18 9 16 16 44 15 62 -2 47 15 50 23 3 7 -40 23 -64 47 -72 9 -3 13 -33 14
-104 1 -240 4 -304 15 -304 7 0 9 37 7 110 -2 61 0 110 5 110 35 0 34 -176 -1
-232 -24 -38 -30 -61 -9 -37 6 9 36 32 64 52 50 35 53 36 63 17 5 -10 10 -40
10 -67 l1 -48 14 39 c16 46 12 59 -61 172 -66 101 -97 161 -91 171 3 5 7 50 8
101 3 90 3 91 21 72 27 -29 31 -25 12 13 -26 49 -44 126 -44 186 0 65 20 181
32 181 4 0 8 46 8 103 0 111 17 256 33 272 6 7 7 1 3 -15 -13 -47 -20 -300 -8
-300 6 0 9 7 6 15 -4 8 0 22 7 31 9 10 14 55 16 132 4 138 30 299 46 283 17
-17 27 -13 27 9 0 11 4 20 10 20 13 0 24 -64 16 -95 -7 -27 8 -35 18 -10 3 8
12 15 21 15 9 0 15 9 15 26 0 16 -4 23 -12 18 -6 -4 -8 -3 -5 3 6 9 -1 61 -25
191 l-9 52 -120 0 c-80 0 -119 -4 -119 -11 0 -6 -13 -28 -30 -49 -16 -21 -30
-41 -30 -45 0 -3 -18 -32 -40 -62 -22 -31 -40 -52 -40 -47 0 15 78 153 100
176 11 12 20 25 20 30 0 4 -37 8 -83 8 -70 0 -87 -3 -105 -20z m85 -932 c-3
-8 -6 -5 -6 6 -1 11 2 17 5 13 3 -3 4 -12 1 -19z"/>
<path d="M1280 4864 c0 -3 11 -52 24 -108 13 -55 27 -119 31 -141 l8 -40 22
70 22 70 7 -73 c5 -41 12 -86 16 -100 8 -24 8 -23 9 13 2 65 18 22 26 -69 4
-45 11 -90 16 -101 l8 -20 1 20 c1 11 11 -9 23 -45 19 -56 62 -140 72 -140 1
0 -12 44 -31 97 -39 111 -42 133 -18 109 22 -22 27 -20 22 9 -8 39 8 39 31 0
21 -36 130 -175 137 -175 4 0 -3 16 -45 102 -33 67 -40 121 -8 63 28 -52 18
-20 -27 87 -49 117 -70 177 -63 184 2 3 15 -21 27 -53 32 -81 155 -334 174
-358 16 -19 16 -18 10 20 -4 22 -11 51 -16 65 -6 14 -12 36 -15 50 -2 14 -11
59 -19 100 -17 91 -18 124 -3 114 6 -3 15 0 20 7 6 10 11 6 20 -18 6 -18 15
-33 20 -33 5 0 9 15 10 33 l1 32 10 -35 c6 -19 16 -53 23 -75 l13 -40 1 45 c1
25 6 52 11 60 7 11 10 11 10 2 0 -23 20 -2 20 21 0 17 2 19 9 8 15 -24 40 9
34 45 -4 19 17 -7 60 -78 37 -59 75 -120 85 -135 10 -16 36 -54 57 -86 21 -32
42 -60 48 -64 5 -3 -8 21 -30 53 -53 78 -75 122 -68 134 4 6 11 8 16 5 13 -9
11 6 -6 56 -9 24 -14 52 -11 62 2 9 0 15 -5 11 -5 -3 -9 3 -9 13 0 10 -7 27
-15 37 -8 11 -15 25 -15 30 1 6 8 -1 16 -16 19 -36 27 -35 22 2 -7 47 7 21 22
-40 16 -67 43 -109 70 -107 11 1 20 2 20 3 0 0 -9 27 -20 59 -23 68 -25 91 -5
55 20 -36 19 -7 -5 75 -12 43 -16 71 -10 73 5 2 10 17 10 33 l0 29 -435 0
c-239 0 -435 -3 -435 -6z m277 -166 c-3 -7 -5 -2 -5 12 0 14 2 19 5 13 2 -7 2
-19 0 -25z m-15 -120 c-3 -13 -1 -19 6 -15 6 4 21 -21 37 -65 15 -40 34 -88
42 -107 7 -19 12 -36 10 -37 -2 -2 -22 25 -44 59 -52 79 -76 143 -62 169 13
24 18 23 11 -4z m135 -30 c-3 -8 -6 -5 -6 6 -1 11 2 17 5 13 3 -3 4 -12 1 -19z"/>
<path d="M2300 4855 c0 -8 4 -15 9 -15 5 0 39 -60 75 -134 71 -147 124 -223
210 -303 33 -31 56 -61 56 -73 0 -23 28 -70 41 -70 5 0 9 12 9 28 l1 27 21
-29 c12 -16 33 -41 46 -55 23 -25 24 -25 54 -8 16 9 37 17 45 17 12 0 13 3 4
14 -16 19 1 30 32 21 18 -6 20 -5 10 6 -37 38 8 36 154 -6 109 -32 125 -31 76
3 -78 53 -113 88 -115 114 -2 26 -16 28 -44 6 -7 -5 -36 -15 -67 -23 -53 -14
-58 -13 -118 10 -35 14 -68 25 -74 25 -13 0 -35 16 -128 95 -68 57 -87 60 -22
4 29 -26 61 -96 49 -108 -11 -11 -124 124 -154 182 -17 31 -27 57 -24 57 4 0
22 -17 40 -37 39 -45 44 -41 9 7 -29 39 -32 52 -9 43 14 -5 13 -3 -2 15 -22
27 -25 27 -17 5 8 -23 -44 23 -59 52 -9 17 -7 16 16 -4 14 -14 28 -23 29 -20
6 6 -60 89 -65 83 -3 -2 -16 16 -29 41 -23 44 -59 62 -59 30z m412 -482 c7
-10 18 -18 23 -18 6 -1 29 -4 53 -9 51 -10 46 -31 -7 -23 -39 7 -39 6 24 -38
15 -10 16 -14 5 -14 -24 0 -90 51 -112 87 -21 33 -9 46 14 15z"/>
<path d="M2420 4865 c0 -3 16 -31 36 -62 48 -75 114 -204 114 -223 0 -24 84
-93 165 -135 79 -40 151 -54 221 -41 l36 7 -23 25 c-12 13 -29 24 -37 24 -15
0 -81 37 -225 124 -27 16 -77 63 -112 105 -90 106 -72 112 32 10 82 -80 48
-28 -52 79 -77 81 -91 92 -121 92 -19 0 -34 -2 -34 -5z"/>
<path d="M2558 4842 c40 -64 132 -172 132 -155 0 7 -4 15 -10 18 -23 14 -7 25
38 25 57 0 94 9 86 21 -9 15 29 69 51 70 11 1 -14 7 -55 14 -41 7 -93 18 -115
24 -22 6 -64 11 -92 11 l-53 0 18 -28z"/>
<path d="M2830 4860 c0 -5 5 -10 11 -10 5 0 7 5 4 10 -3 6 -8 10 -11 10 -2 0
-4 -4 -4 -10z"/>
<path d="M2950 4859 c0 -5 5 -7 10 -4 6 3 10 8 10 11 0 2 -4 4 -10 4 -5 0 -10
-5 -10 -11z"/>
<path d="M700 4791 c-13 -25 -13 -34 0 -26 16 10 32 45 21 45 -6 0 -15 -9 -21
-19z"/>
<path d="M2244 4729 c-3 -6 -2 -14 2 -18 10 -6 26 -42 70 -156 24 -61 28 -85
28 -183 1 -61 0 -112 -1 -112 -2 0 -12 17 -23 38 -14 24 -18 29 -14 12 9 -35
114 -249 125 -256 14 -8 11 152 -5 243 -13 71 -45 168 -67 198 -3 6 -10 26
-14 45 -8 36 -81 200 -89 200 -3 0 -8 -5 -12 -11z"/>
<path d="M2507 4629 c7 -7 15 -10 18 -7 3 3 -2 9 -12 12 -14 6 -15 5 -6 -5z"/>
<path d="M2725 4600 c10 -11 20 -20 23 -20 3 0 -3 9 -13 20 -10 11 -20 20 -23
20 -3 0 3 -9 13 -20z"/>
<path d="M2530 4606 c0 -2 8 -10 18 -17 15 -13 16 -12 3 4 -13 16 -21 21 -21
13z"/>
<path d="M1841 4464 c0 -11 3 -14 6 -6 3 7 2 16 -1 19 -3 4 -6 -2 -5 -13z"/>
<path d="M3080 4465 c-7 -9 -11 -17 -9 -20 3 -2 10 5 17 15 14 24 10 26 -8 5z"/>
<path d="M1231 4418 c-6 -29 -13 -82 -16 -118 -4 -36 -8 -76 -11 -90 -4 -19
-2 -22 6 -10 5 8 10 31 11 50 0 28 2 31 8 15 5 -13 10 21 13 90 2 61 3 111 2
113 -1 2 -7 -20 -13 -50z"/>
<path d="M1851 4402 c-1 -24 10 -88 24 -144 14 -56 25 -103 25 -104 0 -2 4 -4
9 -4 5 0 0 35 -10 78 -23 95 -23 106 -2 64 32 -66 22 -4 -13 74 -7 17 -18 42
-23 55 -9 21 -10 19 -10 -19z"/>
<path d="M2150 4394 c0 -4 15 -32 34 -63 18 -31 37 -67 41 -81 4 -14 27 -53
52 -87 l44 -63 -38 -1 c-21 0 -32 -3 -25 -6 28 -11 10 -24 -24 -17 -28 5 -35
4 -29 -5 9 -15 -67 -3 -76 12 -4 5 -16 6 -28 2 -17 -5 -19 -10 -11 -25 15 -27
12 -38 -5 -16 -13 18 -15 18 -45 -4 -17 -12 -29 -25 -25 -28 3 -3 11 0 17 6
21 21 26 13 17 -25 -11 -52 -2 -83 25 -83 12 0 33 -15 49 -35 15 -19 33 -35
39 -35 6 0 1 11 -11 24 -30 32 -13 40 45 20 37 -12 52 -14 66 -5 10 6 18 7 18
2 0 -14 -44 -39 -76 -44 l-29 -4 32 -2 c50 -2 80 15 102 56 10 21 22 37 25 36
33 -14 48 18 34 71 -4 16 -5 32 -2 35 9 10 24 -23 24 -56 0 -17 5 -35 10 -38
6 -3 10 3 10 14 0 10 2 26 5 33 6 14 -1 25 -96 150 -30 40 -79 117 -108 171
-48 88 -61 108 -61 91z m190 -444 c0 -11 -7 -20 -15 -20 -8 0 -15 9 -15 20 0
11 7 20 15 20 8 0 15 -9 15 -20z"/>
<path d="M1670 4366 c0 -10 73 -142 97 -174 44 -61 47 -60 13 3 -69 125 -110
190 -110 171z"/>
<path d="M2584 4336 c17 -70 25 -226 15 -324 -11 -105 -7 -135 10 -91 8 19 10
7 10 -51 l0 -75 -25 30 c-77 92 -74 86 -74 157 0 70 -13 91 -23 38 -7 -32 -26
-41 -28 -12 0 9 -3 12 -5 6 -3 -7 4 -27 15 -45 27 -44 27 -57 -1 -33 -12 10
-18 14 -15 8 4 -7 -2 -38 -13 -70 -12 -37 -15 -52 -6 -41 18 23 29 22 21 -2
-3 -11 -1 -22 5 -26 5 -3 10 -15 10 -26 0 -10 5 -19 10 -19 6 0 10 9 10 20 0
26 3 26 56 -11 62 -43 65 -31 4 20 -28 24 -50 51 -50 62 0 10 4 19 8 19 17 0
100 -97 106 -124 6 -23 9 -27 17 -15 5 7 9 23 9 34 0 11 5 27 10 35 8 13 11
12 25 -5 15 -19 15 -19 9 7 -6 28 2 68 14 68 4 0 15 -17 24 -38 l17 -37 -1 54
c-2 48 1 56 29 80 41 35 49 68 17 74 -13 2 -24 1 -24 -2 0 -14 -39 -9 -44 6
-4 9 -9 49 -13 89 l-6 73 37 -4 c20 -1 36 -2 36 0 0 1 -19 15 -42 31 -24 16
-46 33 -50 39 -14 19 -15 -2 -2 -70 15 -81 26 -169 18 -140 -35 119 -107 326
-116 331 -7 5 -9 -1 -4 -20z m106 -338 c0 -5 -4 -8 -10 -8 -5 0 -10 10 -10 23
0 18 2 19 10 7 5 -8 10 -18 10 -22z"/>
<path d="M2719 4237 c14 -18 51 -42 51 -33 0 3 -15 15 -32 27 -24 17 -29 18
-19 6z"/>
<path d="M1202 4083 c-2 -38 0 -41 20 -35 14 3 19 2 14 -6 -4 -7 -14 -12 -22
-12 -8 0 -14 -10 -14 -25 0 -27 9 -32 27 -14 13 13 5 -39 -8 -57 -13 -16 25
-69 51 -71 13 -1 36 -18 52 -37 50 -61 134 -61 170 -1 24 42 38 45 38 7 0 -33
-24 -70 -54 -82 l-21 -9 22 0 c13 -1 30 11 45 32 19 26 23 45 23 105 0 54 3
71 13 67 19 -7 15 1 -20 35 -29 30 -116 72 -103 50 4 -6 -11 -8 -37 -6 -24 2
-65 4 -92 5 -42 1 -47 3 -36 16 11 13 7 15 -23 15 -33 0 -36 3 -40 33 -3 28
-4 27 -5 -10z m318 -189 c0 -17 -22 -14 -28 4 -2 7 3 12 12 12 9 0 16 -7 16
-16z m-158 -55 c2 -6 25 -12 50 -13 43 -1 45 -2 31 -18 -9 -10 -26 -18 -38
-18 -23 0 -75 35 -75 51 0 13 28 11 32 -2z"/>
<path d="M1290 4051 c0 -5 9 -7 20 -4 11 3 20 7 20 9 0 2 -9 4 -20 4 -11 0
-20 -4 -20 -9z"/>
<path d="M1170 3911 c0 -11 5 -23 10 -26 6 -4 10 5 10 19 0 14 -4 26 -10 26
-5 0 -10 -9 -10 -19z"/>
<path d="M662 3864 c-12 -25 -18 -43 -13 -40 11 7 44 76 39 82 -2 2 -14 -17
-26 -42z"/>
<path d="M2325 3829 c-6 -9 -25 -24 -42 -33 -18 -9 -33 -19 -33 -22 0 -10 64
7 78 21 8 7 12 21 10 31 -3 17 -5 17 -13 3z"/>
<path d="M611 3776 l-24 -31 28 27 c16 15 27 29 24 31 -2 3 -15 -10 -28 -27z"/>
<path d="M2148 3783 c7 -3 16 -2 19 1 4 3 -2 6 -13 5 -11 0 -14 -3 -6 -6z"/>
<path d="M1280 3771 c0 -31 90 -66 105 -41 4 6 -5 10 -20 10 -15 0 -40 9 -56
21 -16 11 -29 16 -29 10z"/>
<path d="M831 3684 c0 -11 3 -14 6 -6 3 7 2 16 -1 19 -3 4 -6 -2 -5 -13z"/>
<path d="M957 3680 c-3 -11 -1 -20 4 -20 5 0 9 9 9 20 0 11 -2 20 -4 20 -2 0
-6 -9 -9 -20z"/>
<path d="M2620 3666 c0 -22 3 -27 11 -19 8 8 8 16 0 30 -9 16 -10 14 -11 -11z"/>
<path d="M2397 3648 c-10 -17 -16 -33 -13 -35 7 -7 38 45 34 56 -1 6 -11 -3
-21 -21z"/>
<path d="M2557 3636 c-4 -10 -5 -21 -2 -24 9 -9 17 6 13 25 -3 17 -4 17 -11
-1z"/>
<path d="M2377 3542 c-21 -60 -92 -160 -141 -197 -19 -15 -38 -35 -41 -46 -4
-10 -13 -19 -20 -19 -8 0 -26 -11 -42 -24 -25 -22 -28 -31 -33 -112 -5 -86 -6
-89 -30 -92 -34 -4 -80 -23 -80 -32 0 -4 7 -10 15 -14 21 -8 19 -32 -5 -56
-20 -20 -18 -50 4 -50 6 0 34 6 61 13 l50 13 5 50 5 49 18 -30 18 -30 -4 32
c-2 18 0 30 5 27 4 -3 8 -16 8 -29 0 -13 4 -27 10 -30 15 -9 9 85 -8 119 -16
33 -18 131 -2 167 7 18 8 9 4 -36 -3 -33 -1 -71 5 -85 8 -22 10 -18 12 30 1
30 2 60 4 65 1 6 3 17 4 25 1 8 13 -9 26 -38 24 -51 93 -151 107 -152 3 0 -2
23 -13 50 -21 56 -24 111 -8 142 8 15 8 19 0 14 -17 -11 -13 34 9 105 20 63
47 118 37 74 -3 -11 -8 -38 -11 -60 -8 -59 9 -13 35 91 24 98 22 138 -4 66z"/>
<path d="M1091 3544 c15 -16 39 -42 54 -59 15 -16 38 -50 51 -75 13 -25 23
-37 24 -27 0 32 -39 96 -86 139 -54 50 -81 64 -43 22z"/>
<path d="M1233 3423 c2 -29 -1 -57 -7 -63 -7 -7 -7 -10 1 -10 6 0 15 -15 19
-32 l7 -33 13 32 c8 17 18 34 23 38 13 8 69 -81 75 -120 3 -16 9 -52 14 -80
l9 -50 16 37 c10 21 17 49 17 62 0 14 8 29 17 35 16 8 13 13 -21 43 -63 54
-151 141 -169 168 -18 25 -18 25 -14 -27z"/>
<path d="M1767 3368 c-9 -31 -2 -33 11 -3 6 14 8 25 3 25 -5 0 -11 -10 -14
-22z"/>
<path d="M1477 3203 c7 -32 16 -80 19 -108 l7 -50 17 60 c16 56 18 58 25 32 9
-32 -1 -121 -16 -150 -14 -25 -2 -35 15 -12 11 16 14 12 19 -36 4 -30 7 -83 8
-119 1 -79 16 -140 18 -73 1 23 5 44 10 47 5 3 12 33 16 67 6 51 10 59 24 53
9 -4 36 -11 61 -16 25 -5 60 -14 78 -20 19 -5 54 -7 79 -3 33 5 48 3 54 -7 7
-10 9 -9 9 4 0 9 9 20 20 23 23 7 27 33 5 41 -18 7 -20 40 -2 51 14 9 -44 21
-145 30 l-68 5 -5 37 c-15 90 -8 82 -134 144 -65 31 -121 57 -123 57 -3 0 1
-26 9 -57z m203 -106 c0 15 29 -33 30 -49 0 -23 -9 -23 -30 2 -12 14 -21 17
-25 10 -9 -15 -35 7 -35 30 0 27 12 31 37 15 13 -9 23 -12 23 -8z m205 -138
c16 0 15 -3 -8 -11 -37 -13 -64 -4 -47 18 9 10 16 12 24 4 5 -5 19 -10 31 -11z"/>
<path d="M1958 3147 c-41 -24 -46 -32 -24 -40 10 -4 13 -1 9 9 -3 8 1 14 10
14 8 0 25 9 38 20 32 26 13 24 -33 -3z"/>
<path d="M1745 3099 c3 -60 5 -69 15 -69 5 0 7 7 4 15 -4 10 0 15 11 15 10 0
13 -5 9 -12 -5 -8 -2 -9 10 -5 10 4 22 7 27 7 6 0 8 4 5 9 -3 5 9 12 27 17
l32 8 -35 4 c-19 2 -40 8 -45 12 -6 5 -22 13 -36 19 -24 9 -26 8 -24 -20z m44
-6 l22 -18 -25 0 c-13 0 -22 3 -19 8 2 4 -1 7 -6 7 -6 0 -11 5 -11 10 0 15 15
12 39 -7z"/>
<path d="M1227 3103 c-4 -3 -7 -11 -7 -17 0 -6 5 -5 12 2 6 6 9 14 7 17 -3 3
-9 2 -12 -2z"/>
<path d="M1890 3099 c0 -5 5 -7 10 -4 6 3 10 8 10 11 0 2 -4 4 -10 4 -5 0 -10
-5 -10 -11z"/>
<path d="M2520 3000 c0 -5 5 -10 11 -10 5 0 7 5 4 10 -3 6 -8 10 -11 10 -2 0
-4 -4 -4 -10z"/>
<path d="M2398 2942 c9 -10 19 -17 21 -16 6 5 -20 34 -30 34 -5 0 -1 -8 9 -18z"/>
<path d="M2390 2901 c0 -6 4 -11 9 -11 5 0 23 -12 40 -26 17 -14 31 -22 31
-17 0 5 -12 18 -27 29 -44 32 -53 36 -53 25z"/>
<path d="M1226 2862 c126 -92 229 -221 322 -402 l54 -104 -4 -92 c-3 -97 -18
-133 -64 -158 -32 -18 -48 -51 -20 -40 9 3 19 -5 28 -23 17 -36 34 -31 30 8
-3 23 6 43 37 83 50 65 91 162 91 215 0 22 -14 84 -32 138 l-32 98 -120 120
c-136 135 -214 185 -286 185 l-43 0 39 -28z"/>
<path d="M1094 2854 c-18 -14 -18 -14 6 -3 31 14 36 19 24 19 -6 0 -19 -7 -30
-16z"/>
<path d="M2238 2804 c-32 -31 -58 -57 -58 -59 0 -2 18 -6 40 -10 22 -4 44 -13
48 -21 7 -13 16 -12 61 5 28 12 63 21 76 21 30 0 65 -47 65 -87 l-1 -28 -17
35 c-10 20 -25 35 -35 35 -10 0 -22 7 -27 14 -7 13 -15 12 -51 -2 -112 -44
-199 -123 -199 -181 0 -14 -4 -26 -9 -26 -9 0 -51 -121 -51 -149 0 -10 -7 -25
-16 -32 -15 -12 -16 -35 -10 -204 5 -132 13 -216 27 -274 11 -46 18 -86 16
-88 -8 -7 -47 133 -47 167 0 26 -9 43 -32 65 -30 30 -30 30 -23 5 4 -14 14
-33 23 -42 12 -14 14 -32 8 -88 -3 -39 -12 -79 -18 -90 -15 -24 -54 -35 -148
-43 -14 -1 -28 -6 -32 -12 -15 -21 -22 10 -20 88 1 45 6 105 10 133 9 54 2 98
-12 75 -4 -7 -5 -24 -1 -38 3 -14 -1 -61 -10 -105 -9 -44 -15 -92 -12 -106 6
-30 -1 -54 -14 -46 -5 3 -9 1 -9 -5 0 -15 -63 6 -77 26 -9 11 -13 13 -13 4 0
-11 -3 -11 -14 -2 -11 10 -15 8 -19 -6 -3 -10 -5 6 -6 36 0 30 -4 51 -8 48 -3
-4 -5 -89 -4 -189 2 -148 -2 -201 -17 -278 -21 -100 -26 -146 -42 -375 -5 -77
-19 -201 -29 -275 -24 -158 -54 -478 -46 -490 11 -17 53 -190 45 -185 -4 3
-14 29 -20 57 -7 29 -18 64 -25 77 -12 23 -13 22 -19 -25 -4 -27 -9 -66 -12
-86 l-6 -38 896 0 896 0 0 224 c0 214 -1 225 -23 267 -32 60 -151 350 -182
442 -24 71 -25 81 -15 179 5 56 21 173 35 258 41 249 51 355 36 383 -18 34
-10 60 19 67 29 7 90 111 83 140 -5 17 -7 17 -40 -3 -20 -11 -38 -28 -40 -38
-6 -22 -70 -50 -108 -47 -27 3 -30 0 -30 -26 -1 -35 -66 -96 -102 -96 -20 0
-23 -4 -18 -20 9 -29 -59 -112 -88 -108 -15 2 -23 -3 -25 -17 -3 -11 -20 -43
-38 -72 -24 -37 -40 -53 -55 -53 -26 0 -89 -46 -89 -64 0 -28 -86 -37 -96 -11
-7 17 -46 11 -79 -11 -38 -27 -111 -10 -146 32 -12 15 -12 18 2 27 15 9 15 12
0 38 -9 15 -23 30 -33 32 -22 6 -55 114 -39 130 13 13 15 57 2 57 -5 0 -12
-11 -15 -25 -4 -14 -11 -25 -16 -25 -14 0 -13 6 6 42 11 21 13 33 5 37 -6 4
-14 29 -17 55 -6 39 -4 48 7 44 9 -3 14 -18 13 -42 -1 -20 3 -36 8 -36 5 0 7
3 4 8 -2 4 3 16 11 27 15 19 15 19 9 -6 -4 -19 -2 -26 9 -26 10 0 15 11 15 34
0 23 5 33 15 33 8 0 18 0 22 0 15 0 13 -93 -2 -117 -14 -21 -14 -25 0 -39 8
-9 13 -19 10 -24 -3 -5 2 -27 11 -49 10 -24 14 -52 10 -67 -9 -33 7 -52 50
-60 18 -3 38 -12 45 -20 9 -10 16 -11 32 -2 12 6 53 13 92 15 72 5 115 27 115
61 0 14 27 43 102 109 21 19 26 32 27 79 0 31 3 60 7 65 7 12 61 11 69 -1 10
-16 26 0 20 20 -4 12 6 31 30 57 19 21 35 41 35 46 0 12 28 8 43 -8 13 -12 20
-9 57 25 41 38 89 58 110 45 5 -3 22 5 37 19 26 25 26 25 10 63 -28 62 -65
195 -117 418 -27 116 -52 220 -56 232 -6 21 -7 21 -51 6 -25 -9 -75 -33 -112
-54 -36 -22 -74 -39 -83 -39 -30 0 -20 -14 34 -45 65 -38 78 -57 55 -83 -17
-19 -89 -145 -135 -237 -22 -43 -64 -104 -172 -245 -14 -19 -35 -49 -45 -67
-10 -18 -25 -35 -32 -37 -17 -7 -17 -2 7 44 28 55 25 60 -9 13 -33 -46 -81
-84 -129 -103 -56 -22 -47 -3 12 25 84 40 123 101 181 283 55 175 65 224 65
328 0 143 -6 169 -46 196 -30 21 -33 27 -28 59 5 29 3 37 -12 42 -11 3 -55 19
-99 36 -44 17 -82 31 -85 31 -3 0 -31 -25 -62 -56z m732 -848 c0 -3 -4 -8 -10
-11 -5 -3 -10 -1 -10 4 0 6 5 11 10 11 6 0 10 -2 10 -4z m-320 -576 c0 -5 -4
-10 -10 -10 -5 0 -10 5 -10 10 0 6 5 10 10 10 6 0 10 -4 10 -10z"/>
<path d="M1030 2831 c0 -5 5 -13 10 -16 6 -3 10 -2 10 4 0 5 -4 13 -10 16 -5
3 -10 2 -10 -4z"/>
<path d="M1265 2800 c10 -11 20 -20 23 -20 3 0 -3 9 -13 20 -10 11 -20 20 -23
20 -3 0 3 -9 13 -20z"/>
<path d="M762 2667 c-64 -62 -147 -143 -184 -179 -37 -37 -83 -78 -101 -92
-21 -16 -38 -41 -46 -67 -11 -37 -9 -49 29 -167 41 -121 42 -130 37 -222 -3
-52 -10 -128 -16 -169 -10 -70 -10 -77 12 -110 20 -32 22 -49 21 -151 0 -94
-5 -133 -28 -215 -16 -58 -32 -147 -37 -210 -5 -60 -15 -126 -23 -145 -8 -19
-21 -65 -30 -102 -14 -62 -76 -218 -96 -243 -4 -5 -31 -50 -58 -98 l-51 -88
40 -102 c22 -56 49 -117 60 -135 10 -18 19 -39 19 -47 0 -7 11 -36 26 -64 l25
-51 538 0 538 0 13 108 c14 123 15 115 -77 396 l-56 169 17 96 c31 177 71 356
74 338 2 -11 -10 -89 -26 -175 -55 -284 -57 -233 15 -448 34 -104 63 -198 64
-209 3 -41 17 64 24 170 3 61 15 164 25 230 11 66 26 214 35 330 9 115 25 259
36 320 16 90 19 149 18 325 -1 118 2 233 6 254 6 28 5 37 -4 32 -7 -5 -11 1
-11 13 0 23 15 28 23 9 3 -7 6 -2 6 11 1 19 -3 22 -21 18 -13 -3 -48 -9 -79
-12 -47 -6 -58 -11 -72 -35 -9 -15 -14 -30 -10 -34 17 -16 -87 12 -105 29 -2
2 4 17 14 34 18 30 18 31 -1 45 -19 14 -21 13 -29 -17 -4 -18 -10 -37 -12 -44
-2 -8 -18 -4 -51 14 -54 30 -59 35 -111 113 -67 98 -102 144 -141 186 -30 31
-46 61 -70 137 -17 53 -34 121 -37 151 l-6 54 51 13 c28 7 51 18 51 25 0 7
-25 38 -56 68 l-55 55 -117 -112z m794 -792 c-14 -48 -14 -49 -15 -15 -1 19 5
53 11 75 10 34 13 36 15 15 2 -14 -3 -47 -11 -75z m-57 -308 c-5 -17 -21 -103
-34 -190 -14 -88 -28 -164 -32 -170 -3 -5 -10 -24 -14 -41 -9 -31 -9 -31 -5 4
5 39 51 306 67 388 6 29 14 50 19 47 5 -3 4 -20 -1 -38z"/>
<path d="M1070 2661 c0 -5 7 -15 17 -22 15 -13 15 -12 4 9 -12 23 -21 28 -21
13z"/>
<path d="M2011 2474 c0 -11 3 -14 6 -6 3 7 2 16 -1 19 -3 4 -6 -2 -5 -13z"/>
<path d="M2051 2474 c0 -11 3 -14 6 -6 3 7 2 16 -1 19 -3 4 -6 -2 -5 -13z"/>
<path d="M2052 2360 c0 -19 2 -27 5 -17 2 9 2 25 0 35 -3 9 -5 1 -5 -18z"/>
<path d="M2021 2264 c0 -11 3 -14 6 -6 3 7 2 16 -1 19 -3 4 -6 -2 -5 -13z"/>
<path d="M1541 2177 c-30 -55 -23 -87 7 -37 18 29 30 80 19 80 -1 0 -13 -20
-26 -43z"/>
<path d="M2007 2137 c-9 -40 -17 -83 -17 -97 l1 -25 11 25 c10 23 11 23 15 5
13 -56 23 -31 23 57 0 53 -3 99 -8 102 -4 2 -15 -28 -25 -67z"/>
<path d="M1462 2144 c-24 -19 -48 -31 -53 -28 -6 3 -19 -2 -30 -12 -16 -15
-22 -16 -29 -5 -6 10 -10 8 -15 -9 -5 -15 -2 -25 6 -31 26 -16 48 -9 74 26 15
19 30 33 34 32 3 -1 17 8 31 21 13 12 27 22 32 22 4 0 8 5 8 10 0 16 -12 11
-58 -26z"/>
<path d="M1779 2038 c9 -12 10 -18 2 -18 -6 0 -11 -12 -11 -26 0 -14 4 -23 10
-19 6 4 8 11 4 16 -3 5 -1 16 5 23 9 10 7 17 -6 27 -16 13 -17 12 -4 -3z"/>
<path d="M1640 1978 c0 -25 3 -29 10 -18 13 20 13 50 0 50 -5 0 -10 -15 -10
-32z"/>
<path d="M2882 1851 c-43 -58 6 -85 52 -30 25 30 26 32 9 45 -26 20 -37 17
-61 -15z"/>
<path d="M1621 1844 c0 -11 3 -14 6 -6 3 7 2 16 -1 19 -3 4 -6 -2 -5 -13z"/>
<path d="M2815 1721 c-3 -6 -17 -11 -31 -11 -31 0 -31 -15 0 -18 23 -2 55 23
43 34 -3 3 -8 1 -12 -5z"/>
<path d="M2206 1632 c-3 -6 -2 -13 4 -17 5 -3 10 -15 10 -26 0 -10 5 -19 10
-19 13 0 13 1 -4 40 -7 18 -16 28 -20 22z"/>
<path d="M2667 1579 c-27 -21 -35 -43 -18 -53 9 -6 55 63 48 70 -2 3 -16 -5
-30 -17z"/>
<path d="M2306 1453 c-3 -3 -3 -10 0 -14 7 -12 34 -11 34 0 0 11 -26 22 -34
14z"/>
</g>
</svg>
